<?xml version="1.0" encoding="utf-8"?>
<!-- Generator: Adobe Illustrator 27.5.0, SVG Export Plug-In . SVG Version: 6.00 Build 0)  -->
<svg version="1.1" xmlns="http://www.w3.org/2000/svg" xmlns:xlink="http://www.w3.org/1999/xlink" x="0px" y="0px"
	 viewBox="0 0 500 500" style="enable-background:new 0 0 500 500;" xml:space="preserve">
<g id="BACKGROUND">
	<rect style="fill:#FFFFFF;" width="500" height="500"/>
</g>
<g id="OBJECTS">
	<g>
		<ellipse style="fill:#E3E5E8;" cx="253.423" cy="437.432" rx="215.831" ry="13.656"/>
	</g>
	<g>
		<g>
			<path style="fill:#D4D5D6;" d="M113.389,144.914l-2.392,0.045l-1.269,0.023l-3.594,0.066c0,0-36.426-54.317-16.739-73.876
				c6.061-6.021,17.507-1.992,16.554,24.109C105.068,119.478,113.389,144.914,113.389,144.914z"/>
			<g>
				<path style="fill:#C6C6C6;" d="M110.997,144.959l-1.269,0.023c-6.582-13.292-10.358-27.763-12.408-37.956
					c-2.435-12.103-3.033-20.959-3.037-21.047c-0.022-0.316,0.218-0.59,0.534-0.609c0.316-0.022,0.59,0.218,0.61,0.533
					c0.006,0.089,0.599,8.883,3.022,20.915C100.511,117.062,104.325,131.651,110.997,144.959z"/>
			</g>
		</g>
		<g>
			<path style="fill:#E3E5E8;" d="M120.998,162.007l-3.241,1.219l-1.72,0.646l-4.871,1.83c0,0-75.997-56.476-58.605-92.693
				c5.354-11.15,22.922-11.193,34.259,24.881C97.33,131.33,120.998,162.007,120.998,162.007z"/>
			<g>
				<g>
					<path style="fill:#D4D5D6;" d="M117.757,163.226l-1.72,0.646c-15.415-14.949-27.574-32.865-35.306-45.779
						c-9.182-15.334-14.285-27.128-14.334-27.246c-0.183-0.421,0.012-0.91,0.434-1.089c0.421-0.183,0.91,0.012,1.091,0.432
						c0.051,0.119,5.118,11.83,14.249,27.073C89.943,130.24,102.21,148.298,117.757,163.226z"/>
				</g>
			</g>
		</g>
		<g>
			<path style="fill:#D4D5D6;" d="M265.316,407.649l2.37,0.327l1.257,0.172l3.561,0.489c0,0,42.573-49.647,25.328-71.389
				c-5.309-6.693-17.15-4.041-19.28,21.991C276.577,383.37,265.316,407.649,265.316,407.649z"/>
			<g>
				<path style="fill:#C6C6C6;" d="M267.686,407.975l1.257,0.172c8.102-12.423,13.558-26.349,16.795-36.229
					c3.844-11.731,5.482-20.456,5.497-20.542c0.059-0.312-0.147-0.611-0.459-0.668c-0.312-0.059-0.611,0.147-0.669,0.458
					c-0.016,0.088-1.642,8.751-5.465,20.413C281.387,381.508,275.88,395.546,267.686,407.975z"/>
			</g>
		</g>
		<g>
			<path style="fill:#E3E5E8;" d="M255.745,423.725l3.075,1.593l1.632,0.844l4.622,2.392c0,0,82.123-47.126,69.12-85.14
				c-4.003-11.703-21.443-13.817-36.953,20.67C282.864,396.051,255.745,423.725,255.745,423.725z"/>
			<g>
				<g>
					<path style="fill:#D4D5D6;" d="M258.821,425.318l1.632,0.844c17.069-13.028,31.255-29.387,40.455-41.3
						c10.925-14.145,17.383-25.256,17.445-25.367c0.231-0.397,0.095-0.905-0.303-1.133c-0.397-0.231-0.905-0.095-1.134,0.301
						c-0.064,0.112-6.476,11.145-17.34,25.206C290.328,395.839,276.018,412.327,258.821,425.318z"/>
				</g>
			</g>
		</g>
		<g>
			<path style="fill:#D4D5D6;" d="M45.156,221.245c5.436,11.411,17.331,9.165,18.599,18.922c1.268,9.755,8.529,16.174,16.642,13.079
				c8.114-3.098,13.912-5.83,19.256,3.235c5.342,9.065,18.307,11.984,21.943,3.596c0.907-2.087,1.884-4.349,2.839-6.568
				c0.26-0.606,0.521-1.21,0.777-1.804c0.06-0.137,0.12-0.275,0.178-0.412c3.843-8.924,0.467-19.423-8.006-24.178
				c-3.43-1.924-7.295-2.703-11.245-0.834c-12.373,5.847-9.743-7.932-18.336-12.24c-9.897-4.965-16.404,3.429-23.351-1.033
				C54.787,206.804,39.72,209.834,45.156,221.245z"/>
			<g>
				<path style="fill:#C6C6C6;" d="M61.441,223.994l62.993,29.516c0.26-0.606,0.521-1.21,0.777-1.804l-62.936-29.49
					c-0.491-0.23-1.076-0.019-1.306,0.472C60.74,223.179,60.95,223.764,61.441,223.994z"/>
			</g>
		</g>
		<g>
			<path style="fill:#E3E5E8;" d="M58.456,166.876c-0.014,15.644,14.47,19.48,10.683,31.054c-3.786,11.572,0.9,22.615,11.612,23.484
				c10.715,0.868,18.649,0.908,19.783,13.883c1.132,12.974,14.057,23.149,22.591,15.719c2.126-1.848,4.424-3.853,6.674-5.821
				c0.614-0.538,1.227-1.073,1.83-1.601c0.141-0.122,0.281-0.243,0.419-0.365c9.052-7.918,10.88-21.446,3.953-31.275
				c-2.805-3.979-6.706-6.91-12.115-6.929c-16.938-0.068-6.653-14.056-13.953-23.45c-8.406-10.823-20.151-4.918-25.532-13.607
				C76.915,155.883,58.471,151.232,58.456,166.876z"/>
			<g>
				<path style="fill:#D4D5D6;" d="M75.181,178.632l54.619,66.563c0.614-0.538,1.227-1.073,1.83-1.601L77.06,177.092
					c-0.426-0.519-1.192-0.595-1.71-0.169C74.831,177.348,74.755,178.114,75.181,178.632z"/>
			</g>
		</g>
		<g>
			<path style="fill:#D4D5D6;" d="M325.339,123.593c-1.604,12.537-13.607,14.114-11.768,23.78
				c1.838,9.663-3.057,18.028-11.731,17.618c-8.676-0.412-15.037-1.199-17.286,9.081c-2.247,10.279-13.655,17.097-19.726,10.262
				c-1.513-1.7-3.147-3.544-4.746-5.354c-0.436-0.495-0.873-0.987-1.301-1.472c-0.1-0.112-0.2-0.224-0.298-0.336
				c-6.435-7.279-6.503-18.308,0.064-25.469c2.659-2.898,6.087-4.844,10.424-4.301c13.58,1.695,6.783-10.576,13.602-17.349
				c7.854-7.804,16.655-1.859,21.864-8.266C311.684,112.877,326.944,111.056,325.339,123.593z"/>
			<g>
				<path style="fill:#C6C6C6;" d="M310.724,131.285l-50.641,47.695c-0.436-0.495-0.873-0.987-1.301-1.472l50.595-47.652
					c0.395-0.372,1.016-0.354,1.388,0.041C311.136,130.292,311.119,130.914,310.724,131.285z"/>
			</g>
		</g>
		<g>
			<path style="fill:#E3E5E8;" d="M309.915,68.648c2.759,15.399-10.828,21.716-5.07,32.446c5.757,10.728,3.081,22.422-7.313,25.157
				c-10.397,2.734-18.2,4.166-17.041,17.138c1.162,12.972-9.778,25.256-19.483,19.438c-2.418-1.446-5.031-3.017-7.591-4.56
				c-0.699-0.422-1.397-0.841-2.083-1.255c-0.16-0.095-0.319-0.19-0.477-0.286c-10.3-6.207-14.474-19.204-9.378-30.097
				c2.063-4.409,5.39-7.979,10.712-8.947c16.664-3.039,4.084-15.005,9.623-25.534c6.377-12.13,18.976-8.377,22.749-17.875
				C289.814,61.063,307.157,53.249,309.915,68.648z"/>
			<g>
				<path style="fill:#D4D5D6;" d="M295.513,83.156l-42.095,75.112c-0.699-0.422-1.397-0.841-2.083-1.255l42.057-75.044
					c0.328-0.585,1.069-0.795,1.654-0.467C295.631,81.83,295.841,82.571,295.513,83.156z"/>
			</g>
		</g>
		<g>
			<g>
				<path style="fill:#D4D5D6;" d="M205.377,141.083c6.409-17.719,12.956-32.452,19.496-43.856
					c8.544-14.899,17.112-24.118,25.467-27.402c0.554-0.217,1.179,0.055,1.397,0.609c0.218,0.554-0.055,1.179-0.609,1.397
					c-14.605,5.74-30.271,31.504-45.351,74.55L205.377,141.083z"/>
			</g>
			<path style="fill:#E3E5E8;" d="M233.596,84.58c0,0-8.24-3.637-1.28-17.875C232.316,66.705,243.351,75.849,233.596,84.58z"/>
			<path style="fill:#E3E5E8;" d="M229.628,91.735c0,0,3.173-8.43,17.776-2.273C247.404,89.462,238.888,100.989,229.628,91.735z"/>
			<path style="fill:#E3E5E8;" d="M244.87,74.171c0,0,0.181-9.005,16.001-8.069C260.871,66.102,256.685,79.808,244.87,74.171z"/>
			<path style="fill:#E3E5E8;" d="M221.201,105.883c0,0-8.985-0.635-7.251-16.388C213.95,89.494,227.428,94.367,221.201,105.883z"/>
			<path style="fill:#E3E5E8;" d="M218.262,113.784c0,0,1.667-8.852,17.115-5.313C235.377,108.471,228.983,121.297,218.262,113.784z
				"/>
			<path style="fill:#E3E5E8;" d="M213.164,124.202c0,0-8.995-0.465-7.56-16.248C205.603,107.954,219.171,112.57,213.164,124.202z"
				/>
		</g>
	</g>
	<g>
		<path style="fill:#E3E5E8;" d="M424.434,121.507c0,1.021-0.416,1.952-1.094,2.625c-0.669,0.678-1.6,1.094-2.621,1.094h-79.496
			c-2.042,0-3.715-1.673-3.715-3.719c0-1.021,0.416-1.952,1.094-2.625c0.669-0.678,1.6-1.094,2.621-1.094h3.758
			c1.484-3.449,4.911-5.859,8.9-5.859c2.685,0,5.113,1.094,6.871,2.856c2.342-3.972,6.661-6.64,11.607-6.64
			c1.36,0,2.668,0.206,3.903,0.579c2.586-4.864,7.699-8.175,13.593-8.175c7.077,0,13.031,4.778,14.828,11.281
			c1.304-0.652,2.775-1.025,4.336-1.025c4.414,0,8.137,2.947,9.308,6.983h2.393C422.761,117.788,424.434,119.461,424.434,121.507z"
			/>
		<path style="fill:#E3E5E8;" d="M472.738,220.477c0,0.875-0.357,1.673-0.938,2.251c-0.574,0.581-1.372,0.938-2.247,0.938h-68.158
			c-1.751,0-3.185-1.434-3.185-3.188c0-0.875,0.357-1.673,0.938-2.251c0.574-0.581,1.372-0.938,2.247-0.938h3.221
			c1.272-2.957,4.211-5.023,7.631-5.023c2.302,0,4.383,0.938,5.891,2.449c2.008-3.405,5.711-5.693,9.951-5.693
			c1.166,0,2.287,0.177,3.346,0.496c2.217-4.17,6.601-7.009,11.654-7.009c6.068,0,11.172,4.097,12.713,9.672
			c1.118-0.559,2.379-0.879,3.718-0.879c3.784,0,6.976,2.526,7.98,5.987h2.052C471.304,217.288,472.738,218.723,472.738,220.477z"/>
		<path style="fill:#E3E5E8;" d="M209.845,90.157c0,1.044-0.425,1.995-1.118,2.683c-0.684,0.693-1.635,1.118-2.679,1.118h-81.256
			c-2.087,0-3.797-1.71-3.797-3.801c0-1.044,0.425-1.995,1.118-2.683c0.684-0.693,1.635-1.118,2.679-1.118h3.841
			c1.517-3.525,5.02-5.989,9.097-5.989c2.744,0,5.226,1.118,7.023,2.92c2.394-4.06,6.808-6.786,11.863-6.786
			c1.39,0,2.727,0.21,3.99,0.592c2.643-4.971,7.87-8.356,13.893-8.356c7.234,0,13.319,4.884,15.156,11.53
			c1.333-0.666,2.837-1.048,4.432-1.048c4.511,0,8.317,3.012,9.513,7.137h2.447C208.135,86.355,209.845,88.066,209.845,90.157z"/>
		<g>
			<g>
				<g>
					<g>
						<path style="fill:#D7243A;" d="M43.319,156.088c0,2.416-1.966,4.382-4.382,4.382c-2.416,0-4.382-1.966-4.382-4.382
							c0-2.416,1.966-4.382,4.382-4.382C41.354,151.706,43.319,153.672,43.319,156.088z M41.945,156.088
							c0-1.658-1.349-3.007-3.007-3.007c-1.658,0-3.007,1.349-3.007,3.007c0,1.658,1.349,3.007,3.007,3.007
							C40.596,159.095,41.945,157.746,41.945,156.088z"/>
					</g>
					<g>
						<g>
							<g>
								<g>
									<path style="fill:#FD4E5A;" d="M61.205,150.177c0,2.416-1.966,4.382-4.381,4.382c-2.416,0-4.382-1.966-4.382-4.382
										c0-2.416,1.966-4.382,4.382-4.382C59.24,145.795,61.205,147.761,61.205,150.177z M59.831,150.177
										c0-1.658-1.349-3.007-3.007-3.007c-1.658,0-3.007,1.349-3.007,3.007c0,1.658,1.349,3.007,3.007,3.007
										C58.482,153.184,59.831,151.835,59.831,150.177z"/>
								</g>
							</g>
						</g>
					</g>
					<g>
						<g>
							<g>
								<path style="fill:#A61A21;" d="M61.766,131.366c-0.379,0-0.687,0.308-0.687,0.687v3.031c0,0.38,0.308,0.687,0.687,0.687
									c0.379,0,0.687-0.308,0.687-0.687v-3.031C62.453,131.674,62.145,131.366,61.766,131.366z"/>
							</g>
							<g>
								<path style="fill:#A61A21;" d="M61.766,126.062c-0.379,0-0.687,0.308-0.687,0.687v3.031c0,0.38,0.308,0.687,0.687,0.687
									c0.379,0,0.687-0.308,0.687-0.687v-3.031C62.453,126.369,62.145,126.062,61.766,126.062z"/>
							</g>
						</g>
						<g>
							<g>
								<path style="fill:#A61A21;" d="M66.02,130.229h-2.723c-0.38,0-0.687,0.308-0.687,0.687c0,0.38,0.308,0.687,0.687,0.687
									h2.723c0.38,0,0.687-0.308,0.687-0.687C66.707,130.537,66.4,130.229,66.02,130.229z"/>
							</g>
							<g>
								<path style="fill:#A61A21;" d="M60.234,130.229h-2.723c-0.38,0-0.687,0.308-0.687,0.687c0,0.38,0.308,0.687,0.687,0.687
									h2.723c0.38,0,0.687-0.308,0.687-0.687C60.921,130.537,60.614,130.229,60.234,130.229z"/>
							</g>
						</g>
					</g>
					<g>
						<g>
							<g>
								<g>
									<g>
										<path style="fill:#FD4E5A;" d="M43.192,136.221c-0.38,0-0.687,0.308-0.687,0.687v3.031c0,0.38,0.308,0.687,0.687,0.687
											c0.38,0,0.687-0.308,0.687-0.687v-3.031C43.879,136.529,43.572,136.221,43.192,136.221z"/>
									</g>
								</g>
								<g>
									<g>
										<path style="fill:#FD4E5A;" d="M43.192,130.917c-0.38,0-0.687,0.308-0.687,0.687v3.031c0,0.38,0.308,0.687,0.687,0.687
											c0.38,0,0.687-0.308,0.687-0.687v-3.031C43.879,131.224,43.572,130.917,43.192,130.917z"/>
									</g>
								</g>
							</g>
							<g>
								<g>
									<g>
										<path style="fill:#FD4E5A;" d="M47.447,135.084h-2.723c-0.38,0-0.687,0.308-0.687,0.687s0.308,0.687,0.687,0.687h2.723
											c0.38,0,0.687-0.308,0.687-0.687S47.826,135.084,47.447,135.084z"/>
									</g>
								</g>
								<g>
									<g>
										<path style="fill:#FD4E5A;" d="M41.661,135.084h-2.723c-0.38,0-0.687,0.308-0.687,0.687s0.308,0.687,0.687,0.687h2.723
											c0.379,0,0.687-0.308,0.687-0.687S42.04,135.084,41.661,135.084z"/>
									</g>
								</g>
							</g>
						</g>
					</g>
				</g>
			</g>
			<g>
				<g>
					<g>
						<path style="fill:#D7243A;" d="M448.226,327.655c2.416,0,4.382,1.966,4.382,4.382c0,2.416-1.966,4.382-4.382,4.382
							c-2.416,0-4.382-1.966-4.382-4.382C443.844,329.621,445.81,327.655,448.226,327.655z M448.226,335.044
							c1.658,0,3.007-1.349,3.007-3.007c0-1.658-1.349-3.007-3.007-3.007c-1.658,0-3.007,1.349-3.007,3.007
							C445.219,333.695,446.567,335.044,448.226,335.044z"/>
					</g>
					<g>
						<g>
							<g>
								<g>
									<path style="fill:#FD4E5A;" d="M430.339,321.744c2.416,0,4.382,1.966,4.382,4.382c0,2.416-1.966,4.382-4.382,4.382
										c-2.416,0-4.382-1.966-4.382-4.382C425.958,323.709,427.923,321.744,430.339,321.744z M430.339,329.133
										c1.658,0,3.007-1.349,3.007-3.007c0-1.658-1.349-3.007-3.007-3.007c-1.658,0-3.007,1.349-3.007,3.007
										C427.332,327.784,428.681,329.133,430.339,329.133z"/>
								</g>
							</g>
						</g>
					</g>
					<g>
						<g>
							<g>
								<path style="fill:#A61A21;" d="M425.398,307.315c0.38,0,0.687,0.308,0.687,0.687v3.031c0,0.38-0.308,0.687-0.687,0.687
									c-0.379,0-0.687-0.308-0.687-0.687v-3.031C424.71,307.622,425.018,307.315,425.398,307.315z"/>
							</g>
							<g>
								<path style="fill:#A61A21;" d="M425.398,302.01c0.38,0,0.687,0.308,0.687,0.687v3.031c0,0.38-0.308,0.687-0.687,0.687
									c-0.379,0-0.687-0.308-0.687-0.687v-3.031C424.71,302.318,425.018,302.01,425.398,302.01z"/>
							</g>
						</g>
						<g>
							<g>
								<path style="fill:#A61A21;" d="M421.143,306.178h2.723c0.38,0,0.687,0.308,0.687,0.687s-0.308,0.687-0.687,0.687h-2.723
									c-0.38,0-0.687-0.308-0.687-0.687S420.764,306.178,421.143,306.178z"/>
							</g>
							<g>
								<path style="fill:#A61A21;" d="M426.929,306.178h2.723c0.379,0,0.687,0.308,0.687,0.687s-0.308,0.687-0.687,0.687h-2.723
									c-0.38,0-0.687-0.308-0.687-0.687S426.55,306.178,426.929,306.178z"/>
							</g>
						</g>
					</g>
					<g>
						<g>
							<g>
								<g>
									<g>
										<path style="fill:#FD4E5A;" d="M443.971,312.17c0.379,0,0.687,0.308,0.687,0.687v3.031c0,0.38-0.308,0.687-0.687,0.687
											c-0.38,0-0.688-0.308-0.688-0.687v-3.031C443.284,312.477,443.591,312.17,443.971,312.17z"/>
									</g>
								</g>
								<g>
									<g>
										<path style="fill:#FD4E5A;" d="M443.971,306.865c0.379,0,0.687,0.308,0.687,0.687v3.031c0,0.38-0.308,0.687-0.687,0.687
											c-0.38,0-0.688-0.308-0.688-0.687v-3.031C443.284,307.173,443.591,306.865,443.971,306.865z"/>
									</g>
								</g>
							</g>
							<g>
								<g>
									<g>
										<path style="fill:#FD4E5A;" d="M439.717,311.033h2.723c0.379,0,0.687,0.308,0.687,0.687c0,0.38-0.308,0.687-0.687,0.687
											h-2.723c-0.379,0-0.687-0.308-0.687-0.687C439.029,311.341,439.337,311.033,439.717,311.033z"/>
									</g>
								</g>
								<g>
									<g>
										<path style="fill:#FD4E5A;" d="M445.503,311.033h2.723c0.379,0,0.687,0.308,0.687,0.687c0,0.38-0.308,0.687-0.687,0.687
											h-2.723c-0.379,0-0.687-0.308-0.687-0.687C444.815,311.341,445.123,311.033,445.503,311.033z"/>
									</g>
								</g>
							</g>
						</g>
					</g>
				</g>
			</g>
		</g>
	</g>
	<g>
		<g>
			<g>
				<g>
					<path style="fill:#1A100E;" d="M99.334,135.31v283.136c0,8.876,7.193,16.068,16.068,16.068l140.996,0
						c4.459,0,8.491-1.814,11.403-4.745c2.883-2.907,4.665-6.907,4.665-11.323V135.31c0-8.876-7.193-16.068-16.068-16.068H115.403
						c-2.624,0-5.101,0.628-7.289,1.745C102.901,123.642,99.334,129.058,99.334,135.31z"/>
				</g>
				<g>
					<path style="fill:#3C3C48;" d="M105.32,135.31v283.136c0,8.876,7.192,16.068,16.068,16.068l140.996,0
						c4.459,0,8.491-1.814,11.403-4.745c2.883-2.907,4.665-6.907,4.665-11.323V135.31c0-8.876-7.192-16.068-16.068-16.068H121.388
						c-2.624,0-5.101,0.628-7.289,1.745C108.887,123.642,105.32,129.058,105.32,135.31z"/>
				</g>
				<g>
					<path style="fill:#1A100E;" d="M102.273,188.877h-2.195c-2.09,0-3.784-1.694-3.784-3.784V167.09
						c0-2.09,1.694-3.784,3.784-3.784h2.195V188.877z"/>
				</g>
				<g>
					<path style="fill:#1A100E;" d="M102.273,222.318h-2.195c-2.09,0-3.784-1.694-3.784-3.784v-18.002
						c0-2.09,1.694-3.784,3.784-3.784h2.195V222.318z"/>
				</g>
				<g>
					<path style="fill:#3C3C48;" d="M278.453,188.877h1.72c1.638,0,2.965-1.327,2.965-2.965v-19.641
						c0-1.637-1.328-2.965-2.965-2.965h-1.72V188.877z"/>
				</g>
				<g>
					<path style="fill:#FFFFFF;" d="M113.337,134.335v285.079c0,3.918,3.172,7.079,7.079,7.079h142.94
						c2.926,0,5.435-1.77,6.517-4.307c0.361-0.854,0.562-1.789,0.562-2.772V134.335c0-3.907-3.17-7.079-7.079-7.079h-142.94
						c-0.465,0-0.918,0.044-1.356,0.129c-0.495,0.094-0.971,0.242-1.425,0.435c-2.182,0.944-3.803,2.944-4.201,5.352
						C113.37,133.55,113.337,133.939,113.337,134.335z"/>
				</g>
				<g>
					<path style="fill:#3C3C48;" d="M245.633,127.248l-7.289,11.091c-2.034,3.094-5.487,4.957-9.19,4.957h-70.446
						c-3.702,0-7.156-1.863-9.19-4.957l-7.289-11.091c0-1.149,0.94-2.092,2.092-2.092h99.221
						C244.69,125.156,245.633,126.099,245.633,127.248z"/>
					<path style="opacity:0.5;fill:#FFFFFF;" d="M219.228,135.266H157.46c-0.84,0-1.527-0.687-1.527-1.527v-1.407
						c0-0.84,0.687-1.527,1.527-1.527h61.768c0.84,0,1.527,0.687,1.527,1.527v1.407
						C220.754,134.579,220.067,135.266,219.228,135.266z"/>
					<path style="opacity:0.5;fill:#FFFFFF;" d="M232.587,132.888c0,1.478-1.198,2.676-2.676,2.676
						c-1.478,0-2.676-1.198-2.676-2.676c0-1.478,1.198-2.676,2.676-2.676C231.389,130.212,232.587,131.41,232.587,132.888z"/>
				</g>
			</g>
		</g>
	</g>
	<g>
		<g>
			<path style="fill:#E3E5E8;" d="M132.717,314.011v-91.062c0-11.109,9.005-20.114,20.114-20.114h139.638
				c11.109,0,20.114,9.005,20.114,20.114v91.062c0,11.109-9.005,20.114-20.114,20.114H152.831
				C141.723,334.125,132.717,325.12,132.717,314.011z"/>
			<path style="fill:#FD4E5A;" d="M308.076,211.283v114.395c0,0.045,0,0.089-0.002,0.136c-0.071,2.112-1.808,3.805-3.939,3.805
				h-162.97c-1.226,0-2.324-0.56-3.046-1.441c-0.558-0.68-0.893-1.552-0.893-2.5V211.283c0-2.175,1.763-3.941,3.939-3.941h162.97
				C306.311,207.342,308.076,209.107,308.076,211.283z"/>
			
				<ellipse transform="matrix(0.1522 -0.9884 0.9884 0.1522 -54.0066 468.9082)" style="fill:#D7243A;" cx="246.306" cy="265.933" rx="29.001" ry="29.001"/>
			<path style="fill:#1A100E;" d="M308.073,297.264v28.549c-0.07,2.112-1.807,3.805-3.939,3.805H217.22l55.03-92.685l27.518,46.344
				L308.073,297.264z"/>
			<path style="fill:#3C3C48;" d="M274.433,329.618H141.166c-1.227,0-2.324-0.56-3.047-1.44l33.408-53.835l34.302-55.277
				l34.302,55.277L274.433,329.618z"/>
			<polygon style="fill:#FFFFFF;" points="183.59,254.904 205.829,271.55 228.068,254.904 205.829,219.067 			"/>
			<polygon style="fill:#FFFFFF;" points="253.521,268.48 272.251,283.276 290.982,268.48 272.251,236.934 			"/>
		</g>
		<g>
			<path style="fill:#C6C6C6;" d="M305.616,342.343h-4.047c-0.392,0-0.71-0.318-0.71-0.71c0-0.392,0.318-0.71,0.71-0.71h4.047
				c0.392,0,0.71,0.318,0.71,0.71C306.326,342.025,306.008,342.343,305.616,342.343z M297.523,342.343h-4.047
				c-0.392,0-0.71-0.318-0.71-0.71c0-0.392,0.318-0.71,0.71-0.71h4.047c0.392,0,0.71,0.318,0.71,0.71
				C298.233,342.025,297.915,342.343,297.523,342.343z M289.43,342.343h-4.047c-0.392,0-0.71-0.318-0.71-0.71
				c0-0.392,0.318-0.71,0.71-0.71h4.047c0.392,0,0.71,0.318,0.71,0.71C290.14,342.025,289.822,342.343,289.43,342.343z
				 M281.337,342.343h-4.046c-0.392,0-0.71-0.318-0.71-0.71c0-0.392,0.318-0.71,0.71-0.71h4.046c0.392,0,0.71,0.318,0.71,0.71
				C282.047,342.025,281.729,342.343,281.337,342.343z M273.244,342.343h-4.047c-0.392,0-0.71-0.318-0.71-0.71
				c0-0.392,0.318-0.71,0.71-0.71h4.047c0.392,0,0.71,0.318,0.71,0.71C273.954,342.025,273.636,342.343,273.244,342.343z
				 M265.151,342.343h-4.046c-0.392,0-0.71-0.318-0.71-0.71c0-0.392,0.318-0.71,0.71-0.71h4.046c0.392,0,0.71,0.318,0.71,0.71
				C265.861,342.025,265.543,342.343,265.151,342.343z M257.058,342.343h-4.046c-0.392,0-0.71-0.318-0.71-0.71
				c0-0.392,0.318-0.71,0.71-0.71h4.046c0.392,0,0.71,0.318,0.71,0.71C257.768,342.025,257.45,342.343,257.058,342.343z
				 M248.965,342.343h-4.046c-0.392,0-0.71-0.318-0.71-0.71c0-0.392,0.318-0.71,0.71-0.71h4.046c0.392,0,0.71,0.318,0.71,0.71
				C249.675,342.025,249.357,342.343,248.965,342.343z M240.872,342.343h-4.047c-0.392,0-0.71-0.318-0.71-0.71
				c0-0.392,0.318-0.71,0.71-0.71h4.047c0.392,0,0.71,0.318,0.71,0.71C241.582,342.025,241.264,342.343,240.872,342.343z
				 M232.779,342.343h-4.046c-0.392,0-0.71-0.318-0.71-0.71c0-0.392,0.318-0.71,0.71-0.71h4.046c0.392,0,0.71,0.318,0.71,0.71
				C233.489,342.025,233.171,342.343,232.779,342.343z M224.686,342.343h-4.046c-0.392,0-0.71-0.318-0.71-0.71
				c0-0.392,0.318-0.71,0.71-0.71h4.046c0.392,0,0.71,0.318,0.71,0.71C225.396,342.025,225.078,342.343,224.686,342.343z
				 M216.593,342.343h-4.047c-0.392,0-0.71-0.318-0.71-0.71c0-0.392,0.318-0.71,0.71-0.71h4.047c0.392,0,0.71,0.318,0.71,0.71
				C217.303,342.025,216.985,342.343,216.593,342.343z M208.5,342.343h-4.046c-0.392,0-0.71-0.318-0.71-0.71
				c0-0.392,0.318-0.71,0.71-0.71h4.046c0.392,0,0.71,0.318,0.71,0.71C209.21,342.025,208.893,342.343,208.5,342.343z
				 M200.407,342.343h-4.046c-0.392,0-0.71-0.318-0.71-0.71c0-0.392,0.318-0.71,0.71-0.71h4.046c0.392,0,0.71,0.318,0.71,0.71
				C201.117,342.025,200.8,342.343,200.407,342.343z M192.314,342.343h-4.046c-0.392,0-0.71-0.318-0.71-0.71
				c0-0.392,0.318-0.71,0.71-0.71h4.046c0.392,0,0.71,0.318,0.71,0.71C193.025,342.025,192.707,342.343,192.314,342.343z
				 M184.221,342.343h-4.046c-0.392,0-0.71-0.318-0.71-0.71c0-0.392,0.318-0.71,0.71-0.71h4.046c0.392,0,0.71,0.318,0.71,0.71
				C184.932,342.025,184.614,342.343,184.221,342.343z M176.128,342.343h-4.046c-0.392,0-0.71-0.318-0.71-0.71
				c0-0.392,0.318-0.71,0.71-0.71h4.046c0.392,0,0.71,0.318,0.71,0.71C176.839,342.025,176.521,342.343,176.128,342.343z
				 M168.035,342.343h-4.046c-0.392,0-0.71-0.318-0.71-0.71c0-0.392,0.318-0.71,0.71-0.71h4.046c0.392,0,0.71,0.318,0.71,0.71
				C168.746,342.025,168.428,342.343,168.035,342.343z M159.942,342.343h-4.046c-0.392,0-0.71-0.318-0.71-0.71
				c0-0.392,0.318-0.71,0.71-0.71h4.046c0.392,0,0.71,0.318,0.71,0.71C160.653,342.025,160.335,342.343,159.942,342.343z
				 M151.849,342.343h-4.046c-0.392,0-0.71-0.318-0.71-0.71c0-0.392,0.318-0.71,0.71-0.71h4.046c0.392,0,0.71,0.318,0.71,0.71
				C152.56,342.025,152.242,342.343,151.849,342.343z M143.756,342.343h-4.046c-0.392,0-0.71-0.318-0.71-0.71
				c0-0.392,0.318-0.71,0.71-0.71h4.046c0.392,0,0.71,0.318,0.71,0.71C144.467,342.025,144.149,342.343,143.756,342.343z
				 M136.799,342.343c-1.445,0-2.86-0.249-4.208-0.741c-0.368-0.135-0.558-0.542-0.424-0.911c0.134-0.369,0.542-0.558,0.911-0.424
				c1.191,0.435,2.443,0.656,3.721,0.656c0.392,0,0.71,0.318,0.71,0.71C137.509,342.025,137.191,342.343,136.799,342.343z
				 M309.659,342.286c-0.361,0-0.669-0.273-0.706-0.64c-0.039-0.39,0.246-0.738,0.636-0.777c1.267-0.126,2.49-0.471,3.634-1.025
				c0.354-0.172,0.778-0.023,0.949,0.33c0.171,0.353,0.023,0.778-0.33,0.949c-1.295,0.627-2.679,1.017-4.112,1.16
				C309.707,342.285,309.683,342.286,309.659,342.286z M129.351,339.627c-0.161,0-0.324-0.055-0.457-0.167
				c-1.102-0.927-2.026-2.027-2.746-3.27c-0.197-0.34-0.081-0.774,0.258-0.971c0.34-0.197,0.774-0.081,0.971,0.258
				c0.637,1.1,1.455,2.074,2.431,2.895c0.3,0.252,0.339,0.7,0.087,1C129.754,339.541,129.553,339.627,129.351,339.627z
				 M316.798,338.839c-0.179,0-0.358-0.067-0.496-0.202c-0.281-0.274-0.286-0.723-0.013-1.004c0.891-0.914,1.608-1.964,2.132-3.121
				c0.162-0.357,0.582-0.516,0.94-0.354c0.357,0.162,0.516,0.582,0.354,0.94c-0.592,1.308-1.402,2.495-2.409,3.527
				C317.167,338.767,316.982,338.839,316.798,338.839z M125.383,332.764c-0.338,0-0.638-0.243-0.699-0.587
				c-0.123-0.7-0.185-1.417-0.185-2.133v-2.026c0-0.392,0.318-0.71,0.71-0.71c0.392,0,0.71,0.318,0.71,0.71v2.026
				c0,0.634,0.055,1.268,0.164,1.887c0.068,0.386-0.19,0.755-0.577,0.822C125.465,332.76,125.424,332.764,125.383,332.764z
				 M320.061,331.614c-0.017,0-0.035-0.001-0.053-0.002c-0.391-0.029-0.685-0.369-0.656-0.76c0.02-0.268,0.03-0.54,0.03-0.808
				v-3.185c0-0.392,0.318-0.71,0.71-0.71c0.392,0,0.71,0.318,0.71,0.71v3.185c0,0.303-0.011,0.609-0.034,0.912
				C320.741,331.329,320.429,331.614,320.061,331.614z M125.209,324.681c-0.392,0-0.71-0.318-0.71-0.71v-4.046
				c0-0.392,0.318-0.71,0.71-0.71c0.392,0,0.71,0.318,0.71,0.71v4.046C125.92,324.363,125.602,324.681,125.209,324.681z
				 M320.091,323.522c-0.392,0-0.71-0.318-0.71-0.71v-4.046c0-0.392,0.318-0.71,0.71-0.71c0.392,0,0.71,0.318,0.71,0.71v4.046
				C320.802,323.204,320.484,323.522,320.091,323.522z M125.209,316.588c-0.392,0-0.71-0.318-0.71-0.71v-4.046
				c0-0.392,0.318-0.71,0.71-0.71c0.392,0,0.71,0.318,0.71,0.71v4.046C125.92,316.27,125.602,316.588,125.209,316.588z
				 M320.091,315.429c-0.392,0-0.71-0.318-0.71-0.71v-4.047c0-0.392,0.318-0.71,0.71-0.71c0.392,0,0.71,0.318,0.71,0.71v4.047
				C320.802,315.111,320.484,315.429,320.091,315.429z M125.209,308.496c-0.392,0-0.71-0.318-0.71-0.71v-4.047
				c0-0.392,0.318-0.71,0.71-0.71c0.392,0,0.71,0.318,0.71,0.71v4.047C125.92,308.177,125.602,308.496,125.209,308.496z
				 M320.091,307.336c-0.392,0-0.71-0.318-0.71-0.71v-4.046c0-0.392,0.318-0.71,0.71-0.71c0.392,0,0.71,0.318,0.71,0.71v4.046
				C320.802,307.018,320.484,307.336,320.091,307.336z M125.209,300.402c-0.392,0-0.71-0.318-0.71-0.71v-4.046
				c0-0.392,0.318-0.71,0.71-0.71c0.392,0,0.71,0.318,0.71,0.71v4.046C125.92,300.084,125.602,300.402,125.209,300.402z
				 M320.091,299.243c-0.392,0-0.71-0.318-0.71-0.71v-4.047c0-0.392,0.318-0.71,0.71-0.71c0.392,0,0.71,0.318,0.71,0.71v4.047
				C320.802,298.925,320.484,299.243,320.091,299.243z M125.209,292.31c-0.392,0-0.71-0.318-0.71-0.71v-4.047
				c0-0.392,0.318-0.71,0.71-0.71c0.392,0,0.71,0.318,0.71,0.71v4.047C125.92,291.991,125.602,292.31,125.209,292.31z
				 M320.091,291.15c-0.392,0-0.71-0.318-0.71-0.71v-4.046c0-0.392,0.318-0.71,0.71-0.71c0.392,0,0.71,0.318,0.71,0.71v4.046
				C320.802,290.832,320.484,291.15,320.091,291.15z M125.209,284.216c-0.392,0-0.71-0.318-0.71-0.71v-4.046
				c0-0.392,0.318-0.71,0.71-0.71c0.392,0,0.71,0.318,0.71,0.71v4.046C125.92,283.898,125.602,284.216,125.209,284.216z
				 M320.091,283.057c-0.392,0-0.71-0.318-0.71-0.71V278.3c0-0.392,0.318-0.71,0.71-0.71c0.392,0,0.71,0.318,0.71,0.71v4.047
				C320.802,282.739,320.484,283.057,320.091,283.057z M125.209,276.124c-0.392,0-0.71-0.318-0.71-0.71v-4.047
				c0-0.392,0.318-0.71,0.71-0.71c0.392,0,0.71,0.318,0.71,0.71v4.047C125.92,275.806,125.602,276.124,125.209,276.124z
				 M320.091,274.964c-0.392,0-0.71-0.318-0.71-0.71v-4.046c0-0.392,0.318-0.71,0.71-0.71c0.392,0,0.71,0.318,0.71,0.71v4.046
				C320.802,274.646,320.484,274.964,320.091,274.964z M125.209,268.031c-0.392,0-0.71-0.318-0.71-0.71v-4.047
				c0-0.392,0.318-0.71,0.71-0.71c0.392,0,0.71,0.318,0.71,0.71v4.047C125.92,267.713,125.602,268.031,125.209,268.031z
				 M320.091,266.871c-0.392,0-0.71-0.318-0.71-0.71v-4.046c0-0.392,0.318-0.71,0.71-0.71c0.392,0,0.71,0.318,0.71,0.71v4.046
				C320.802,266.553,320.484,266.871,320.091,266.871z M125.209,259.938c-0.392,0-0.71-0.318-0.71-0.71v-4.046
				c0-0.392,0.318-0.71,0.71-0.71c0.392,0,0.71,0.318,0.71,0.71v4.046C125.92,259.62,125.602,259.938,125.209,259.938z
				 M320.091,258.778c-0.392,0-0.71-0.318-0.71-0.71v-4.047c0-0.392,0.318-0.71,0.71-0.71c0.392,0,0.71,0.318,0.71,0.71v4.047
				C320.802,258.46,320.484,258.778,320.091,258.778z M125.209,251.845c-0.392,0-0.71-0.318-0.71-0.71v-4.047
				c0-0.392,0.318-0.71,0.71-0.71c0.392,0,0.71,0.318,0.71,0.71v4.047C125.92,251.527,125.602,251.845,125.209,251.845z
				 M320.091,250.685c-0.392,0-0.71-0.318-0.71-0.71v-4.046c0-0.392,0.318-0.71,0.71-0.71c0.392,0,0.71,0.318,0.71,0.71v4.046
				C320.802,250.367,320.484,250.685,320.091,250.685z M125.209,243.752c-0.392,0-0.71-0.318-0.71-0.71v-4.046
				c0-0.392,0.318-0.71,0.71-0.71c0.392,0,0.71,0.318,0.71,0.71v4.046C125.92,243.434,125.602,243.752,125.209,243.752z
				 M320.091,242.592c-0.392,0-0.71-0.318-0.71-0.71v-4.046c0-0.392,0.318-0.71,0.71-0.71c0.392,0,0.71,0.318,0.71,0.71v4.046
				C320.802,242.274,320.484,242.592,320.091,242.592z M125.209,235.659c-0.392,0-0.71-0.318-0.71-0.71v-4.046
				c0-0.392,0.318-0.71,0.71-0.71c0.392,0,0.71,0.318,0.71,0.71v4.046C125.92,235.341,125.602,235.659,125.209,235.659z
				 M320.091,234.499c-0.392,0-0.71-0.318-0.71-0.71v-4.047c0-0.392,0.318-0.71,0.71-0.71c0.392,0,0.71,0.318,0.71,0.71v4.047
				C320.802,234.181,320.484,234.499,320.091,234.499z M125.209,227.566c-0.392,0-0.71-0.318-0.71-0.71v-4.047
				c0-0.392,0.318-0.71,0.71-0.71c0.392,0,0.71,0.318,0.71,0.71v4.047C125.92,227.248,125.602,227.566,125.209,227.566z
				 M320.091,226.406c-0.392,0-0.71-0.318-0.71-0.71v-4.046c0-0.392,0.318-0.71,0.71-0.71c0.392,0,0.71,0.318,0.71,0.71v4.046
				C320.802,226.088,320.484,226.406,320.091,226.406z M125.209,219.473c-0.392,0-0.71-0.318-0.71-0.71v-4.047
				c0-0.392,0.318-0.71,0.71-0.71c0.392,0,0.71,0.318,0.71,0.71v4.047C125.92,219.155,125.602,219.473,125.209,219.473z
				 M320.091,218.313c-0.392,0-0.71-0.318-0.71-0.71v-4.046c0-0.392,0.318-0.71,0.71-0.71c0.392,0,0.71,0.318,0.71,0.71v4.046
				C320.802,217.995,320.484,218.313,320.091,218.313z M125.209,211.38c-0.392,0-0.71-0.318-0.71-0.71v-3.753
				c0-0.104,0.001-0.208,0.004-0.311c0.01-0.392,0.338-0.702,0.728-0.692c0.392,0.01,0.702,0.336,0.692,0.728
				c-0.002,0.092-0.003,0.183-0.003,0.275v3.753C125.92,211.062,125.602,211.38,125.209,211.38z M320.091,210.22
				c-0.392,0-0.71-0.318-0.71-0.71v-2.594c0-0.454-0.029-0.912-0.085-1.36c-0.049-0.389,0.227-0.744,0.616-0.793
				c0.393-0.048,0.744,0.227,0.793,0.616c0.064,0.507,0.096,1.024,0.096,1.537v2.594C320.802,209.902,320.484,210.22,320.091,210.22
				z M126.012,203.388c-0.087,0-0.175-0.016-0.26-0.05c-0.365-0.144-0.544-0.556-0.4-0.921c0.526-1.335,1.278-2.56,2.234-3.641
				c0.26-0.294,0.709-0.322,1.003-0.061c0.294,0.26,0.321,0.709,0.061,1.002c-0.846,0.957-1.511,2.04-1.977,3.221
				C126.562,203.218,126.295,203.388,126.012,203.388z M318.811,202.334c-0.257,0-0.506-0.14-0.632-0.385
				c-0.582-1.129-1.352-2.142-2.287-3.009c-0.288-0.267-0.305-0.716-0.038-1.004c0.267-0.288,0.716-0.305,1.004-0.038
				c1.057,0.98,1.926,2.124,2.584,3.4c0.18,0.349,0.043,0.777-0.306,0.957C319.032,202.309,318.921,202.334,318.811,202.334z
				 M131.264,197.447c-0.251,0-0.495-0.134-0.624-0.37c-0.188-0.344-0.061-0.776,0.283-0.964c1.265-0.691,2.628-1.148,4.05-1.361
				c0.388-0.059,0.749,0.209,0.807,0.597c0.058,0.388-0.21,0.749-0.597,0.807c-1.257,0.188-2.462,0.593-3.58,1.203
				C131.496,197.419,131.379,197.447,131.264,197.447z M312.995,196.944c-0.092,0-0.186-0.018-0.276-0.056
				c-1.17-0.494-2.409-0.776-3.684-0.838c-0.392-0.019-0.694-0.352-0.675-0.744c0.019-0.392,0.346-0.694,0.744-0.675
				c1.441,0.07,2.843,0.389,4.167,0.948c0.361,0.153,0.531,0.569,0.378,0.931C313.535,196.781,313.272,196.944,312.995,196.944z
				 M305.024,196.037h-4.047c-0.392,0-0.71-0.318-0.71-0.71c0-0.392,0.318-0.71,0.71-0.71h4.047c0.392,0,0.71,0.318,0.71,0.71
				C305.734,195.719,305.416,196.037,305.024,196.037z M296.931,196.037h-4.046c-0.392,0-0.71-0.318-0.71-0.71
				c0-0.392,0.318-0.71,0.71-0.71h4.046c0.392,0,0.71,0.318,0.71,0.71C297.641,195.719,297.323,196.037,296.931,196.037z
				 M288.838,196.037h-4.047c-0.392,0-0.71-0.318-0.71-0.71c0-0.392,0.318-0.71,0.71-0.71h4.047c0.392,0,0.71,0.318,0.71,0.71
				C289.548,195.719,289.23,196.037,288.838,196.037z M280.745,196.037h-4.046c-0.392,0-0.71-0.318-0.71-0.71
				c0-0.392,0.318-0.71,0.71-0.71h4.046c0.392,0,0.71,0.318,0.71,0.71C281.455,195.719,281.137,196.037,280.745,196.037z
				 M272.652,196.037h-4.047c-0.392,0-0.71-0.318-0.71-0.71c0-0.392,0.318-0.71,0.71-0.71h4.047c0.392,0,0.71,0.318,0.71,0.71
				C273.362,195.719,273.044,196.037,272.652,196.037z M264.559,196.037h-4.046c-0.392,0-0.71-0.318-0.71-0.71
				c0-0.392,0.318-0.71,0.71-0.71h4.046c0.392,0,0.71,0.318,0.71,0.71C265.269,195.719,264.951,196.037,264.559,196.037z
				 M256.466,196.037h-4.047c-0.392,0-0.71-0.318-0.71-0.71c0-0.392,0.318-0.71,0.71-0.71h4.047c0.392,0,0.71,0.318,0.71,0.71
				C257.176,195.719,256.858,196.037,256.466,196.037z M248.373,196.037h-4.046c-0.392,0-0.71-0.318-0.71-0.71
				c0-0.392,0.318-0.71,0.71-0.71h4.046c0.392,0,0.71,0.318,0.71,0.71C249.083,195.719,248.765,196.037,248.373,196.037z
				 M240.28,196.037h-4.047c-0.392,0-0.71-0.318-0.71-0.71c0-0.392,0.318-0.71,0.71-0.71h4.047c0.392,0,0.71,0.318,0.71,0.71
				C240.99,195.719,240.672,196.037,240.28,196.037z M232.187,196.037h-4.046c-0.392,0-0.71-0.318-0.71-0.71
				c0-0.392,0.318-0.71,0.71-0.71h4.046c0.392,0,0.71,0.318,0.71,0.71C232.897,195.719,232.579,196.037,232.187,196.037z
				 M224.094,196.037h-4.046c-0.392,0-0.71-0.318-0.71-0.71c0-0.392,0.318-0.71,0.71-0.71h4.046c0.392,0,0.71,0.318,0.71,0.71
				C224.804,195.719,224.486,196.037,224.094,196.037z M216.001,196.037h-4.046c-0.392,0-0.71-0.318-0.71-0.71
				c0-0.392,0.318-0.71,0.71-0.71h4.046c0.392,0,0.71,0.318,0.71,0.71C216.711,195.719,216.393,196.037,216.001,196.037z
				 M207.908,196.037h-4.046c-0.392,0-0.71-0.318-0.71-0.71c0-0.392,0.318-0.71,0.71-0.71h4.046c0.392,0,0.71,0.318,0.71,0.71
				C208.618,195.719,208.3,196.037,207.908,196.037z M199.815,196.037h-4.046c-0.392,0-0.71-0.318-0.71-0.71
				c0-0.392,0.318-0.71,0.71-0.71h4.046c0.392,0,0.71,0.318,0.71,0.71C200.525,195.719,200.207,196.037,199.815,196.037z
				 M191.722,196.037h-4.046c-0.392,0-0.71-0.318-0.71-0.71c0-0.392,0.318-0.71,0.71-0.71h4.046c0.392,0,0.71,0.318,0.71,0.71
				C192.432,195.719,192.114,196.037,191.722,196.037z M183.629,196.037h-4.046c-0.392,0-0.71-0.318-0.71-0.71
				c0-0.392,0.318-0.71,0.71-0.71h4.046c0.392,0,0.71,0.318,0.71,0.71C184.339,195.719,184.021,196.037,183.629,196.037z
				 M175.536,196.037h-4.046c-0.392,0-0.71-0.318-0.71-0.71c0-0.392,0.318-0.71,0.71-0.71h4.046c0.392,0,0.71,0.318,0.71,0.71
				C176.246,195.719,175.929,196.037,175.536,196.037z M167.443,196.037h-4.046c-0.392,0-0.71-0.318-0.71-0.71
				c0-0.392,0.318-0.71,0.71-0.71h4.046c0.392,0,0.71,0.318,0.71,0.71C168.153,195.719,167.836,196.037,167.443,196.037z
				 M159.35,196.037h-4.046c-0.392,0-0.71-0.318-0.71-0.71c0-0.392,0.318-0.71,0.71-0.71h4.046c0.392,0,0.71,0.318,0.71,0.71
				C160.061,195.719,159.743,196.037,159.35,196.037z M151.257,196.037h-4.047c-0.392,0-0.71-0.318-0.71-0.71
				c0-0.392,0.318-0.71,0.71-0.71h4.047c0.392,0,0.71,0.318,0.71,0.71C151.968,195.719,151.65,196.037,151.257,196.037z
				 M143.164,196.037h-4.046c-0.392,0-0.71-0.318-0.71-0.71c0-0.392,0.318-0.71,0.71-0.71h4.046c0.392,0,0.71,0.318,0.71,0.71
				C143.875,195.719,143.557,196.037,143.164,196.037z"/>
		</g>
		<g>
			<path style="fill:#D7243A;" d="M162.021,217.953c0,9.19-7.449,16.639-16.639,16.639c-2.963,0-5.745-0.775-8.155-2.135v-21.175
				c0-2.175,1.763-3.941,3.939-3.941h17.033C160.587,210.223,162.021,213.921,162.021,217.953z"/>
			<g>
				
					<ellipse transform="matrix(0.2314 -0.9729 0.9729 0.2314 -99.5104 303.5236)" style="fill:#3C3C48;" cx="142.338" cy="214.74" rx="16.64" ry="16.64"/>
			</g>
			<g>
				<path style="fill:#FFFFFF;" d="M136.49,212.141h2.596v9.579c0,0.583,0.473,1.055,1.056,1.055h3.585
					c0.583,0,1.056-0.473,1.056-1.055v-9.579h2.596c0.402,0,0.602-0.489,0.314-0.77l-2.486-2.434l-2.958-2.896
					c-0.175-0.171-0.454-0.171-0.628,0l-2.958,2.896l-2.487,2.434C135.888,211.653,136.088,212.141,136.49,212.141z"/>
			</g>
		</g>
	</g>
	<g>
		<g>
			<g>
				<polygon style="fill:#FCBB8C;" points="345.544,418.71 345.328,429.047 353.153,428.792 354.06,418.317 				"/>
				<g>
					<path style="fill:#FD4E5A;" d="M348.718,427.198c0,0,3.906-0.917,4.977-0.864c1.071,0.054,8.006,8.295,10.408,8.84
						c4.357,0.99,4.122,6.689,1.445,6.949c-7.743,0.751-20.806-1.763-20.806-1.763s-0.951-8.817-0.34-11.556
						C345.013,426.065,346.539,427.943,348.718,427.198z"/>
					<g>
						<g>
							<path style="fill:#FFFFFF;" d="M354.879,434.885c-0.138,0.026-0.287-0.002-0.411-0.091c-0.24-0.172-0.295-0.506-0.123-0.746
								c0.057-0.08,1.426-1.973,3.068-2.596c2.184-0.832,3.681,0.51,3.744,0.567c0.217,0.199,0.232,0.538,0.032,0.755
								c-0.199,0.217-0.538,0.232-0.755,0.032c-0.041-0.036-1.085-0.945-2.641-0.355c-1.338,0.508-2.567,2.203-2.579,2.22
								C355.131,434.788,355.009,434.86,354.879,434.885z"/>
						</g>
						<g>
							<path style="fill:#FFFFFF;" d="M353.45,433.223c-0.138,0.026-0.287-0.002-0.411-0.091c-0.24-0.172-0.295-0.506-0.123-0.746
								c0.057-0.08,1.426-1.973,3.068-2.596c2.186-0.832,3.681,0.509,3.744,0.567c0.218,0.199,0.232,0.538,0.032,0.755
								c-0.199,0.217-0.538,0.232-0.755,0.032c-0.041-0.036-1.086-0.945-2.641-0.355c-1.344,0.511-2.566,2.202-2.578,2.22
								C353.702,433.126,353.581,433.198,353.45,433.223z"/>
						</g>
						<g>
							<path style="fill:#FFFFFF;" d="M356.9,436.324c-0.138,0.026-0.287-0.002-0.411-0.09c-0.24-0.172-0.295-0.506-0.123-0.746
								c0.057-0.08,1.426-1.973,3.068-2.596c2.186-0.833,3.681,0.509,3.744,0.567c0.217,0.199,0.232,0.538,0.032,0.755
								c-0.199,0.217-0.538,0.232-0.755,0.032c-0.041-0.036-1.086-0.945-2.641-0.355c-1.344,0.51-2.567,2.203-2.579,2.22
								C357.152,436.226,357.031,436.299,356.9,436.324z"/>
						</g>
					</g>
				</g>
			</g>
			<g>
				<path style="fill:#3C3C48;" d="M374.323,297.067c0,0-0.15,2.341-0.426,6.224c-0.071,1.027-0.151,2.164-0.24,3.398
					c-0.945,13.031-2.786,36.595-4.867,53.318c-2.918,23.444-12.382,62.007-12.382,62.007l-10.083-0.267l-0.997-0.032l-2.39-0.06
					c0,0,1.489-24.361,3.466-45.517c1.303-13.952,1.885-46.946,2.128-67.782c0.124-10.744,0.164-18.258,0.164-18.258
					L374.323,297.067z"/>
			</g>
			<path style="fill:#1A100E;" d="M374.323,297.067c0,0-0.15,2.341-0.426,6.224c-0.071,1.027-0.151,2.164-0.24,3.398
				c-4.644,0.905-17.425,1.607-25.126,1.667c0.124-10.744,0.164-18.258,0.164-18.258L374.323,297.067z"/>
			<g>
				<path style="fill:#1A100E;" d="M354.229,303.274c-0.004,0.8-0.34,76.704-7.904,118.471l-0.998-0.032
					c7.575-41.639,7.91-117.652,7.914-118.442L354.229,303.274z"/>
			</g>
		</g>
		<g>
			<g>
				<polygon style="fill:#FCBB8C;" points="423.479,417.339 424.293,426.296 416.088,426.91 414.69,417.466 				"/>
				<g>
					<g>
						<g>
							<path style="fill:#FD4E5A;" d="M422.163,426.153c0,0,1.479-2.541,2.876-2.598c1.397-0.056,13.048,7.232,16.789,7.519
								c3.741,0.287,3.335,3.064,2.82,4.518c-0.515,1.454-29.271,2.787-29.271,2.787s-1.745-8.407-1.107-11.111
								C414.909,424.565,419.368,427.092,422.163,426.153z"/>
							<g>
								<g>
									<path style="fill:#FFFFFF;" d="M428.742,431.414c-0.125,0.053-0.271,0.057-0.406,0c-0.262-0.112-0.383-0.415-0.271-0.677
										c0.038-0.088,0.936-2.157,2.356-3.085c1.888-1.238,3.577-0.283,3.649-0.242c0.247,0.143,0.33,0.459,0.187,0.705
										c-0.143,0.247-0.459,0.331-0.706,0.187c-0.046-0.026-1.22-0.666-2.565,0.213c-1.157,0.757-1.964,2.61-1.972,2.629
										C428.959,431.271,428.86,431.364,428.742,431.414z"/>
								</g>
								<g>
									<path style="fill:#FFFFFF;" d="M427.049,430.143c-0.125,0.053-0.271,0.058-0.406,0c-0.262-0.112-0.383-0.416-0.271-0.678
										c0.038-0.088,0.936-2.157,2.355-3.086c1.89-1.239,3.578-0.283,3.649-0.242c0.247,0.143,0.33,0.459,0.187,0.706
										c-0.143,0.246-0.459,0.331-0.706,0.187c-0.046-0.025-1.22-0.666-2.565,0.213c-1.161,0.76-1.964,2.61-1.972,2.629
										C427.267,429.999,427.167,430.093,427.049,430.143z"/>
								</g>
								<g>
									<path style="fill:#FFFFFF;" d="M430.947,432.352c-0.125,0.054-0.271,0.058-0.406,0c-0.262-0.113-0.384-0.416-0.271-0.678
										c0.038-0.087,0.936-2.157,2.356-3.086c1.889-1.239,3.578-0.283,3.649-0.242c0.246,0.143,0.33,0.459,0.187,0.706
										c-0.143,0.246-0.459,0.331-0.706,0.187c-0.046-0.026-1.221-0.666-2.565,0.213c-1.162,0.76-1.964,2.61-1.972,2.629
										C431.165,432.208,431.065,432.302,430.947,432.352z"/>
								</g>
							</g>
						</g>
					</g>
				</g>
			</g>
			<path style="fill:#3C3C48;" d="M425.261,419.474l-8.364,0.446l-0.996,0.058l-2.032,0.107c0,0-11.298-47.783-14.534-60.482
				c-2.813-11.032-12.466-35.392-18.646-50.527c-1.752-4.296-3.227-7.85-4.191-10.144c-0.743-1.806-1.177-2.831-1.177-2.831
				l27.352-6.232c0,0,0.155,0.598,0.423,1.677c0.557,2.207,1.625,6.434,2.942,11.75c3.613,14.467,9.173,36.988,11.684,48.493
				C424.177,381.417,425.261,419.474,425.261,419.474z"/>
			<path style="fill:#1A100E;" d="M406.039,303.296l-25.349,5.779c-1.752-4.296-3.227-7.85-4.191-10.144l26.598-7.385
				C403.654,293.753,404.722,297.98,406.039,303.296z"/>
			<g>
				<path style="fill:#1A100E;" d="M416.897,419.92l-0.996,0.058c-2.4-14.916-8.666-52.135-13.7-67.608
					c-6.334-19.506-18.738-47.502-18.864-47.785l0.907-0.401c0.127,0.283,12.551,28.328,18.897,47.883
					C408.208,367.637,414.508,405.033,416.897,419.92z"/>
			</g>
		</g>
		<g>
			<path style="fill:#FD4E5A;" d="M425.109,238.645L425.109,238.645c-2.098-5.544-15.393-38.072-15.393-38.072
				c-3.394,1.684,0.065,38.375,0.065,38.375l3.654,12.386c1.249,4.236,5.991,6.34,9.975,4.435c0.068-0.033,0.136-0.066,0.205-0.1
				C430.495,252.263,425.109,238.645,425.109,238.645z"/>
			<path style="fill:#FB927E;" d="M419.311,235.407c0,0,0.933-2.101,3.506-1.662c2.573,0.438,3.442,1.854,3.442,1.854
				S422.238,236.259,419.311,235.407z"/>
			<g>
				<g>
					
						<rect x="395.082" y="204.135" transform="matrix(0.177 -0.9842 0.9842 0.177 150.3478 589.8032)" style="fill:#3C3C48;" width="65.53" height="1.732"/>
				</g>
				<path style="fill:#1A100E;" d="M430.106,172.292l-0.677,3.773c-0.15,0.836,0.444,1.623,1.29,1.707l4.849,0.484
					c0.77,0.077,1.465-0.461,1.585-1.226l0.589-3.778c0.129-0.826-0.462-1.591-1.294-1.675l-4.761-0.478
					C430.928,171.023,430.24,171.543,430.106,172.292z"/>
				<g>
					<path style="fill:#1A100E;" d="M437.839,173.914l-8.474-1.351c-0.96-0.153-1.614-1.055-1.461-2.015l3.19-20.011
						c0.153-0.96,1.055-1.614,2.015-1.461l8.474,1.351c0.96,0.153,1.614,1.055,1.461,2.015l-3.19,20.011
						C439.701,173.413,438.799,174.067,437.839,173.914z"/>
					<path style="fill:#3C3C48;" d="M439.029,173.919l-8.474-1.351c-0.96-0.153-1.614-1.055-1.461-2.015l3.19-20.011
						c0.153-0.96,1.055-1.614,2.015-1.461l8.474,1.351c0.96,0.153,1.614,1.055,1.461,2.015l-3.19,20.011
						C440.892,173.418,439.989,174.072,439.029,173.919z"/>
				</g>
			</g>
			<path style="fill:#FCBB8C;" d="M426.259,235.599c0,0-2.506-0.674-6.298-1.054c-1.926-0.193-4.487,1.128-3.128,2.552
				c0.286,0.299,0.639,0.499,1.022,0.65c-0.001,0-0.002,0-0.002-0.001c-2.25-0.401-3.349,1.465-2.298,2.586
				c0.416,0.444,0.728,0.642,1.028,0.752l0,0c-1.367-0.05-2.335,0.859-1.751,2.862c0.163,0.561,0.726,0.896,1.599,1.265
				c-0.401-0.027-0.811,0.023-1.201,0.199c-1.353,0.609-1.051,2.194,0.707,2.939c2.267,0.961,1.472,0.93,2.883,1.413
				c1.411,0.483,4.128,0.295,4.674-1.136c0.546-1.43-0.055-2.313,0.509-3.136c0.564-0.823,1.627-2.013,1.568-2.925
				c-0.059-0.912,0.27-1.548,0.958-2.475C427.203,239.183,427.478,236.487,426.259,235.599z"/>
		</g>
		<g>
			<path style="fill:#FD4E5A;" d="M409.805,238.42c-0.035,0.746-0.069,1.496-0.106,2.249c-0.182,3.89-0.388,7.864-0.605,11.828
				c-0.127,2.251-0.252,4.5-0.388,6.737c-1.083,18.542-2.334,35.627-2.803,41.023c-21.024,3.616-41.628,2.052-61.8-4.729
				c0.353-5.659,1.662-23.827,3.332-43.069c0.178-2.013,0.355-4.05,0.533-6.074c2.14-23.723,4.728-47.25,6.675-49.533
				c2.316-2.72,10.45-6.208,16.813-9c0.229-0.099,0.455-0.196,0.672-0.295c2.685-1.187,5.001-2.237,6.324-3.027
				c0.302,0.603,2.205,4.038,4.952,4.491c2.997,0.485,5.952-2.858,5.952-2.858l0.051-0.679c1.254,1.023,3.394,2.438,5.855,4.017
				c0.254,0.168,0.531,0.351,0.794,0.522c5.366,3.459,11.86,7.617,13.661,10.544C411.013,202.684,410.683,219.257,409.805,238.42z"
				/>
			<g>
				<path style="fill:#D7243A;" d="M391.641,209.434c-0.092,0.024-0.191,0.021-0.287-0.015
					c-9.545-3.543-18.316-16.429-18.685-16.976c-0.148-0.22-0.09-0.517,0.129-0.665c0.219-0.148,0.517-0.09,0.665,0.129
					c0.089,0.132,8.97,13.179,18.224,16.613c0.248,0.092,0.375,0.368,0.282,0.616C391.913,209.29,391.787,209.396,391.641,209.434z"
					/>
			</g>
			<g>
				<path style="fill:#D7243A;" d="M409.805,238.42c-0.035,0.746-0.069,1.496-0.106,2.249c-2.133-4.789-3.255-8.889-3.343-9.215
					c-0.069-0.256,0.083-0.52,0.337-0.589c0.256-0.067,0.52,0.083,0.589,0.339C407.3,231.274,408.161,234.417,409.805,238.42z"/>
			</g>
			<g>
				<path style="fill:#D7243A;" d="M392.026,278.679c-8.456-0.647-16.402-6.826-21.636-11.973
					c-5.793-5.696-9.604-11.389-9.642-11.446c-0.147-0.22-0.087-0.518,0.133-0.664c0.22-0.147,0.518-0.087,0.664,0.133
					c0.149,0.224,15.08,22.38,31.201,23.031c0.26,0.011,0.47,0.234,0.459,0.498c-0.011,0.264-0.234,0.47-0.498,0.459
					C392.481,278.71,392.253,278.696,392.026,278.679z"/>
			</g>
			<g>
				<path style="fill:#D7243A;" d="M381.777,268.826c-0.094-0.007-0.188-0.042-0.266-0.107c-7.881-6.446-12.001-21.48-12.172-22.117
					c-0.069-0.256,0.082-0.518,0.338-0.587c0.255-0.069,0.518,0.082,0.587,0.338c0.041,0.153,4.213,15.375,11.854,21.624
					c0.205,0.168,0.235,0.47,0.067,0.674C382.082,268.778,381.928,268.837,381.777,268.826z"/>
			</g>
		</g>
		<g>
			<g>
				<path style="fill:#FCBB8C;" d="M329.305,162.957l-0.003,0.011l-0.537,5.76l-7.433,0.463l0.315-5.848
					c-0.671-2.002-0.742-4.563-0.738-5.768c0.004-0.333,0.017-0.569,0.015-0.653l0-0.048c0,0-2.032-0.996-1.243-4.336
					c0.721-2.987,5.162-2.257,5.162-2.257s-0.984-11.085,1.099-10.147c2.086,0.927,2.147,10.016,2.147,10.016
					s1.929-12.09,3.451-9.735c1.519,2.367-0.448,10.627-0.448,10.627c2.5,0.438,4.999,2.524,3.201,5.432
					C332.918,158.72,330.396,161.702,329.305,162.957z"/>
				<g>
					<path style="fill:#FB927E;" d="M323.117,156.289l-0.025,0.097c-0.065,0.246-0.174,0.451-0.327,0.626
						c-0.105,0.132-0.242,0.237-0.398,0.327c-0.392,0.223-0.86,0.271-1.292,0.249c-0.059-0.003-0.111-0.006-0.163-0.015
						c0.004-0.334,0.009-0.564,0.014-0.656c0.385,0.039,0.819,0.029,1.123-0.146c0.223-0.133,0.365-0.336,0.426-0.621
						c0.337-1.584-0.08-3.568-0.085-3.588c-0.037-0.179,0.077-0.351,0.256-0.387c0.173-0.037,0.351,0.07,0.388,0.25
						C323.048,152.512,323.487,154.569,323.117,156.289z"/>
				</g>
				<g>
					<path style="fill:#FB927E;" d="M324.25,157.868c-0.871-0.045-1.577-0.955-1.661-1.068c-0.108-0.145-0.078-0.35,0.066-0.458
						c0.145-0.108,0.35-0.079,0.459,0.065c0.187,0.248,0.78,0.875,1.291,0.8c0.429-0.064,0.723-0.641,0.894-1.114
						c0.538-1.487-0.081-3.493-0.087-3.513c-0.054-0.173,0.042-0.357,0.214-0.411c0.173-0.053,0.357,0.042,0.411,0.214
						c0.028,0.091,0.691,2.24,0.078,3.933c-0.337,0.932-0.814,1.451-1.415,1.54C324.415,157.868,324.332,157.872,324.25,157.868z"/>
				</g>
				<g>
					<path style="fill:#FB927E;" d="M331.216,156.345c-0.684-0.035-1.497-0.184-2.239-0.599c-1.483-0.829-1.228-2.266-0.886-2.909
						c0.085-0.159,0.282-0.22,0.443-0.136c0.159,0.085,0.22,0.283,0.136,0.442l0,0c-0.069,0.133-0.641,1.322,0.627,2.031
						c1.464,0.817,3.339,0.43,3.357,0.426c0.176-0.039,0.351,0.075,0.389,0.252c0.038,0.177-0.074,0.351-0.251,0.389
						C332.744,156.251,332.084,156.389,331.216,156.345z"/>
				</g>
				<g>
					<path style="fill:#FB927E;" d="M326.806,160.129c-0.026-0.001-0.051-0.005-0.077-0.013c-0.173-0.051-0.272-0.234-0.221-0.407
						c0.771-2.599,3.089-3.987,3.187-4.045c0.156-0.091,0.356-0.04,0.448,0.116c0.092,0.156,0.04,0.356-0.116,0.449
						c-0.022,0.013-2.196,1.321-2.892,3.667C327.093,160.043,326.954,160.137,326.806,160.129z"/>
				</g>
			</g>
			<path style="fill:#FD4E5A;" d="M356.494,195.262l-4.785,20.56c0,0-28.136,9.615-32.237-1.286
				c-4.089-10.901,1.325-49.428,1.325-49.428l8.819,0.532c0,0,1.251,18.818,1.128,22.099c-0.185,4.388,0.65,12.083,0.469,14.143
				c-0.035,0.31-0.048,0.483-0.048,0.483c0.29-0.001,0.604-0.023,0.943-0.067C339.291,201.526,356.494,195.262,356.494,195.262z"/>
			<path style="fill:#D7243A;" d="M332.108,202.297c-1.833,2.455-3.94,4.714-6.273,6.285c-0.085,0.051-0.18,0.079-0.273,0.083
				c-0.15-0.011-0.295-0.08-0.389-0.215c-0.145-0.22-0.088-0.516,0.132-0.662c2.174-1.467,4.155-3.586,5.908-5.908
				c-0.035,0.31-0.048,0.483-0.048,0.483C331.455,202.363,331.769,202.341,332.108,202.297z"/>
		</g>
		<g>
			<path style="fill:#3C3C48;" d="M401.359,158.127c-0.573,9.044-8.368,15.911-17.412,15.338
				c-9.044-0.573-15.041-8.365-14.468-17.408c0.573-9.044,7.498-15.915,16.542-15.342
				C395.064,141.287,401.932,149.083,401.359,158.127z"/>
			<path style="fill:#3C3C48;" d="M399.88,152.348c0,0,5.59-2.364,3.09-6.521c-2.5-4.157,1.209-5.067-1.5-8.152
				c-2.438-2.777-6.279,0.612-8.381-1.648c-2.103-2.26-6.987-3.399-9.059-0.463c-1.909,2.704-4.88,1.657-7.78,1.982
				c-4.839,0.543-2.663,5.105-3.552,7.885c-0.89,2.781-4.27,6.128-0.032,7.954C376.903,155.214,399.88,152.348,399.88,152.348z"/>
			<g>
				<path style="fill:#FB927E;" d="M398.318,162.535c0,0,2.813-3.294,4.561-0.312c1.748,2.982-1.514,11.256-6.105,8.895
					L398.318,162.535z"/>
				<g>
					<path style="fill:#E6765D;" d="M397.969,168.573c0.174,0.011,0.342-0.094,0.403-0.267c0.897-2.561,3.665-3.448,3.693-3.456
						c0.211-0.066,0.329-0.289,0.264-0.5c-0.065-0.211-0.289-0.329-0.499-0.265c-0.129,0.04-3.18,1.007-4.213,3.956
						c-0.073,0.209,0.037,0.437,0.245,0.51C397.897,168.563,397.933,168.57,397.969,168.573z"/>
				</g>
				<g>
					<g>
						<path style="fill:#E6765D;" d="M400.779,167.432c0.074,0.005,0.15-0.011,0.22-0.05c0.193-0.108,0.262-0.351,0.155-0.544
							c-0.018-0.032-0.45-0.792-1.421-1.302c-0.194-0.103-0.437-0.028-0.54,0.168c-0.103,0.196-0.028,0.437,0.168,0.54
							c0.751,0.395,1.092,0.979,1.095,0.984C400.524,167.351,400.648,167.423,400.779,167.432z"/>
					</g>
				</g>
			</g>
			<path style="fill:#FCBB8C;" d="M378.504,177.154l-0.532,8.4c0,0,1.311,3.326,4.684,3.807c5.621,0.803,7.584-2.762,7.584-2.762
				l0.512-8.077L378.504,177.154z"/>
			<path style="fill:#FB927E;" d="M378.504,177.154l-0.236,3.727c2.113,2.666,6.111,3.552,12.141,3.048l0.342-5.407L378.504,177.154
				z"/>
			<path style="fill:#FCBB8C;" d="M371.432,165.7c0.104,0.823,0.23,1.602,0.383,2.301c0.153,0.693,0.331,1.444,0.549,2.224
				c1.761,6.303,5.969,14.572,17.235,11.334c5.591-1.604,8.509-7.533,10.032-13.655c0.365-1.469,0.648-2.951,0.87-4.385
				c0.405-2.622,0.596-5.089,0.684-7.054c0.134-3.104-1.377-6.046-3.978-7.746c-7.045-4.604-14.852-3.547-20.052-1.918
				c-3.609,1.131-6.082,4.448-6.141,8.221C370.962,158.295,371.014,162.397,371.432,165.7z"/>
			<g>
				<path style="fill:#3C3C48;" d="M372.364,170.224c1.761,6.303,5.969,14.572,17.235,11.334c5.591-1.604,8.509-7.533,10.032-13.655
					c0.365-1.469,0.648-2.951,0.87-4.385l-1.632,0.355c-0.619,2.663-1.54,6.54-2.608,8.321c-1.464-2.892-9.696-1.217-9.696-1.217
					s-8.292-3.191-10.789-0.301c-1.111-3.206-0.943-7.618-0.943-7.618l-2.144-0.422
					C372.688,162.636,372.417,166.444,372.364,170.224z M385.785,172.509c2.661-0.254,4.401,0.007,5.539,0.534
					c1.789,0.828,1.813,3.348,0.071,4.27c-1.031,0.546-2.015,0.877-3.09,1.073c-1.841,0.339-5.264,0.228-8.126-1.444
					c-1.247-0.729-1.806-2.292-1.141-3.574C379.689,172.114,381.438,171.222,385.785,172.509z"/>
			</g>
			<path style="fill:#3C3C48;" d="M392.026,163.237c-0.057,0.897,0.359,1.653,0.93,1.689c0.57,0.036,1.078-0.661,1.135-1.558
				c0.057-0.896-0.359-1.653-0.93-1.689S392.083,162.34,392.026,163.237z"/>
			<path style="fill:#3C3C48;" d="M379.939,162.472c-0.057,0.897,0.359,1.653,0.93,1.689c0.57,0.036,1.078-0.661,1.135-1.558
				c0.057-0.897-0.359-1.653-0.929-1.689C380.504,160.877,379.995,161.575,379.939,162.472z"/>
			<path style="fill:#3C3C48;" d="M396.731,158.529c0,0-4.189-1.97-7.588-0.75l0.179,1.553c0,0,3.634-0.573,7.059,0.958
				C396.645,159.595,396.964,159.275,396.731,158.529z"/>
			<path style="fill:#3C3C48;" d="M377.069,157.284c0,0,4.404-1.426,7.622,0.213l-0.373,1.518c0,0-3.532-1.027-7.124,0.059
				C377.02,158.353,376.744,157.994,377.069,157.284z"/>
			<g>
				<path style="fill:#FB927E;" d="M385.903,169.263c-0.673-0.043-1.325-0.347-1.425-0.396c-0.198-0.096-0.281-0.335-0.185-0.534
					c0.096-0.199,0.335-0.282,0.534-0.186c0.351,0.169,1.202,0.453,1.591,0.253c0.075-0.039,0.179-0.118,0.22-0.359
					c0.232-1.384,0.147-6.079,0.146-6.127c-0.005-0.221,0.171-0.403,0.392-0.407c0.222-0.005,0.403,0.171,0.408,0.392
					c0.004,0.196,0.088,4.817-0.157,6.274c-0.092,0.548-0.4,0.813-0.642,0.938C386.518,169.248,386.208,169.283,385.903,169.263z"/>
			</g>
			<path style="fill:#FFFFFF;" d="M390.929,173.454c-0.43,1.62-1.705,4.57-5.357,4.339c-3.66-0.232-4.512-3.055-4.745-4.979
				L390.929,173.454z"/>
			<path style="fill:#3C3C48;" d="M398.559,165.223c0.406-1.627,0.838-3.732,0.69-4.834c-0.266-1.951-1.79-3.185-1.141-5.009
				c0.65-1.832-1.187-3.952-2.614-4.375c-1.423-0.427-4.848,0.079-8.073-1.711c-3.079-1.71-8.666-0.98-9.695,1
				c-1.244,2.398,0.222,2.725-2.917,5.204c-1.25,0.989-0.021,3.839,0.065,5.647c0.038,0.832,0.025,1.236-0.063,2.122l-0.04,0.45
				l-3.555-0.225c-0.215-2.81-0.245-5.895-0.205-8.472c0.058-3.775,2.535-7.089,6.143-8.22c5.2-1.63,13.005-2.688,20.053,1.919
				c2.599,1.7,4.113,4.638,3.974,7.743c-0.107,2.411-0.372,5.58-0.994,8.865L398.559,165.223z"/>
			<g>
				<path style="fill:#FCBB8C;" d="M372.695,165.127c0.07-0.929,0.063-1.863-0.041-2.789c-0.143-1.266-0.434-2.425-1.682-3.028
					c-1.004-0.485-2.104-0.563-2.961,0.549c-2.11,2.738-0.525,11.773,4.328,10.01L372.695,165.127z"/>
				<g>
					<g>
						<path style="fill:#FB927E;" d="M371.589,167.22c-0.169-0.045-0.294-0.198-0.297-0.381c-0.036-2.714-2.38-4.434-2.403-4.451
							c-0.179-0.129-0.22-0.379-0.091-0.558c0.129-0.179,0.378-0.22,0.557-0.092c0.11,0.079,2.695,1.965,2.737,5.09
							c0.003,0.221-0.174,0.402-0.395,0.405C371.66,167.234,371.624,167.229,371.589,167.22z"/>
					</g>
				</g>
				<g>
					<g>
						<path style="fill:#FB927E;" d="M369.287,165.245c-0.072-0.019-0.139-0.058-0.193-0.117c-0.149-0.163-0.137-0.416,0.027-0.565
							c0.027-0.025,0.678-0.607,1.762-0.783c0.217-0.036,0.423,0.113,0.458,0.331c0.036,0.218-0.113,0.423-0.331,0.459
							c-0.838,0.136-1.346,0.581-1.351,0.585C369.555,165.249,369.414,165.279,369.287,165.245z"/>
					</g>
				</g>
			</g>
		</g>
	</g>
	<g>
		<g>
			<path style="fill:#3C3C48;" d="M75.016,434.961H57.721c-2.352,0-4.437-2.665-5.164-6.602l-7.335-39.726
				c-0.3-1.625,0.344-3.314,1.312-3.446c13.354-1.822,26.578-1.823,39.671-0.005c0.967,0.134,1.61,1.822,1.31,3.446l-7.336,39.731
				C79.453,432.296,77.368,434.961,75.016,434.961z"/>
			<path style="fill:#1A100E;" d="M85.979,388.071c0,1.057-8.727,1.913-19.493,1.913c-10.765,0-19.493-0.857-19.493-1.913
				c0-1.057,8.727-1.913,19.493-1.913C77.252,386.158,85.979,387.014,85.979,388.071z"/>
			<path style="fill:#FD4E5A;" d="M99.239,334.383c-10.388-2.737-26.262,18.827-31.083,39.851v-30.632
				c2.423-4.297,7.043-10.763,15.432-17.595c13.045-10.624,25.053-24.259,14.646-27c-9.753-2.569-24.34,16.281-30.078,35.993
				v-39.336c1.681-2.609,4.434-6.033,8.836-9.618c8.221-6.696,15.789-15.289,9.23-17.016c-5.692-1.5-13.997,8.577-18.066,19.941
				v-12.749c0.673-3.944,1.623-9.576,4.233-15.335c6.047-13.343,9.313-27.091,1.341-26.068c-7.98,1.024-13.153,24.788-8.79,43.032
				v6.561c-2.947-13.351-13.061-27.178-19.662-25.44c-6.559,1.728,1.009,10.321,9.23,17.016c6.258,5.097,9.187,9.868,10.431,12.434
				v30.987c-4.728-21.129-20.714-42.938-31.158-40.187c-10.407,2.741,1.601,16.376,14.646,27
				c9.858,8.029,14.513,15.552,16.512,19.644v37.159c-5.053-20.743-20.631-41.676-30.875-38.978
				c-10.407,2.741-1.482,12.706,13.178,24.757c9.963,8.191,15.3,16.834,17.697,21.533v17.503c1.163,0.325,2.252,0.324,3.216,0
				v-6.965c2.039-4.124,6.7-11.561,16.437-19.492C97.638,350.759,109.646,337.124,99.239,334.383z"/>
		</g>
	</g>
	<g>
		<polygon style="fill:#3C3C48;" points="246.002,384.849 238.417,376.968 299.099,376.968 306.807,384.976 		"/>
		<g>
			<path style="fill:#E3E5E8;" d="M247.497,385.374l2.017-17.159c0.317-2.698,2.762-4.628,5.46-4.311l27.123,3.188
				c2.698,0.317,4.628,2.762,4.311,5.46l-2.017,17.159c-0.317,2.698-2.762,4.628-5.46,4.311l-27.123-3.188
				C249.11,390.517,247.18,388.072,247.497,385.374z"/>
			<path style="fill:#FD4E5A;" d="M285.854,369.29l-2.758,23.465c-0.001,0.009-0.002,0.018-0.004,0.028
				c-0.066,0.432-0.463,0.737-0.9,0.685l-33.428-3.93c-0.251-0.029-0.463-0.171-0.59-0.369c-0.098-0.153-0.146-0.34-0.123-0.534
				l2.758-23.465c0.052-0.446,0.457-0.766,0.903-0.713l33.428,3.929C285.587,368.44,285.906,368.844,285.854,369.29z"/>
			
				<ellipse transform="matrix(0.3656 -0.9308 0.9308 0.3656 -180.299 493.4973)" style="fill:#D7243A;" cx="271.866" cy="379.011" rx="5.99" ry="5.99"/>
			<path style="fill:#1A100E;" d="M283.78,386.927l-0.688,5.856c-0.065,0.432-0.462,0.737-0.9,0.686l-17.828-2.096l13.522-17.684
				l4.527,10.169L283.78,386.927z"/>
			<path style="fill:#3C3C48;" d="M276.1,392.752l-27.336-3.213c-0.252-0.029-0.463-0.171-0.59-0.369l8.151-10.237l8.369-10.511
				l5.703,12.165L276.1,392.752z"/>
			<polygon style="fill:#FFFFFF;" points="259.268,375.236 263.428,379.187 268.391,376.309 264.693,368.422 			"/>
			<polygon style="fill:#FFFFFF;" points="273.285,379.707 276.77,383.194 280.969,380.611 277.887,373.688 			"/>
		</g>
		<g>
			<path style="fill:#E3E5E8;" d="M284.813,394.727l-8.036-15.294c-1.264-2.405-0.338-5.379,2.067-6.643l24.176-12.702
				c2.405-1.264,5.379-0.338,6.643,2.067l8.036,15.294c1.264,2.405,0.338,5.379-2.067,6.643l-24.176,12.702
				C289.051,398.058,286.077,397.132,284.813,394.727z"/>
			<path style="fill:#FD4E5A;" d="M307.361,359.777l10.989,20.915c0.004,0.008,0.009,0.016,0.013,0.025
				c0.19,0.393,0.035,0.869-0.355,1.074l-29.796,15.655c-0.224,0.118-0.479,0.121-0.695,0.029c-0.167-0.071-0.312-0.198-0.403-0.371
				l-10.989-20.915c-0.209-0.398-0.056-0.89,0.342-1.099l29.796-15.655C306.66,359.227,307.152,359.38,307.361,359.777z"/>
			<path style="fill:#D7243A;" d="M306.62,372.917c1.539,2.928,0.412,6.55-2.516,8.088c-2.928,1.539-6.55,0.412-8.088-2.517
				c-1.539-2.928-0.412-6.55,2.517-8.088C301.46,368.862,305.081,369.989,306.62,372.917z"/>
			<path style="fill:#1A100E;" d="M315.62,375.498l2.742,5.22c0.19,0.393,0.035,0.869-0.355,1.074l-15.891,8.349l1.158-22.232
				l9.483,5.83L315.62,375.498z"/>
			<path style="fill:#3C3C48;" d="M312.578,384.645l-24.365,12.802c-0.224,0.118-0.479,0.121-0.695,0.029l0.937-13.052l0.961-13.401
				l11.582,6.811L312.578,384.645z"/>
			<polygon style="fill:#FFFFFF;" points="288.792,379.711 294.457,380.618 296.924,375.439 289.415,371.023 			"/>
			<polygon style="fill:#FFFFFF;" points="302.882,375.476 307.727,376.382 309.731,371.877 303.276,367.909 			"/>
		</g>
		<g>
			
				<rect x="246.022" y="384.849" transform="matrix(-1 -1.224647e-16 1.224647e-16 -1 552.3843 825.8845)" style="fill:#1A100E;" width="60.34" height="56.187"/>
			<polygon style="fill:#3C3C48;" points="258.48,441.036 318.82,441.036 318.82,384.722 258.48,384.849 			"/>
			<g>
				<g>
					<g>
						<path style="fill:#FFFFFF;" d="M289.428,420.12v-17.207c0-1.107,0.897-2.005,2.005-2.005l0,0c1.107,0,2.005,0.898,2.005,2.005
							v17.207c0,1.107-0.897,2.005-2.005,2.005l0,0C290.326,422.125,289.428,421.227,289.428,420.12z"/>
					</g>
				</g>
				<g>
					<g>
						<path style="fill:#FFFFFF;" d="M282.83,409.512h17.207c1.107,0,2.005,0.897,2.005,2.005l0,0c0,1.107-0.897,2.005-2.005,2.005
							H282.83c-1.107,0-2.005-0.897-2.005-2.005l0,0C280.825,410.409,281.723,409.512,282.83,409.512z"/>
					</g>
				</g>
			</g>
			<g style="opacity:0.5;">
				<path style="fill:#E3E5E8;" d="M291.318,428.249c-0.748-0.005-1.5-0.06-2.235-0.163c-0.2-0.028-0.339-0.213-0.311-0.413
					c0.028-0.2,0.211-0.339,0.413-0.311c0.703,0.099,1.422,0.151,2.138,0.156c0.202,0.001,0.365,0.166,0.363,0.368
					c-0.001,0.201-0.165,0.363-0.366,0.363C291.32,428.249,291.319,428.249,291.318,428.249z M292.66,427.842
					c-0.019-0.201,0.128-0.38,0.329-0.399c0.711-0.069,1.422-0.186,2.115-0.348c0.197-0.047,0.394,0.076,0.44,0.272
					c0.046,0.197-0.076,0.393-0.272,0.44c-0.724,0.17-1.468,0.293-2.212,0.364c-0.012,0.001-0.024,0.002-0.035,0.002
					C292.838,428.173,292.679,428.031,292.66,427.842z M287.371,427.753c-0.723-0.18-1.441-0.411-2.134-0.688
					c-0.188-0.075-0.279-0.288-0.204-0.475c0.075-0.188,0.288-0.278,0.475-0.204c0.663,0.264,1.349,0.486,2.039,0.658
					c0.196,0.049,0.315,0.247,0.266,0.443c-0.041,0.167-0.19,0.277-0.355,0.277C287.431,427.764,287.401,427.76,287.371,427.753z
					 M296.481,427.095c-0.067-0.191,0.034-0.399,0.225-0.466c0.672-0.234,1.336-0.518,1.973-0.841c0.18-0.092,0.4-0.02,0.492,0.16
					c0.092,0.18,0.02,0.4-0.16,0.492c-0.666,0.339-1.36,0.635-2.063,0.88c-0.04,0.014-0.081,0.02-0.121,0.02
					C296.675,427.34,296.534,427.245,296.481,427.095z M283.654,426.335c-0.659-0.346-1.301-0.741-1.909-1.174
					c-0.165-0.117-0.203-0.346-0.086-0.51c0.117-0.165,0.346-0.203,0.51-0.086c0.582,0.413,1.196,0.791,1.826,1.123
					c0.179,0.094,0.247,0.315,0.153,0.494c-0.065,0.125-0.192,0.196-0.324,0.196C283.766,426.377,283.708,426.363,283.654,426.335z
					 M300.016,425.46c-0.11-0.17-0.061-0.396,0.108-0.506c0.598-0.388,1.176-0.819,1.717-1.284c0.154-0.132,0.384-0.114,0.516,0.039
					c0.131,0.153,0.114,0.384-0.04,0.516c-0.566,0.485-1.17,0.937-1.796,1.342c-0.061,0.04-0.13,0.059-0.199,0.059
					C300.203,425.627,300.085,425.569,300.016,425.46z M280.378,424.078c-0.56-0.492-1.091-1.027-1.58-1.59
					c-0.133-0.152-0.116-0.383,0.036-0.516c0.152-0.133,0.384-0.116,0.516,0.036c0.468,0.538,0.976,1.05,1.511,1.521
					c0.152,0.134,0.166,0.365,0.033,0.516c-0.072,0.082-0.173,0.124-0.275,0.124C280.534,424.169,280.448,424.139,280.378,424.078z
					 M303.063,423.038c-0.147-0.139-0.153-0.37-0.014-0.517c0.491-0.518,0.951-1.074,1.367-1.651
					c0.119-0.164,0.347-0.201,0.511-0.083c0.164,0.118,0.201,0.347,0.083,0.511c-0.435,0.603-0.916,1.184-1.43,1.726
					c-0.072,0.076-0.169,0.114-0.266,0.114C303.225,423.138,303.134,423.105,303.063,423.038z M277.724,421.114
					c-0.429-0.612-0.82-1.257-1.162-1.918c-0.093-0.179-0.023-0.4,0.157-0.493c0.179-0.093,0.4-0.023,0.493,0.157
					c0.327,0.632,0.701,1.249,1.111,1.834c0.116,0.165,0.076,0.394-0.09,0.51c-0.064,0.045-0.137,0.066-0.21,0.066
					C277.909,421.27,277.796,421.216,277.724,421.114z M305.456,419.968c-0.175-0.1-0.236-0.324-0.135-0.499
					c0.355-0.618,0.67-1.266,0.939-1.925c0.076-0.187,0.289-0.278,0.477-0.201c0.187,0.076,0.277,0.29,0.201,0.477
					c-0.281,0.69-0.611,1.367-0.982,2.014c-0.068,0.118-0.191,0.184-0.317,0.184C305.576,420.017,305.514,420.001,305.456,419.968z
					 M275.843,417.607c-0.272-0.695-0.498-1.415-0.674-2.14c-0.047-0.196,0.073-0.394,0.27-0.442
					c0.197-0.047,0.394,0.073,0.441,0.27c0.168,0.693,0.385,1.382,0.644,2.046c0.073,0.188-0.019,0.4-0.208,0.474
					c-0.044,0.017-0.089,0.025-0.133,0.025C276.037,417.839,275.899,417.751,275.843,417.607z M307.057,416.422
					c-0.194-0.056-0.306-0.259-0.25-0.453c0.198-0.684,0.351-1.389,0.455-2.094c0.03-0.2,0.216-0.337,0.415-0.309
					c0.2,0.03,0.338,0.216,0.309,0.415c-0.109,0.738-0.269,1.475-0.476,2.191c-0.047,0.16-0.193,0.264-0.351,0.264
					C307.125,416.436,307.091,416.431,307.057,416.422z M274.848,413.753c-0.099-0.735-0.148-1.488-0.148-2.236
					c0-0.484,0.021-0.974,0.062-1.456c0.017-0.201,0.192-0.348,0.396-0.333c0.201,0.017,0.35,0.195,0.333,0.396
					c-0.04,0.461-0.06,0.93-0.06,1.392c0,0.716,0.048,1.436,0.142,2.139c0.027,0.2-0.114,0.384-0.314,0.411
					c-0.016,0.002-0.033,0.003-0.049,0.003C275.03,414.07,274.873,413.936,274.848,413.753z M307.769,412.595
					c-0.202-0.009-0.358-0.18-0.35-0.381c0.01-0.231,0.015-0.464,0.015-0.697c0-0.481-0.022-0.968-0.065-1.446
					c-0.018-0.201,0.13-0.379,0.332-0.397c0.202-0.018,0.379,0.131,0.397,0.332c0.045,0.5,0.067,1.008,0.067,1.511
					c0,0.244-0.005,0.487-0.016,0.729c-0.009,0.197-0.171,0.35-0.365,0.35C307.78,412.595,307.774,412.595,307.769,412.595z
					 M275.292,408.762c-0.198-0.038-0.328-0.23-0.29-0.428c0.141-0.732,0.333-1.462,0.572-2.168c0.064-0.191,0.271-0.294,0.464-0.23
					c0.191,0.065,0.294,0.272,0.23,0.463c-0.228,0.675-0.411,1.372-0.547,2.072c-0.034,0.175-0.187,0.297-0.359,0.297
					C275.339,408.769,275.315,408.767,275.292,408.762z M307.135,408.42c-0.137-0.701-0.324-1.398-0.554-2.073
					c-0.065-0.191,0.037-0.399,0.228-0.464c0.191-0.065,0.399,0.037,0.464,0.228c0.241,0.706,0.436,1.435,0.579,2.168
					c0.039,0.198-0.09,0.391-0.288,0.429c-0.024,0.005-0.048,0.007-0.071,0.007C307.322,408.715,307.169,408.594,307.135,408.42z
					 M276.397,405.03c-0.184-0.084-0.264-0.302-0.18-0.485c0.31-0.676,0.67-1.338,1.069-1.969c0.108-0.171,0.334-0.221,0.505-0.113
					c0.171,0.108,0.221,0.334,0.113,0.505c-0.382,0.603-0.726,1.237-1.022,1.883c-0.062,0.134-0.194,0.213-0.333,0.213
					C276.498,405.063,276.446,405.053,276.397,405.03z M305.96,404.799c-0.299-0.647-0.646-1.279-1.03-1.881
					c-0.109-0.17-0.059-0.396,0.111-0.505c0.17-0.108,0.397-0.059,0.505,0.112c0.402,0.629,0.764,1.291,1.077,1.967
					c0.085,0.183,0.005,0.401-0.178,0.486c-0.05,0.023-0.102,0.034-0.154,0.034C306.154,405.011,306.022,404.933,305.96,404.799z
					 M278.355,401.667c-0.159-0.125-0.186-0.355-0.06-0.514c0.461-0.585,0.967-1.144,1.503-1.662
					c0.145-0.14,0.376-0.137,0.517,0.009c0.14,0.145,0.137,0.377-0.009,0.517c-0.512,0.496-0.996,1.031-1.438,1.59
					c-0.072,0.092-0.179,0.139-0.287,0.139C278.502,401.746,278.422,401.72,278.355,401.667z M303.961,401.561
					c-0.444-0.557-0.93-1.091-1.444-1.585c-0.146-0.14-0.15-0.371-0.01-0.517c0.14-0.146,0.372-0.151,0.517-0.01
					c0.538,0.517,1.046,1.074,1.509,1.657c0.126,0.158,0.1,0.388-0.059,0.514c-0.067,0.054-0.148,0.08-0.227,0.08
					C304.14,401.699,304.033,401.652,303.961,401.561z M281.05,398.858c-0.124-0.159-0.097-0.389,0.062-0.514
					c0.588-0.461,1.211-0.886,1.853-1.263c0.173-0.102,0.398-0.044,0.501,0.13c0.102,0.174,0.044,0.398-0.13,0.501
					c-0.613,0.36-1.209,0.767-1.772,1.208c-0.067,0.052-0.146,0.078-0.225,0.078C281.229,398.999,281.122,398.95,281.05,398.858z
					 M301.256,398.884c-0.562-0.438-1.16-0.842-1.775-1.201c-0.175-0.102-0.233-0.326-0.132-0.5c0.102-0.174,0.327-0.234,0.5-0.132
					c0.643,0.375,1.268,0.798,1.856,1.256c0.159,0.124,0.188,0.354,0.064,0.513c-0.072,0.093-0.18,0.141-0.289,0.141
					C301.402,398.961,301.323,398.936,301.256,398.884z M284.331,396.762c-0.084-0.184-0.002-0.401,0.181-0.484
					c0.679-0.309,1.386-0.574,2.1-0.789c0.194-0.057,0.397,0.051,0.456,0.245c0.058,0.194-0.052,0.397-0.245,0.456
					c-0.683,0.205-1.358,0.459-2.007,0.754c-0.049,0.022-0.1,0.033-0.151,0.033C284.525,396.976,284.392,396.896,284.331,396.762z
					 M297.999,396.92c-0.65-0.293-1.326-0.544-2.009-0.746c-0.194-0.057-0.304-0.261-0.247-0.455
					c0.057-0.194,0.261-0.303,0.455-0.247c0.714,0.212,1.422,0.475,2.102,0.781c0.184,0.083,0.266,0.3,0.183,0.484
					c-0.061,0.135-0.194,0.216-0.334,0.216C298.099,396.952,298.048,396.942,297.999,396.92z M288.016,395.503
					c-0.038-0.198,0.093-0.39,0.292-0.427c0.73-0.138,1.479-0.228,2.225-0.268c0.198-0.006,0.374,0.144,0.385,0.346
					c0.011,0.202-0.144,0.374-0.346,0.385c-0.714,0.038-1.43,0.124-2.128,0.256c-0.023,0.005-0.046,0.006-0.068,0.006
					C288.202,395.801,288.049,395.678,288.016,395.503z M294.369,395.784c-0.698-0.129-1.415-0.213-2.129-0.249
					c-0.202-0.01-0.357-0.182-0.347-0.384c0.01-0.202,0.177-0.358,0.384-0.347c0.747,0.037,1.496,0.125,2.226,0.26
					c0.199,0.037,0.33,0.228,0.293,0.426c-0.033,0.176-0.186,0.299-0.359,0.299C294.414,395.79,294.391,395.788,294.369,395.784z"/>
			</g>
		</g>
		<polygon style="fill:#1A100E;" points="318.82,384.722 326.87,376.84 266.187,376.84 258.48,384.849 		"/>
	</g>
	<g>
		<g>
			<g>
				<path style="fill:#D7243A;" d="M146.409,440.052h34.503c2.535,0,4.59-2.055,4.59-4.59v-34.503c0-2.535-2.055-4.591-4.591-4.591
					h-34.503c-2.535,0-4.591,2.055-4.591,4.591v34.503C141.819,437.996,143.874,440.052,146.409,440.052z"/>
			</g>
		</g>
		<g>
			<g>
				<g>
					<g>
						<path style="fill:#FD4E5A;" d="M149.381,440.052h34.503c2.535,0,4.59-2.055,4.59-4.59v-34.503
							c0-2.535-2.055-4.591-4.591-4.591h-34.503c-2.535,0-4.591,2.055-4.591,4.591v34.503
							C144.79,437.996,146.845,440.052,149.381,440.052z"/>
					</g>
				</g>
			</g>
		</g>
		<g>
			<g>
				<path style="fill:#FFFFFF;" d="M152.285,418.21c0,7.912,6.437,14.348,14.349,14.348c7.912,0,14.348-6.437,14.348-14.348
					c0-7.912-6.437-14.349-14.348-14.349C158.722,403.861,152.285,410.298,152.285,418.21z M160.336,423.508
					c-0.469-1.56-0.726-3.25-0.766-5.027h6.486v5.027H160.336z M163.719,431.08c-3.645-0.822-6.744-3.133-8.591-6.417h4.371
					c0.602,1.697,1.44,3.235,2.494,4.573C162.524,429.91,163.103,430.529,163.719,431.08z M166.056,424.662l0,6.729
					c-0.435-0.256-1.81-1.149-3.186-2.906c-0.881-1.126-1.601-2.411-2.142-3.823H166.056z M161.044,411.146
					c1.531-3.391,3.781-5.476,4.499-6.085c0.171-0.014,0.343-0.025,0.513-0.032v6.117H161.044z M155.496,411.146
					c1.838-2.888,4.736-4.963,8.036-5.762c-0.649,0.686-1.259,1.437-1.816,2.237c-0.769,1.104-1.42,2.29-1.933,3.525H155.496z
					 M159.577,417.327c0.068-1.717,0.403-3.407,0.996-5.027h5.483v5.027H159.577z M153.469,417.327
					c0.117-1.762,0.577-3.452,1.37-5.027h4.51c-0.552,1.63-0.863,3.32-0.926,5.027H153.469z M158.416,418.481
					c0.038,1.766,0.279,3.456,0.718,5.027h-4.584c-0.7-1.59-1.072-3.28-1.107-5.027H158.416z M174.717,418.481h5.107
					c-0.035,1.747-0.408,3.438-1.108,5.027h-4.718C174.437,421.937,174.679,420.247,174.717,418.481z M167.21,411.146v-6.117
					c0.122,0.005,0.244,0.012,0.365,0.02c0.498,0.419,1.705,1.519,2.911,3.258c0.621,0.895,1.16,1.849,1.605,2.839H167.21z
					 M172.561,412.3c0.592,1.625,0.927,3.315,0.994,5.027h-6.345V412.3H172.561z M173.349,411.146
					c-0.514-1.235-1.164-2.421-1.933-3.525c-0.568-0.815-1.19-1.579-1.854-2.276c3.374,0.769,6.333,2.858,8.207,5.801H173.349z
					 M173.563,418.481c-0.04,1.783-0.297,3.473-0.765,5.027h-5.588v-5.027H173.563z M174.71,417.327
					c-0.063-1.708-0.374-3.397-0.926-5.027h4.643c0.794,1.577,1.255,3.267,1.371,5.027H174.71z M178.139,424.662
					c-1.857,3.296-5.092,5.672-8.767,6.455c0.631-0.56,1.225-1.191,1.769-1.882c1.053-1.337,1.892-2.875,2.494-4.573H178.139z
					 M172.402,424.662c-1.593,4.135-4.319,6.102-5.192,6.647v-6.647H172.402z"/>
			</g>
		</g>
	</g>
</g>
<g id="DESIGNED_BY_FREEPIK">
	<g>
		<g id="XMLID_1_">
			<g id="XMLID_20_">
				<path id="XMLID_28_" style="fill:#112129;" d="M260.104,465.465c-0.432,0.443-0.803,0.931-1.108,1.453l-0.465-0.241
					c-0.067-0.298-0.349-0.503-0.659-0.466c-0.331,0.039-0.568,0.339-0.529,0.67c0.039,0.331,0.339,0.568,0.67,0.529
					c0.065-0.008,0.127-0.026,0.183-0.052l0.452,0.234c-0.251,0.554-0.433,1.139-0.539,1.744l0.747,0.132
					c0.23-1.306,0.85-2.507,1.792-3.473L260.104,465.465z"/>
				<path id="XMLID_27_" style="fill:#112129;" d="M265.592,463.163c-0.171,0-0.341,0.006-0.51,0.017l-0.074-0.626
					c0.188-0.149,0.296-0.389,0.266-0.645c-0.046-0.393-0.402-0.674-0.795-0.628c-0.393,0.046-0.674,0.402-0.628,0.795
					c0.03,0.254,0.189,0.461,0.405,0.564l0.073,0.624c-0.714,0.116-1.403,0.332-2.06,0.646l0.327,0.684
					c0.934-0.447,1.942-0.673,2.995-0.673c0.496,0,0.993,0.053,1.475,0.158l0.161-0.741
					C266.692,463.222,266.142,463.163,265.592,463.163z"/>
				<path id="XMLID_26_" style="fill:#112129;" d="M272.194,465.711c0.331-0.04,0.566-0.341,0.526-0.672
					c-0.04-0.331-0.341-0.566-0.672-0.526c-0.309,0.038-0.535,0.304-0.53,0.609l-0.416,0.363c-0.418-0.43-0.89-0.813-1.408-1.139
					l-0.404,0.641c1.134,0.715,2.021,1.726,2.563,2.925l0.691-0.313c-0.251-0.554-0.568-1.072-0.942-1.545l0.402-0.351
					C272.065,465.716,272.129,465.719,272.194,465.711z"/>
				<path id="XMLID_25_" style="fill:#112129;" d="M265.044,473.372c-0.386,0.023-0.775,0.035-1.157,0.035
					c-0.88,0-1.733-0.061-2.478-0.179c-0.39-0.062-0.846-0.155-1.27-0.292c1.046,1.861,3.069,3.125,5.388,3.125
					c2.855,0,5.262-1.916,5.95-4.504c-0.682,0.449-1.505,0.825-2.459,1.123C267.839,473.047,266.464,473.286,265.044,473.372z"/>
				<path id="XMLID_21_" style="fill:#112129;" d="M265.592,464.68c-3.352,0-6.08,2.666-6.08,5.943c0,0.426,0.046,0.849,0.137,1.261
					c0.673,0.483,2.706,0.89,5.348,0.731c2.879-0.173,5.297-0.957,6.672-2.159c-0.005-0.195-0.021-0.39-0.045-0.582
					C271.244,466.913,268.65,464.68,265.592,464.68z M263.432,471.194c-1.02,0-1.85-0.83-1.85-1.85c0-1.02,0.83-1.85,1.85-1.85
					c1.02,0,1.85,0.83,1.85,1.85C265.282,470.365,264.452,471.194,263.432,471.194z M268.17,470.286c-0.75,0-1.36-0.61-1.36-1.36
					s0.61-1.361,1.36-1.361c0.75,0,1.361,0.61,1.361,1.361S268.92,470.286,268.17,470.286z"/>
			</g>
			<path id="XMLID_18_" style="fill:#112129;" d="M281.595,466.547c-0.295-0.116-0.805-0.309-1.382-0.237
				c-0.551,0.069-0.844,0.341-0.844,1.007v0.866h2.228v1.717h-2.228v5.455h-1.932v-5.455h-1.34v-1.717h1.34v-0.888
				c0-1.68,0.896-2.783,2.568-2.783c0.643,0,1.157,0.122,1.59,0.308L281.595,466.547z"/>
			<path id="XMLID_16_" style="fill:#112129;" d="M286.298,469.879c-0.177-0.03-0.358-0.046-0.526-0.046
				c-0.896,0-1.51,0.548-1.51,1.614v3.908h-1.932v-7.172h1.873v0.785c0.451-0.673,1.14-0.977,2.021-0.977
				c0.414,0,0.848,0.128,1.094,0.337L286.298,469.879z"/>
			<path id="XMLID_13_" style="fill:#112129;" d="M293.965,471.757c0,0.222-0.015,0.489-0.037,0.651h-5.085
				c0.207,1.036,0.933,1.488,1.843,1.488c0.622,0,1.295-0.252,1.813-0.688l1.132,1.243c-0.814,0.748-1.85,1.088-3.057,1.088
				c-2.198,0-3.723-1.495-3.723-3.753c0-2.258,1.48-3.797,3.627-3.797C292.544,467.99,293.958,469.522,293.965,471.757z
				 M288.851,471.091h3.175c-0.177-0.918-0.733-1.436-1.562-1.436C289.554,469.655,289.021,470.203,288.851,471.091z"/>
			<path id="XMLID_10_" style="fill:#112129;" d="M301.618,471.757c0,0.222-0.015,0.489-0.037,0.651h-5.085
				c0.207,1.036,0.933,1.488,1.843,1.488c0.622,0,1.295-0.252,1.813-0.688l1.132,1.243c-0.814,0.748-1.85,1.088-3.057,1.088
				c-2.198,0-3.723-1.495-3.723-3.753c0-2.258,1.48-3.797,3.627-3.797C300.197,467.99,301.611,469.522,301.618,471.757z
				 M296.504,471.091h3.175c-0.178-0.918-0.733-1.436-1.562-1.436C297.207,469.655,296.674,470.203,296.504,471.091z"/>
			<path id="XMLID_7_" style="fill:#112129;" d="M309.964,471.764c0,2.154-1.495,3.775-3.471,3.775
				c-0.962,0-1.643-0.378-2.109-0.933v3.708h-1.924v-10.133h1.887v0.792c0.466-0.585,1.155-0.984,2.139-0.984
				C308.469,467.99,309.964,469.61,309.964,471.764z M304.287,471.764c0,1.132,0.747,1.976,1.843,1.976
				c1.14,0,1.85-0.881,1.85-1.976c0-1.095-0.71-1.976-1.85-1.976C305.035,469.788,304.287,470.632,304.287,471.764z"/>
			<path id="XMLID_4_" style="fill:#112129;" d="M313.068,465.836c0,0.696-0.54,1.229-1.236,1.229c-0.696,0-1.229-0.533-1.229-1.229
				c0-0.696,0.533-1.243,1.229-1.243C312.527,464.592,313.068,465.14,313.068,465.836z M312.809,475.354h-1.932v-7.172h1.932
				V475.354z"/>
			<path id="XMLID_2_" style="fill:#112129;" d="M316.032,470.736l2.701-2.554h2.368l-3.479,3.375l3.501,3.797h-2.376l-2.716-2.901
				v2.901H314.1v-10.658h1.932V470.736z"/>
		</g>
		<g>
			<path style="fill:#112129;" d="M184.412,475.289v-1.055c-0.527,0.718-1.391,1.23-2.387,1.23c-1.846,0-3.149-1.406-3.149-3.706
				c0-2.256,1.289-3.721,3.149-3.721c0.952,0,1.816,0.469,2.387,1.245v-3.765h1.099v9.77H184.412z M184.412,473.37v-3.208
				c-0.395-0.615-1.245-1.143-2.124-1.143c-1.421,0-2.27,1.172-2.27,2.739c0,1.567,0.85,2.724,2.27,2.724
				C183.168,474.483,184.017,473.986,184.412,473.37z"/>
			<path style="fill:#112129;" d="M186.932,471.744c0-2.051,1.465-3.706,3.486-3.706c2.139,0,3.398,1.67,3.398,3.794v0.279h-5.727
				c0.088,1.333,1.025,2.446,2.549,2.446c0.805,0,1.626-0.322,2.182-0.894l0.527,0.718c-0.703,0.703-1.655,1.084-2.812,1.084
				C188.44,475.465,186.932,473.956,186.932,471.744z M190.403,468.947c-1.509,0-2.256,1.274-2.314,2.358h4.643
				C192.718,470.25,192.015,468.947,190.403,468.947z"/>
			<path style="fill:#112129;" d="M194.607,474.351l0.571-0.791c0.469,0.542,1.362,1.011,2.329,1.011c1.084,0,1.67-0.513,1.67-1.216
				c0-1.714-4.38-0.659-4.38-3.281c0-1.098,0.952-2.036,2.636-2.036c1.201,0,2.051,0.454,2.622,1.026l-0.513,0.762
				c-0.424-0.513-1.201-0.894-2.109-0.894c-0.967,0-1.567,0.483-1.567,1.113c0,1.552,4.38,0.527,4.38,3.281
				c0,1.187-0.952,2.138-2.783,2.138C196.306,475.465,195.325,475.113,194.607,474.351z"/>
			<path style="fill:#112129;" d="M201.477,466.471c0-0.41,0.337-0.747,0.732-0.747c0.41,0,0.747,0.337,0.747,0.747
				c0,0.41-0.337,0.732-0.747,0.732C201.814,467.203,201.477,466.881,201.477,466.471z M201.667,475.289v-7.075h1.099v7.075H201.667
				z"/>
			<path style="fill:#112129;" d="M204.582,477.105l0.556-0.82c0.586,0.703,1.289,0.967,2.3,0.967c1.172,0,2.27-0.571,2.27-2.124
				v-1.011c-0.513,0.718-1.377,1.26-2.373,1.26c-1.845,0-3.149-1.377-3.149-3.662c0-2.27,1.289-3.677,3.149-3.677
				c0.952,0,1.802,0.469,2.373,1.245v-1.069h1.098v6.87c0,2.344-1.641,3.076-3.369,3.076
				C206.237,478.16,205.417,477.926,204.582,477.105z M209.709,473.253v-3.091c-0.381-0.615-1.23-1.143-2.109-1.143
				c-1.421,0-2.27,1.128-2.27,2.695c0,1.553,0.849,2.695,2.27,2.695C208.478,474.41,209.328,473.868,209.709,473.253z"/>
			<path style="fill:#112129;" d="M217.413,475.289v-4.629c0-1.245-0.63-1.641-1.582-1.641c-0.865,0-1.685,0.527-2.095,1.099v5.17
				h-1.099v-7.075h1.099v1.025c0.498-0.586,1.465-1.201,2.519-1.201c1.48,0,2.256,0.747,2.256,2.285v4.966H217.413z"/>
			<path style="fill:#112129;" d="M219.932,471.744c0-2.051,1.465-3.706,3.486-3.706c2.139,0,3.398,1.67,3.398,3.794v0.279h-5.727
				c0.088,1.333,1.025,2.446,2.549,2.446c0.806,0,1.626-0.322,2.183-0.894l0.527,0.718c-0.703,0.703-1.655,1.084-2.812,1.084
				C221.441,475.465,219.932,473.956,219.932,471.744z M223.404,468.947c-1.509,0-2.256,1.274-2.314,2.358h4.643
				C225.718,470.25,225.015,468.947,223.404,468.947z"/>
			<path style="fill:#112129;" d="M233.35,475.289v-1.055c-0.527,0.718-1.392,1.23-2.388,1.23c-1.846,0-3.149-1.406-3.149-3.706
				c0-2.256,1.289-3.721,3.149-3.721c0.952,0,1.817,0.469,2.388,1.245v-3.765h1.098v9.77H233.35z M233.35,473.37v-3.208
				c-0.396-0.615-1.245-1.143-2.124-1.143c-1.421,0-2.27,1.172-2.27,2.739c0,1.567,0.849,2.724,2.27,2.724
				C232.105,474.483,232.954,473.986,233.35,473.37z"/>
			<path style="fill:#112129;" d="M239.692,475.289v-9.77h1.098v3.765c0.572-0.776,1.421-1.245,2.388-1.245
				c1.845,0,3.149,1.465,3.149,3.721c0,2.299-1.304,3.706-3.149,3.706c-0.996,0-1.86-0.513-2.388-1.23v1.055H239.692z
				 M242.9,474.483c1.436,0,2.285-1.157,2.285-2.724c0-1.568-0.85-2.739-2.285-2.739c-0.864,0-1.728,0.527-2.109,1.143v3.208
				C241.171,473.986,242.036,474.483,242.9,474.483z"/>
			<path style="fill:#112129;" d="M247.528,477.061c0.161,0.073,0.425,0.117,0.601,0.117c0.483,0,0.805-0.161,1.055-0.747
				l0.469-1.069l-2.959-7.148h1.187l2.358,5.8l2.344-5.8h1.201l-3.545,8.51c-0.425,1.025-1.143,1.421-2.08,1.435
				c-0.234,0-0.601-0.044-0.806-0.103L247.528,477.061z"/>
		</g>
	</g>
</g>
</svg>
