<?xml version="1.0" encoding="utf-8"?>
<!-- Generator: Adobe Illustrator 27.5.0, SVG Export Plug-In . SVG Version: 6.00 Build 0)  -->
<svg version="1.1" xmlns="http://www.w3.org/2000/svg" xmlns:xlink="http://www.w3.org/1999/xlink" x="0px" y="0px"
	 viewBox="0 0 500 500" style="enable-background:new 0 0 500 500;" xml:space="preserve">
<g id="BACKGROUND">
	<g>
		<rect style="fill:#99DFED;" width="500" height="500"/>
		<g>
			<g style="opacity:0.4;">
				<path style="fill:#FFFFFF;" d="M176.4,127.844c5.99-21.295,31.746-41.005,52.578-33.56
					c6.909-18.785,16.083-37.692,31.992-49.837c17.038-13.008,40.514-16.468,61.098-10.483
					c20.584,5.985,38.101,20.854,48.858,39.396c10.071-7.362,23.681-9.628,35.594-5.926c11.913,3.702,21.841,13.283,25.964,25.057
					c12.758-7.075,28.953-7.557,42.109-1.253c13.156,6.304,22.928,22.231,25.407,36.607H176.4z"/>
				<path style="fill:#FFFFFF;" d="M2.379,127.844c5.989-21.295,31.746-41.005,52.578-33.56
					c6.909-18.785,16.083-37.692,31.992-49.837c17.039-13.008,40.514-16.468,61.098-10.483
					c20.584,5.985,38.101,20.854,48.858,39.396c10.071-7.362,23.681-9.628,35.594-5.926c11.913,3.702,21.841,13.283,25.965,25.057
					c12.758-7.075,28.952-7.557,42.109-1.253c13.156,6.304,22.928,22.231,25.408,36.607H2.379z"/>
				<rect y="127.844" style="fill:#FFFFFF;" width="500" height="372.156"/>
			</g>
			<g style="opacity:0.6;">
				<path style="fill:#FFFFFF;" d="M176.4,252.373c5.99-21.296,31.746-41.005,52.578-33.56
					c6.909-18.785,16.083-37.692,31.992-49.838c17.038-13.008,40.514-16.468,61.098-10.483
					c20.584,5.985,38.101,20.854,48.858,39.396c10.071-7.362,23.681-9.628,35.594-5.925c11.913,3.702,21.841,13.283,25.964,25.057
					c12.758-7.075,28.953-7.557,42.109-1.253c13.156,6.304,22.928,22.231,25.407,36.608H176.4z"/>
				<path style="fill:#FFFFFF;" d="M0,252.373c5.989-21.296,31.746-41.005,52.578-33.56c6.909-18.785,16.083-37.692,31.992-49.838
					c17.038-13.008,40.514-16.468,61.098-10.483c20.584,5.985,38.101,20.854,48.858,39.396c10.071-7.362,23.681-9.628,35.594-5.925
					c11.913,3.702,21.841,13.283,25.964,25.057c12.758-7.075,28.952-7.557,42.109-1.253c13.156,6.304,22.928,22.231,25.408,36.608H0
					z"/>
				<rect y="252.373" style="fill:#FFFFFF;" width="500" height="247.627"/>
			</g>
		</g>
		<g>
			<defs>
				<rect id="SVGID_1_" width="500" height="500"/>
			</defs>
			<clipPath id="SVGID_00000039120814734323599360000017144658277284879492_">
				<use xlink:href="#SVGID_1_"  style="overflow:visible;"/>
			</clipPath>
		</g>
		<g>
			<path style="fill:#FFFFFF;" d="M7.132,350.289c0,1.639,1.329,2.968,2.968,2.968c1.639,0,2.968-1.329,2.968-2.968
				c0-1.639-1.329-2.968-2.968-2.968C8.461,347.322,7.132,348.651,7.132,350.289z"/>
			<g>
				<path style="fill:#FFFFFF;" d="M256.525,92.235c0,2.056,1.667,3.723,3.723,3.723c2.056,0,3.723-1.667,3.723-3.723
					c0-2.056-1.667-3.722-3.723-3.722C258.191,88.513,256.525,90.179,256.525,92.235z"/>
				<path style="fill:#FFFFFF;" d="M183.876,44.662c0,1.454,1.178,2.632,2.632,2.632c1.454,0,2.632-1.179,2.632-2.632
					c0-1.454-1.179-2.632-2.632-2.632C185.054,42.029,183.876,43.208,183.876,44.662z"/>
				<path style="fill:#FFFFFF;" d="M198.681,127.598c0,1.035,0.839,1.874,1.874,1.874c1.035,0,1.874-0.839,1.874-1.874
					c0-1.035-0.839-1.874-1.874-1.874C199.521,125.723,198.681,126.563,198.681,127.598z"/>
			</g>
			<g>
				<path style="fill:#FFFFFF;" d="M241.937,149.073c0,2.056,1.667,3.723,3.722,3.723c2.056,0,3.723-1.667,3.723-3.723
					c0-2.056-1.667-3.723-3.723-3.723C243.603,145.351,241.937,147.018,241.937,149.073z"/>
				<path style="fill:#FFFFFF;" d="M169.288,101.5c0,1.454,1.179,2.632,2.632,2.632c1.454,0,2.632-1.178,2.632-2.632
					c0-1.454-1.179-2.632-2.632-2.632C170.467,98.867,169.288,100.046,169.288,101.5z"/>
				<circle style="fill:#FFFFFF;" cx="185.968" cy="184.436" r="1.874"/>
			</g>
			<g>
				<path style="fill:#FFFFFF;" d="M156.955,64.263c0,2.056,1.667,3.723,3.723,3.723c2.056,0,3.723-1.667,3.723-3.723
					s-1.667-3.722-3.723-3.722C158.622,60.54,156.955,62.207,156.955,64.263z"/>
				<path style="fill:#FFFFFF;" d="M84.306,16.689c0,1.454,1.179,2.632,2.632,2.632c1.454,0,2.632-1.179,2.632-2.632
					s-1.178-2.632-2.632-2.632C85.485,14.057,84.306,15.235,84.306,16.689z"/>
				<circle style="fill:#FFFFFF;" cx="100.986" cy="99.625" r="1.874"/>
			</g>
			<g>
				<path style="fill:#FFFFFF;" d="M290.426,147.451c0,2.056-1.667,3.723-3.723,3.723s-3.723-1.667-3.723-3.723
					c0-2.056,1.667-3.723,3.723-3.723S290.426,145.395,290.426,147.451z"/>
				<path style="fill:#FFFFFF;" d="M363.075,99.877c0,1.454-1.178,2.632-2.632,2.632c-1.454,0-2.632-1.178-2.632-2.632
					c0-1.454,1.178-2.632,2.632-2.632C361.896,97.245,363.075,98.424,363.075,99.877z"/>
				<path style="fill:#FFFFFF;" d="M348.269,182.814c0,1.035-0.839,1.874-1.874,1.874c-1.035,0-1.874-0.839-1.874-1.874
					c0-1.035,0.839-1.874,1.874-1.874C347.43,180.939,348.269,181.778,348.269,182.814z"/>
			</g>
			<g>
				<path style="fill:#FFFFFF;" d="M304.948,191.172c0,2.056-1.667,3.723-3.723,3.723c-2.056,0-3.723-1.667-3.723-3.723
					c0-2.056,1.667-3.722,3.723-3.722C303.281,187.45,304.948,189.117,304.948,191.172z"/>
				<path style="fill:#FFFFFF;" d="M377.596,143.599c0,1.454-1.179,2.632-2.632,2.632c-1.454,0-2.632-1.178-2.632-2.632
					c0-1.454,1.178-2.632,2.632-2.632C376.418,140.967,377.596,142.145,377.596,143.599z"/>
				<path style="fill:#FFFFFF;" d="M362.791,226.535c0,1.035-0.839,1.874-1.874,1.874c-1.035,0-1.874-0.839-1.874-1.874
					c0-1.035,0.839-1.874,1.874-1.874C361.952,224.661,362.791,225.5,362.791,226.535z"/>
			</g>
			<g>
				<path style="fill:#FFFFFF;" d="M468.536,93.947c0,2.056,1.667,3.723,3.723,3.723c2.056,0,3.723-1.667,3.723-3.723
					s-1.667-3.723-3.723-3.723C470.202,90.225,468.536,91.891,468.536,93.947z"/>
				<circle style="fill:#FFFFFF;" cx="398.519" cy="46.373" r="2.632"/>
				<path style="fill:#FFFFFF;" d="M410.693,129.309c0,1.035,0.839,1.874,1.874,1.874c1.035,0,1.874-0.839,1.874-1.874
					c0-1.035-0.839-1.874-1.874-1.874C411.532,127.435,410.693,128.274,410.693,129.309z"/>
			</g>
			<g>
				<path style="fill:#FFFFFF;" d="M454.014,137.668c0,2.056,1.667,3.723,3.722,3.723c2.056,0,3.723-1.667,3.723-3.723
					c0-2.056-1.667-3.722-3.723-3.722C455.681,133.946,454.014,135.613,454.014,137.668z"/>
				<path style="fill:#FFFFFF;" d="M381.365,90.095c0,1.454,1.178,2.632,2.632,2.632c1.454,0,2.632-1.178,2.632-2.632
					c0-1.454-1.179-2.632-2.632-2.632C382.544,87.462,381.365,88.641,381.365,90.095z"/>
				<path style="fill:#FFFFFF;" d="M396.171,173.031c0,1.035,0.839,1.874,1.874,1.874s1.874-0.839,1.874-1.874
					c0-1.035-0.839-1.874-1.874-1.874S396.171,171.996,396.171,173.031z"/>
			</g>
			<g>
				<path style="fill:#FFFFFF;" d="M283.701,9.86c0,2.056,1.667,3.723,3.723,3.723c2.056,0,3.723-1.667,3.723-3.723
					c0-2.056-1.667-3.722-3.723-3.722C285.367,6.138,283.701,7.805,283.701,9.86z"/>
				<path style="fill:#FFFFFF;" d="M225.858,45.223c0,1.035,0.839,1.874,1.874,1.874s1.874-0.839,1.874-1.874
					c0-1.035-0.839-1.874-1.874-1.874S225.858,44.188,225.858,45.223z"/>
			</g>
			<g>
				<path style="fill:#FFFFFF;" d="M241.832,22.261c0,2.056,1.667,3.723,3.722,3.723c2.056,0,3.723-1.667,3.723-3.723
					s-1.667-3.722-3.723-3.722C243.499,18.539,241.832,20.205,241.832,22.261z"/>
				<path style="fill:#FFFFFF;" d="M196.531,6.008c0,1.454,1.179,2.632,2.632,2.632c1.454,0,2.632-1.179,2.632-2.632
					c0-1.454-1.178-2.632-2.632-2.632C197.709,3.376,196.531,4.554,196.531,6.008z"/>
				<path style="fill:#FFFFFF;" d="M211.336,88.944c0,1.035,0.839,1.874,1.874,1.874c1.035,0,1.874-0.839,1.874-1.874
					c0-1.035-0.839-1.874-1.874-1.874C212.175,87.07,211.336,87.909,211.336,88.944z"/>
			</g>
			<g>
				<path style="fill:#FFFFFF;" d="M330.289,30.963c0,1.035,0.839,1.874,1.874,1.874c1.035,0,1.874-0.839,1.874-1.874
					c0-1.035-0.839-1.874-1.874-1.874C331.128,29.089,330.289,29.928,330.289,30.963z"/>
			</g>
			<g>
				<path style="fill:#FFFFFF;" d="M373.61,39.322c0,2.056,1.667,3.722,3.723,3.722c2.056,0,3.723-1.667,3.723-3.722
					c0-2.056-1.667-3.723-3.723-3.723C375.277,35.599,373.61,37.266,373.61,39.322z"/>
				<path style="fill:#FFFFFF;" d="M315.767,74.685c0,1.035,0.839,1.874,1.874,1.874c1.035,0,1.874-0.839,1.874-1.874
					c0-1.035-0.839-1.874-1.874-1.874C316.606,72.81,315.767,73.649,315.767,74.685z"/>
			</g>
			<g>
				<path style="fill:#FFFFFF;" d="M352.012,99.647c0,2.056-1.667,3.723-3.723,3.723c-2.056,0-3.723-1.667-3.723-3.723
					s1.667-3.723,3.723-3.723C350.345,95.924,352.012,97.591,352.012,99.647z"/>
				<path style="fill:#FFFFFF;" d="M424.661,52.073c0,1.454-1.178,2.632-2.632,2.632c-1.454,0-2.632-1.178-2.632-2.632
					c0-1.454,1.178-2.632,2.632-2.632C423.482,49.441,424.661,50.619,424.661,52.073z"/>
				<path style="fill:#FFFFFF;" d="M409.855,135.009c0,1.035-0.839,1.874-1.874,1.874c-1.035,0-1.874-0.839-1.874-1.874
					c0-1.035,0.839-1.874,1.874-1.874C409.016,133.135,409.855,133.974,409.855,135.009z"/>
			</g>
			<g>
				<path style="fill:#FFFFFF;" d="M366.534,143.368c0,2.056-1.667,3.723-3.723,3.723c-2.056,0-3.722-1.667-3.722-3.723
					c0-2.056,1.667-3.723,3.722-3.723C364.867,139.645,366.534,141.312,366.534,143.368z"/>
				<path style="fill:#FFFFFF;" d="M439.182,95.794c0,1.454-1.178,2.632-2.632,2.632c-1.454,0-2.632-1.178-2.632-2.632
					c0-1.454,1.178-2.632,2.632-2.632C438.004,93.162,439.182,94.341,439.182,95.794z"/>
				<path style="fill:#FFFFFF;" d="M424.377,178.73c0,1.035-0.839,1.874-1.874,1.874c-1.035,0-1.874-0.839-1.874-1.874
					c0-1.035,0.839-1.874,1.874-1.874C423.538,176.856,424.377,177.695,424.377,178.73z"/>
			</g>
			<g>
				<path style="fill:#FFFFFF;" d="M472.886,56.179c0,2.056,1.667,3.723,3.723,3.723s3.723-1.667,3.723-3.723
					c0-2.056-1.667-3.722-3.723-3.722S472.886,54.123,472.886,56.179z"/>
				<path style="fill:#FFFFFF;" d="M470.622,24.336c0,1.454,1.178,2.632,2.632,2.632c1.454,0,2.632-1.179,2.632-2.632
					c0-1.454-1.178-2.632-2.632-2.632C471.801,21.704,470.622,22.883,470.622,24.336z"/>
				<path style="fill:#FFFFFF;" d="M472.279,81.505c0,1.035,0.839,1.874,1.874,1.874s1.874-0.839,1.874-1.874
					c0-1.035-0.839-1.874-1.874-1.874S472.279,80.47,472.279,81.505z"/>
			</g>
			<g>
				<path style="fill:#FFFFFF;" d="M490.053,26.275c0,2.056,1.667,3.723,3.722,3.723c2.056,0,3.723-1.667,3.723-3.723
					c0-2.056-1.667-3.722-3.723-3.722C491.72,22.552,490.053,24.219,490.053,26.275z"/>
				<path style="fill:#FFFFFF;" d="M442.951,42.29c0,1.454,1.178,2.632,2.632,2.632c1.454,0,2.632-1.178,2.632-2.632
					c0-1.454-1.178-2.632-2.632-2.632C444.13,39.658,442.951,40.837,442.951,42.29z"/>
				<path style="fill:#FFFFFF;" d="M457.757,125.226c0,1.035,0.839,1.874,1.874,1.874c1.035,0,1.874-0.839,1.874-1.874
					c0-1.035-0.839-1.874-1.874-1.874C458.596,123.352,457.757,124.191,457.757,125.226z"/>
			</g>
			<g>
				<path style="fill:#FFFFFF;" d="M435.196,11.348c0,2.056,1.667,3.723,3.723,3.723c2.056,0,3.723-1.667,3.723-3.723
					c0-2.056-1.667-3.723-3.723-3.723C436.863,7.625,435.196,9.292,435.196,11.348z"/>
				<path style="fill:#FFFFFF;" d="M377.353,26.88c0,1.035,0.839,1.874,1.874,1.874c1.035,0,1.874-0.839,1.874-1.874
					c0-1.035-0.839-1.874-1.874-1.874C378.192,25.006,377.353,25.845,377.353,26.88z"/>
			</g>
			<g>
				<path style="fill:#FFFFFF;" d="M60.97,48.895c0,2.056-1.667,3.723-3.723,3.723s-3.722-1.667-3.722-3.723
					c0-2.056,1.667-3.722,3.722-3.722S60.97,46.839,60.97,48.895z"/>
				<path style="fill:#FFFFFF;" d="M24.552,31.066c0,1.454-1.178,2.632-2.632,2.632c-1.454,0-2.632-1.178-2.632-2.632
					c0-1.454,1.178-2.632,2.632-2.632C23.373,28.434,24.552,29.613,24.552,31.066z"/>
				<path style="fill:#FFFFFF;" d="M9.746,114.003c0,1.035-0.839,1.874-1.874,1.874c-1.035,0-1.874-0.839-1.874-1.874
					c0-1.035,0.839-1.874,1.874-1.874C8.907,112.128,9.746,112.967,9.746,114.003z"/>
			</g>
			<g>
				<path style="fill:#FFFFFF;" d="M75.492,92.616c0,2.056-1.667,3.723-3.723,3.723c-2.056,0-3.723-1.667-3.723-3.723
					s1.667-3.722,3.723-3.722C73.825,88.893,75.492,90.56,75.492,92.616z"/>
				<path style="fill:#FFFFFF;" d="M39.073,74.788c0,1.454-1.179,2.632-2.632,2.632c-1.454,0-2.632-1.178-2.632-2.632
					c0-1.454,1.179-2.632,2.632-2.632C37.895,72.156,39.073,73.334,39.073,74.788z"/>
				<path style="fill:#FFFFFF;" d="M24.268,157.724c0,1.035-0.839,1.874-1.874,1.874c-1.035,0-1.874-0.839-1.874-1.874
					c0-1.035,0.839-1.874,1.874-1.874C23.429,155.85,24.268,156.689,24.268,157.724z"/>
			</g>
			<g>
				<path style="fill:#FFFFFF;" d="M130.013,25.136c0,2.056,1.667,3.722,3.723,3.722c2.056,0,3.723-1.667,3.723-3.722
					s-1.667-3.723-3.723-3.723C131.679,21.413,130.013,23.08,130.013,25.136z"/>
				<path style="fill:#FFFFFF;" d="M67.279,17.223c0,1.454,1.179,2.632,2.632,2.632c1.454,0,2.632-1.179,2.632-2.632
					c0-1.454-1.179-2.632-2.632-2.632C68.458,14.591,67.279,15.769,67.279,17.223z"/>
				<path style="fill:#FFFFFF;" d="M72.17,60.499c0,1.035,0.839,1.874,1.874,1.874c1.035,0,1.874-0.839,1.874-1.874
					c0-1.035-0.839-1.874-1.874-1.874C73.009,58.624,72.17,59.463,72.17,60.499z"/>
			</g>
			<g>
				<path style="fill:#FFFFFF;" d="M115.491,68.857c0,2.056,1.667,3.723,3.722,3.723c2.056,0,3.723-1.667,3.723-3.723
					c0-2.056-1.667-3.723-3.723-3.723C117.158,65.135,115.491,66.801,115.491,68.857z"/>
				<circle style="fill:#FFFFFF;" cx="45.474" cy="21.284" r="2.632"/>
				<path style="fill:#FFFFFF;" d="M57.648,104.22c0,1.035,0.839,1.874,1.874,1.874c1.035,0,1.874-0.839,1.874-1.874
					c0-1.035-0.839-1.874-1.874-1.874C58.487,102.346,57.648,103.185,57.648,104.22z"/>
			</g>
			<g>
				<path style="fill:#FFFFFF;" d="M80.696,24.974c0,2.056,1.667,3.723,3.723,3.723s3.722-1.667,3.722-3.723
					s-1.667-3.722-3.722-3.722S80.696,22.918,80.696,24.974z"/>
				<path style="fill:#FFFFFF;" d="M22.853,60.336c0,1.035,0.839,1.874,1.874,1.874c1.035,0,1.874-0.839,1.874-1.874
					c0-1.035-0.839-1.874-1.874-1.874C23.692,58.462,22.853,59.301,22.853,60.336z"/>
			</g>
			<g>
				<path style="fill:#FFFFFF;" d="M156.093,175.796c0,2.056,1.667,3.723,3.722,3.723c2.056,0,3.723-1.667,3.723-3.723
					c0-2.056-1.667-3.723-3.723-3.723C157.76,172.074,156.093,173.74,156.093,175.796z"/>
				<path style="fill:#FFFFFF;" d="M83.445,128.223c0,1.454,1.178,2.632,2.632,2.632c1.454,0,2.632-1.178,2.632-2.632
					c0-1.454-1.178-2.632-2.632-2.632C84.623,125.59,83.445,126.769,83.445,128.223z"/>
				<path style="fill:#FFFFFF;" d="M98.25,211.159c0,1.035,0.839,1.874,1.874,1.874c1.035,0,1.874-0.839,1.874-1.874
					c0-1.035-0.839-1.874-1.874-1.874C99.089,209.285,98.25,210.124,98.25,211.159z"/>
			</g>
			<g>
				<path style="fill:#FFFFFF;" d="M128.374,271.667c0,2.056,1.667,3.723,3.723,3.723s3.723-1.667,3.723-3.723
					s-1.667-3.723-3.723-3.723S128.374,269.611,128.374,271.667z"/>
				<path style="fill:#FFFFFF;" d="M55.725,224.093c0,1.454,1.179,2.632,2.632,2.632s2.632-1.178,2.632-2.632
					c0-1.454-1.178-2.632-2.632-2.632S55.725,222.639,55.725,224.093z"/>
				<path style="fill:#FFFFFF;" d="M70.53,307.029c0,1.035,0.839,1.874,1.874,1.874c1.035,0,1.874-0.839,1.874-1.874
					c0-1.035-0.839-1.874-1.874-1.874C71.37,305.155,70.53,305.994,70.53,307.029z"/>
			</g>
			<g>
				<path style="fill:#FFFFFF;" d="M141.572,219.518c0,2.056,1.667,3.723,3.723,3.723c2.056,0,3.722-1.667,3.722-3.723
					s-1.667-3.723-3.722-3.723C143.238,215.795,141.572,217.462,141.572,219.518z"/>
				<path style="fill:#FFFFFF;" d="M68.923,171.944c0,1.454,1.179,2.632,2.632,2.632c1.454,0,2.632-1.178,2.632-2.632
					c0-1.454-1.178-2.632-2.632-2.632C70.102,169.312,68.923,170.49,68.923,171.944z"/>
				<path style="fill:#FFFFFF;" d="M83.729,254.88c0,1.035,0.839,1.874,1.874,1.874c1.035,0,1.874-0.839,1.874-1.874
					c0-1.035-0.839-1.874-1.874-1.874C84.568,253.006,83.729,253.845,83.729,254.88z"/>
			</g>
			<g>
				<path style="fill:#FFFFFF;" d="M173.348,242.74c0,2.056-1.667,3.723-3.723,3.723c-2.056,0-3.723-1.667-3.723-3.723
					c0-2.056,1.667-3.723,3.723-3.723C171.681,239.018,173.348,240.684,173.348,242.74z"/>
				<path style="fill:#FFFFFF;" d="M245.996,195.167c0,1.454-1.178,2.632-2.632,2.632c-1.454,0-2.632-1.178-2.632-2.632
					c0-1.454,1.178-2.632,2.632-2.632C244.818,192.535,245.996,193.713,245.996,195.167z"/>
				<path style="fill:#FFFFFF;" d="M231.191,278.103c0,1.035-0.839,1.874-1.874,1.874c-1.035,0-1.874-0.839-1.874-1.874
					c0-1.035,0.839-1.874,1.874-1.874C230.352,276.229,231.191,277.068,231.191,278.103z"/>
			</g>
			<g>
				<path style="fill:#FFFFFF;" d="M187.869,286.462c0,2.056-1.667,3.723-3.723,3.723c-2.056,0-3.723-1.667-3.723-3.723
					c0-2.056,1.667-3.723,3.723-3.723C186.203,282.739,187.869,284.406,187.869,286.462z"/>
				<path style="fill:#FFFFFF;" d="M260.518,238.888c0,1.454-1.178,2.632-2.632,2.632c-1.454,0-2.632-1.178-2.632-2.632
					c0-1.454,1.178-2.632,2.632-2.632C259.34,236.256,260.518,237.434,260.518,238.888z"/>
				<path style="fill:#FFFFFF;" d="M245.713,321.824c0,1.035-0.839,1.874-1.874,1.874s-1.874-0.839-1.874-1.874
					c0-1.035,0.839-1.874,1.874-1.874S245.713,320.789,245.713,321.824z"/>
			</g>
			<g>
				<path style="fill:#FFFFFF;" d="M453.352,215.795c0,2.056,1.667,3.723,3.722,3.723c2.056,0,3.723-1.667,3.723-3.723
					c0-2.056-1.667-3.723-3.723-3.723C455.018,212.073,453.352,213.739,453.352,215.795z"/>
				<path style="fill:#FFFFFF;" d="M424.95,179.791c0,1.454,1.178,2.632,2.632,2.632s2.632-1.178,2.632-2.632
					c0-1.454-1.178-2.632-2.632-2.632S424.95,178.337,424.95,179.791z"/>
				<path style="fill:#FFFFFF;" d="M439.756,262.727c0,1.035,0.839,1.874,1.874,1.874c1.035,0,1.874-0.839,1.874-1.874
					c0-1.035-0.839-1.874-1.874-1.874C440.595,260.853,439.756,261.692,439.756,262.727z"/>
			</g>
			<g>
				<path style="fill:#FFFFFF;" d="M483.078,271.086c0,2.056,1.667,3.723,3.722,3.723c2.056,0,3.723-1.667,3.723-3.723
					c0-2.056-1.667-3.723-3.723-3.723C484.744,267.363,483.078,269.03,483.078,271.086z"/>
				<path style="fill:#FFFFFF;" d="M410.429,223.512c0,1.454,1.178,2.632,2.632,2.632c1.454,0,2.632-1.178,2.632-2.632
					c0-1.454-1.178-2.632-2.632-2.632C411.607,220.88,410.429,222.058,410.429,223.512z"/>
				<path style="fill:#FFFFFF;" d="M425.234,306.448c0,1.035,0.839,1.874,1.874,1.874c1.035,0,1.874-0.839,1.874-1.874
					c0-1.035-0.839-1.874-1.874-1.874C426.073,304.574,425.234,305.413,425.234,306.448z"/>
			</g>
		</g>
		<g>
			<polygon style="fill:#392561;" points="0,346.714 12.809,279.303 25.618,346.714 			"/>
			<polygon style="fill:#392561;" points="25.618,346.714 33.825,303.521 42.032,346.714 			"/>
			<polygon style="fill:#392561;" points="42.032,346.714 59.259,256.05 76.487,346.714 			"/>
		</g>
		<g>
			<polygon style="fill:#392561;" points="402.404,307.147 418.748,221.131 435.092,307.147 			"/>
			<polygon style="fill:#392561;" points="435.092,307.147 445.564,252.033 456.037,307.147 			"/>
			<polygon style="fill:#392561;" points="456.037,307.147 478.018,191.461 500,307.147 			"/>
		</g>
		<g>
			<polygon style="fill:#392561;" points="275.526,345.965 286.96,285.792 298.393,345.965 			"/>
			<polygon style="fill:#392561;" points="298.393,345.965 305.719,307.41 313.045,345.965 			"/>
			<polygon style="fill:#392561;" points="313.045,345.965 328.422,265.036 343.799,345.965 			"/>
		</g>
		<g>
			<path style="fill:#FFFFFF;" d="M492.323,343.257c0,1.653-1.34,2.993-2.993,2.993c-1.653,0-2.993-1.34-2.993-2.993
				c0-1.653,1.34-2.993,2.993-2.993C490.983,340.264,492.323,341.604,492.323,343.257z"/>
			<g>
				<path style="fill:#FFFFFF;" d="M240.798,82.995c0,2.073-1.681,3.754-3.754,3.754s-3.754-1.681-3.754-3.754
					c0-2.074,1.681-3.754,3.754-3.754S240.798,80.922,240.798,82.995z"/>
				<path style="fill:#FFFFFF;" d="M314.068,35.015c0,1.466-1.188,2.655-2.655,2.655c-1.466,0-2.655-1.189-2.655-2.655
					c0-1.466,1.189-2.655,2.655-2.655C312.879,32.36,314.068,33.549,314.068,35.015z"/>
				<path style="fill:#FFFFFF;" d="M299.136,118.66c0,1.044-0.846,1.89-1.89,1.89s-1.89-0.846-1.89-1.89s0.846-1.89,1.89-1.89
					S299.136,117.616,299.136,118.66z"/>
			</g>
			<g>
				<path style="fill:#FFFFFF;" d="M255.51,140.32c0,2.074-1.681,3.754-3.754,3.754c-2.074,0-3.754-1.681-3.754-3.754
					c0-2.073,1.681-3.754,3.754-3.754C253.829,136.565,255.51,138.246,255.51,140.32z"/>
				<path style="fill:#FFFFFF;" d="M328.78,92.339c0,1.466-1.189,2.655-2.655,2.655c-1.466,0-2.655-1.188-2.655-2.655
					c0-1.466,1.188-2.655,2.655-2.655C327.592,89.684,328.78,90.873,328.78,92.339z"/>
				<path style="fill:#FFFFFF;" d="M313.848,175.985c0,1.044-0.846,1.89-1.89,1.89s-1.89-0.846-1.89-1.89
					c0-1.044,0.846-1.89,1.89-1.89S313.848,174.941,313.848,175.985z"/>
			</g>
			<g>
				<circle style="fill:#FFFFFF;" cx="337.465" cy="54.784" r="3.754"/>
				<path style="fill:#FFFFFF;" d="M414.489,6.803c0,1.466-1.189,2.655-2.655,2.655c-1.466,0-2.655-1.189-2.655-2.655
					s1.189-2.655,2.655-2.655C413.301,4.148,414.489,5.337,414.489,6.803z"/>
				<circle style="fill:#FFFFFF;" cx="397.667" cy="90.449" r="1.89"/>
			</g>
			<g>
				<circle style="fill:#FFFFFF;" cx="210.361" cy="138.684" r="3.754"/>
				<path style="fill:#FFFFFF;" d="M133.336,90.703c0,1.466,1.189,2.655,2.655,2.655s2.655-1.188,2.655-2.655
					c0-1.466-1.188-2.655-2.655-2.655S133.336,89.237,133.336,90.703z"/>
				<path style="fill:#FFFFFF;" d="M148.268,174.349c0,1.044,0.846,1.89,1.89,1.89c1.044,0,1.89-0.846,1.89-1.89
					c0-1.044-0.846-1.89-1.89-1.89C149.115,172.458,148.268,173.305,148.268,174.349z"/>
			</g>
			<g>
				<circle style="fill:#FFFFFF;" cx="195.715" cy="182.779" r="3.754"/>
				<path style="fill:#FFFFFF;" d="M118.69,134.798c0,1.466,1.189,2.655,2.655,2.655c1.466,0,2.655-1.189,2.655-2.655
					c0-1.466-1.189-2.655-2.655-2.655C119.879,132.144,118.69,133.332,118.69,134.798z"/>
				<circle style="fill:#FFFFFF;" cx="135.513" cy="218.444" r="1.89"/>
			</g>
			<g>
				<circle style="fill:#FFFFFF;" cx="23.218" cy="84.722" r="3.754"/>
				<path style="fill:#FFFFFF;" d="M100.243,36.741c0,1.466-1.189,2.655-2.655,2.655c-1.466,0-2.655-1.189-2.655-2.655
					c0-1.466,1.188-2.655,2.655-2.655C99.054,34.086,100.243,35.275,100.243,36.741z"/>
				<circle style="fill:#FFFFFF;" cx="83.421" cy="120.387" r="1.89"/>
			</g>
			<g>
				<path style="fill:#FFFFFF;" d="M41.619,128.817c0,2.073-1.681,3.754-3.754,3.754c-2.073,0-3.754-1.681-3.754-3.754
					c0-2.074,1.681-3.754,3.754-3.754C39.938,125.063,41.619,126.744,41.619,128.817z"/>
				<path style="fill:#FFFFFF;" d="M114.889,80.837c0,1.466-1.189,2.655-2.655,2.655c-1.466,0-2.655-1.188-2.655-2.655
					s1.189-2.655,2.655-2.655C113.7,78.182,114.889,79.37,114.889,80.837z"/>
				<circle style="fill:#FFFFFF;" cx="98.066" cy="164.482" r="1.89"/>
			</g>
			<g>
				<path style="fill:#FFFFFF;" d="M213.389,17.916c0,2.073-1.681,3.754-3.754,3.754s-3.754-1.681-3.754-3.754
					c0-2.073,1.681-3.754,3.754-3.754S213.389,15.842,213.389,17.916z"/>
				<path style="fill:#FFFFFF;" d="M271.727,35.581c0,1.044-0.846,1.89-1.89,1.89c-1.044,0-1.89-0.846-1.89-1.89
					c0-1.044,0.846-1.89,1.89-1.89C270.88,33.69,271.727,34.537,271.727,35.581z"/>
			</g>
			<g>
				<path style="fill:#FFFFFF;" d="M255.616,30.423c0,2.073-1.681,3.754-3.754,3.754c-2.074,0-3.754-1.681-3.754-3.754
					s1.681-3.754,3.754-3.754C253.935,26.668,255.616,28.349,255.616,30.423z"/>
				<path style="fill:#FFFFFF;" d="M301.305,14.031c0,1.466-1.189,2.655-2.655,2.655c-1.466,0-2.655-1.189-2.655-2.655
					s1.189-2.655,2.655-2.655C300.116,11.376,301.305,12.564,301.305,14.031z"/>
				<circle style="fill:#FFFFFF;" cx="284.482" cy="79.676" r="1.89"/>
			</g>
			<g>
				<circle style="fill:#FFFFFF;" cx="164.512" cy="21.199" r="1.89"/>
			</g>
			<g>
				<circle style="fill:#FFFFFF;" cx="118.956" cy="29.629" r="3.754"/>
				<circle style="fill:#FFFFFF;" cx="179.158" cy="65.295" r="1.89"/>
			</g>
			<g>
				<path style="fill:#FFFFFF;" d="M342.088,167.271c0,2.074-1.681,3.754-3.754,3.754c-2.074,0-3.754-1.681-3.754-3.754
					c0-2.073,1.681-3.754,3.754-3.754C340.407,163.517,342.088,165.198,342.088,167.271z"/>
				<path style="fill:#FFFFFF;" d="M415.358,119.291c0,1.466-1.189,2.655-2.655,2.655s-2.655-1.189-2.655-2.655
					c0-1.466,1.189-2.655,2.655-2.655S415.358,117.825,415.358,119.291z"/>
				<circle style="fill:#FFFFFF;" cx="398.536" cy="202.936" r="1.89"/>
			</g>
			<g>
				<path style="fill:#FFFFFF;" d="M426.193,135.357c0,2.074-1.681,3.754-3.754,3.754c-2.073,0-3.754-1.681-3.754-3.754
					c0-2.073,1.681-3.754,3.754-3.754C424.512,131.603,426.193,133.284,426.193,135.357z"/>
				<path style="fill:#FFFFFF;" d="M499.463,87.377c0,1.466-1.189,2.655-2.655,2.655c-1.466,0-2.655-1.189-2.655-2.655
					c0-1.466,1.189-2.655,2.655-2.655C498.274,84.722,499.463,85.91,499.463,87.377z"/>
				<circle style="fill:#FFFFFF;" cx="482.64" cy="171.022" r="1.89"/>
			</g>
			<g>
				<circle style="fill:#FFFFFF;" cx="366.291" cy="263.962" r="3.754"/>
				<path style="fill:#FFFFFF;" d="M443.315,215.981c0,1.466-1.189,2.655-2.655,2.655s-2.655-1.189-2.655-2.655
					s1.189-2.655,2.655-2.655S443.315,214.515,443.315,215.981z"/>
				<path style="fill:#FFFFFF;" d="M428.383,299.627c0,1.044-0.846,1.89-1.89,1.89c-1.044,0-1.89-0.846-1.89-1.89
					s0.846-1.89,1.89-1.89C427.537,297.737,428.383,298.583,428.383,299.627z"/>
			</g>
			<g>
				<circle style="fill:#FFFFFF;" cx="352.98" cy="211.367" r="3.754"/>
				<path style="fill:#FFFFFF;" d="M430.004,163.386c0,1.466-1.189,2.655-2.655,2.655c-1.466,0-2.655-1.189-2.655-2.655
					c0-1.466,1.189-2.655,2.655-2.655C428.815,160.731,430.004,161.92,430.004,163.386z"/>
				<path style="fill:#FFFFFF;" d="M415.072,247.032c0,1.044-0.846,1.89-1.89,1.89c-1.044,0-1.89-0.846-1.89-1.89
					s0.846-1.89,1.89-1.89C414.226,245.141,415.072,245.988,415.072,247.032z"/>
			</g>
			<g>
				<circle style="fill:#FFFFFF;" cx="328.44" cy="234.788" r="3.754"/>
				<path style="fill:#FFFFFF;" d="M251.416,186.807c0,1.466,1.189,2.655,2.655,2.655s2.655-1.189,2.655-2.655
					s-1.189-2.655-2.655-2.655S251.416,185.341,251.416,186.807z"/>
				<path style="fill:#FFFFFF;" d="M266.348,270.453c0,1.044,0.846,1.89,1.89,1.89s1.89-0.846,1.89-1.89
					c0-1.044-0.846-1.89-1.89-1.89S266.348,269.409,266.348,270.453z"/>
			</g>
			<g>
				<circle style="fill:#FFFFFF;" cx="313.794" cy="278.884" r="3.754"/>
				<path style="fill:#FFFFFF;" d="M236.77,230.903c0,1.466,1.189,2.655,2.655,2.655s2.655-1.189,2.655-2.655
					c0-1.466-1.189-2.655-2.655-2.655S236.77,229.437,236.77,230.903z"/>
				<path style="fill:#FFFFFF;" d="M251.702,314.548c0,1.044,0.846,1.89,1.89,1.89c1.044,0,1.89-0.846,1.89-1.89
					c0-1.044-0.846-1.89-1.89-1.89C252.548,312.658,251.702,313.505,251.702,314.548z"/>
			</g>
			<g>
				<circle style="fill:#FFFFFF;" cx="38.532" cy="207.612" r="3.754"/>
				<path style="fill:#FFFFFF;" d="M70.931,171.3c0,1.466-1.189,2.655-2.655,2.655s-2.655-1.189-2.655-2.655
					s1.189-2.655,2.655-2.655S70.931,169.834,70.931,171.3z"/>
				<path style="fill:#FFFFFF;" d="M55.999,254.946c0,1.044-0.846,1.89-1.89,1.89c-1.044,0-1.89-0.846-1.89-1.89
					c0-1.044,0.846-1.89,1.89-1.89C55.152,253.055,55.999,253.902,55.999,254.946z"/>
			</g>
			<g>
				<circle style="fill:#FFFFFF;" cx="8.552" cy="263.376" r="3.754"/>
				<path style="fill:#FFFFFF;" d="M85.577,215.395c0,1.466-1.189,2.655-2.655,2.655c-1.466,0-2.655-1.189-2.655-2.655
					s1.188-2.655,2.655-2.655C84.388,212.74,85.577,213.929,85.577,215.395z"/>
				<path style="fill:#FFFFFF;" d="M70.645,299.041c0,1.044-0.846,1.89-1.89,1.89c-1.044,0-1.89-0.846-1.89-1.89
					c0-1.044,0.846-1.89,1.89-1.89C69.798,297.151,70.645,297.997,70.645,299.041z"/>
			</g>
		</g>
		<g>
			<path style="fill:#CCEFF6;" d="M51.373,344.105L0,338.422V500h500l0,0C367.091,415.541,212.956,361.98,51.373,344.105z"/>
		</g>
		<g>
			<path style="fill:#FFFFFF;" d="M448.627,301.14L500,293.891V500H0l0,0C132.909,392.264,287.044,323.942,448.627,301.14z"/>
		</g>
	</g>
</g>
<g id="OBJECTS">
	<g>
		<g>
			<g>
				<path style="fill:#8782D9;" d="M107.494,30.304c-10.07,1.181-20.43,3.517-29.569,8.035c-2.782,14.892-6.826,29.513-12.063,43.63
					c4.734,2.891,9.807,5.569,12.696,10.302c0.019,0.031,0.034,0.063,0.052,0.094c13.475-19.873,25.502-40.866,35.939-62.726
					C112.193,29.815,109.84,30.029,107.494,30.304z"/>
				<path style="fill:#6963D0;" d="M60.636,51.925c-4.308,5.402-7.482,12.895-5.102,19.521c1.772,4.932,5.902,7.821,10.328,10.523
					c5.237-14.117,9.281-28.738,12.063-43.63C71.334,41.598,65.374,45.984,60.636,51.925z"/>
				<path style="fill:#6963D0;" d="M158.446,32.622c-14.374-3.211-29.212-4.077-43.896-2.983
					c-10.437,21.86-22.464,42.854-35.939,62.726c1.772,2.949,2.548,6.467,2.887,9.954c0.118,1.209,0.188,2.429,0.225,3.656
					C110.849,86.269,136.882,61.362,158.446,32.622z"/>
				<path style="fill:#8782D9;" d="M154.282,89.083c17.542-10.051,33.722-22.791,47.962-37.652c-0.61-0.402-1.199-0.789-1.753-1.153
					c-8.314-5.472-17.237-9.883-26.498-13.186c-5.099-1.818-10.293-3.296-15.547-4.47c-21.564,28.74-47.597,53.647-76.724,73.353
					c0.15,5.022-0.273,10.165-0.41,15.207c9.478-3.738,18.952-7.489,28.393-11.332C124.864,103.681,139.986,97.274,154.282,89.083z"
					/>
				<path style="fill:#6963D0;" d="M202.244,51.431c-14.24,14.86-30.42,27.6-47.962,37.652
					c-14.296,8.191-29.417,14.598-44.576,20.768c-9.441,3.843-18.915,7.594-28.393,11.332c-0.188,6.933,0.167,13.673,3.303,19.639
					c3.192,6.072,8.875,10.267,14.907,12.904c9.807,4.287,20.772,4.909,31.263,3.314c10.491-1.595,20.593-5.318,30.444-9.49
					c13.752-5.825,27.272-12.635,39.098-22.133c11.565-9.289,26.224-24.605,28.318-40.797
					C230.47,70.503,212.639,58.28,202.244,51.431z"/>
			</g>
			<path style="fill:#BF6A48;" d="M244.731,113.084c0,0,11.247,36.925,16.977,40.957s15.916,5.73,16.765,15.279
				c0.849,9.549-10.611,16.553-10.611,16.553s3.608,35.651-11.035,46.898c-14.642,11.247-35.651,5.73-35.651,5.73l5.305,15.916
				l-44.352,1.485l-4.456-127.114L244.731,113.084z"/>
			<path style="fill:#392561;" d="M105.168,174.305c-4.139,4.696-5.259,11.369-4.999,17.624c0.136,3.273,0.641,6.643,2.384,9.417
				c1.287,2.049,3.174,3.648,5.134,5.068c2.353,1.704,4.935,3.229,7.801,3.703c-0.755,5.078,1.011,11.603,4.712,15.161
				s9.166,5.183,14.21,4.228c-0.143,4.427,1.584,9.371,5.096,12.069c3.512,2.699,7.987,3.936,12.412,4.127
				c3.3,3.831,8.644,7.085,13.567,8.243c1.991,0.468,4.068,0.681,6.087,0.353c5.124-0.832,9.018-4.901,12.509-8.742
				c5.22,1.219,10.145,0.696,14.023-3.005c3.878-3.701,5.725-9.411,4.75-14.682c6.767-1.545,11.617-6.931,13.701-13.552
				c2.084-6.621,0.86-14.077-2.727-20.02c-0.14-9.021-3.164-18.494-7.764-26.256c5.44-3.954,8.385-11.024,8.375-17.75
				c-0.01-6.546-2.986-12.676-5.897-18.539c-25.085,21.496-57.154,35.894-89.605,42.077
				C114.557,174.663,109.457,175.525,105.168,174.305z"/>
			<path style="fill:#392561;" d="M253.665,110.058c4.974-5.068,11.346-8.75,18.221-10.527c3.956-1.023,8.948-1.051,11.236,2.335
				c1.309,1.937,1.297,4.555,0.422,6.723c-0.875,2.168-2.508,3.946-4.279,5.472c-3.843,3.311-8.508,5.661-13.456,6.779
				c2.149-0.615,4.392-1.099,6.608-0.807c2.216,0.292,4.42,1.486,5.412,3.489c1.071,2.162,0.518,4.868-0.877,6.835
				c-1.396,1.968-3.507,3.309-5.674,4.369c-7.296,3.572-15.872,4.453-23.742,2.439s-14.969-6.906-19.652-13.544"/>
			<path style="fill:#A44B39;" d="M207.01,162.442c-1.082,1-1.536,2.498-1.841,3.94c-1.509,7.136-0.376,14.823,3.246,21.153
				c1.517,2.651,3.521,5.12,6.199,6.588c1.793,0.982,4.297,1.362,5.679-0.145c0.987-1.076,1.009-2.768,0.483-4.13
				c-0.526-1.363-1.503-2.492-2.388-3.654c-3.215-4.219-5.32-9.165-6.295-14.368C211.867,170.625,209.589,160.059,207.01,162.442z"
				/>
			<path style="fill:#392561;" d="M250.223,158.117c0.709,2.648-0.164,5.182-1.949,5.66c-1.786,0.478-3.808-1.281-4.518-3.928
				c-0.709-2.648,0.164-5.182,1.949-5.66C247.491,153.711,249.514,155.469,250.223,158.117z"/>
			<g>
				<path style="fill:#392561;" d="M252.548,178.547c-0.37,0.786-0.666,1.587-0.83,2.414c-0.178,0.821-0.263,1.654-0.245,2.48
					c0.02,1.652,0.442,3.281,1.238,4.698l-0.672-0.176c2.42-1.387,4.999-2.514,7.704-3.192c-2.447,1.33-4.86,2.623-7.208,4.037
					l-0.416,0.251l-0.256-0.427c-0.938-1.567-1.331-3.422-1.219-5.212c0.064-0.896,0.25-1.78,0.569-2.61
					C251.546,179.987,251.975,179.204,252.548,178.547z"/>
			</g>
			<g>
				<path style="fill:#392561;" d="M254.603,141.333c-2.506,0.238-5.034,0.735-7.472,1.505c-2.436,0.773-4.795,1.82-6.902,3.24
					c-4.253,2.871-7.826,7.277-9.347,12.665c0.17-5.603,2.64-11.257,6.655-15.71c2.051-2.245,4.475-4.103,7.054-5.666
					c2.587-1.561,5.339-2.833,8.23-3.833L254.603,141.333z"/>
			</g>
			<g>
				<path style="fill:#392561;" d="M266.716,209.776c-7.631-2.069-14.199-7.187-18.019-13.795
					c4.382,6.251,11.213,10.551,18.459,11.844L266.716,209.776z"/>
			</g>
			<g>
				<path style="fill:#392561;" d="M222.247,243.005c-1.35-3.151-2.231-6.479-2.843-9.845c-0.583-3.371-0.897-6.799-0.708-10.223
					c0.6,3.372,1.088,6.716,1.692,10.048C220.963,236.324,221.652,239.632,222.247,243.005z"/>
			</g>
			<path style="fill:#FFBA00;" d="M251.779,98.611c-8.025-4.205-7.358-16.641-14.213-22.565c-3.382-2.923-8.186-3.773-12.618-3.183
				c-4.431,0.59-8.58,2.468-12.571,4.481c-10.255,5.174-19.949,11.382-29.923,17.079c-26.257,14.999-54.399,26.424-82.855,36.655
				c-5.648,2.031-11.377,4.047-16.388,7.35c-3.109,2.049-6.137,5.075-6.075,8.797c0.053,3.156,2.295,5.773,4.131,8.34
				c4.064,5.681,6.598,12.445,7.269,19.398c0.23,2.385,0.272,4.887,1.425,6.987c1.785,3.253,5.732,4.643,9.41,5.125
				c9.064,1.188,18.139-1.466,26.914-4.027c22.272-6.5,44.72-12.607,66.226-21.313c21.506-8.705,42.193-20.149,59-36.144
				c2.256-2.147,4.484-4.438,5.754-7.281C259.124,114.151,261.746,107.196,251.779,98.611z"/>
			<circle style="fill:#FFBA00;" cx="48.4" cy="70.388" r="14"/>
			<g style="opacity:0.32;">
				<g>
					<path style="fill:#FFFFFF;" d="M191.426,167.156c-3.967,3.072-6.038,7.882-6.183,12.596c-0.093,2.376,0.321,4.747,1.027,7.021
						c0.735,2.268,1.785,4.444,3.084,6.465l0.524,0.815l-0.799,0.527c-1.403,0.925-2.679,2.044-3.665,3.395
						c-0.979,1.349-1.721,2.884-2.091,4.542c-0.781,3.31-0.283,6.968,1.41,10.137c-2.297-2.787-3.338-6.665-2.794-10.397
						c0.285-1.863,0.958-3.704,2.036-5.288c1.063-1.59,2.45-2.96,4.034-4.007l-0.275,1.342c-1.433-2.133-2.59-4.47-3.327-6.955
						c-0.764-2.474-1.069-5.106-0.859-7.7c0.242-2.6,1.051-5.131,2.398-7.327C187.284,170.131,189.171,168.258,191.426,167.156z"/>
				</g>
				<g>
					<path style="fill:#FFFFFF;" d="M117.422,192.349c1.939-0.799,4.138-1.045,6.282-0.769c2.147,0.264,4.265,1.056,6.078,2.333
						c1.827,1.266,3.3,3.008,4.337,4.968c1.026,1.965,1.611,4.176,1.624,6.402l-1.243-0.846c1.229-0.404,2.538-0.554,3.799-0.407
						c1.259,0.15,2.475,0.521,3.561,1.112c2.176,1.156,3.899,3.07,4.715,5.273c-1.348-1.913-3.202-3.335-5.244-4.12
						c-1.024-0.379-2.085-0.624-3.145-0.637c-1.055-0.02-2.099,0.138-3.056,0.525l-1.17,0.473l-0.073-1.319
						c-0.107-1.926-0.639-3.824-1.528-5.54c-0.878-1.722-2.127-3.252-3.632-4.468c-1.518-1.206-3.314-2.087-5.242-2.606
						C121.553,192.217,119.497,192.075,117.422,192.349z"/>
				</g>
				<g>
					<path style="fill:#FFFFFF;" d="M146.572,189.444c2.325-1.889,5.767-2.439,8.796-1.456c1.529,0.472,2.906,1.365,4.056,2.462
						c1.13,1.123,2.035,2.485,2.547,3.997l-1.217-0.458c1.331-0.616,2.856-0.899,4.293-0.717c1.441,0.163,2.764,0.722,3.888,1.498
						c-1.338-0.287-2.656-0.455-3.909-0.342c-1.255,0.118-2.413,0.516-3.471,1.127l-0.788,0.455l-0.43-0.914
						c-0.565-1.203-1.339-2.308-2.301-3.219c-0.941-0.937-2.076-1.654-3.291-2.184C152.285,188.671,149.398,188.57,146.572,189.444z
						"/>
				</g>
				<g>
					<path style="fill:#FFFFFF;" d="M151.855,224.165c0.408,1.904,1.247,3.641,2.411,5.08c1.162,1.434,2.633,2.592,4.278,3.27
						c1.632,0.715,3.451,0.923,5.211,0.771c1.761-0.177,3.478-0.774,4.929-1.751l0.746-0.502l0.562,0.679
						c0.867,1.048,1.868,1.992,3.005,2.691c1.14,0.684,2.408,1.139,3.727,1.146c2.709,0.04,5.499-1.169,7.489-3.338
						c-1.402,2.615-4.279,4.485-7.43,4.768c-1.616,0.143-3.267-0.265-4.662-1.031c-1.411-0.751-2.628-1.792-3.629-2.992l1.308,0.177
						c-1.724,1.24-3.79,1.94-5.879,2.09c-2.09,0.177-4.219-0.252-6.092-1.184C154.103,232.12,151.696,228.092,151.855,224.165z"/>
				</g>
			</g>
			<g style="opacity:0.21;">
				<g>
					<path style="fill:#392561;" d="M87.451,136.186c-1.179,2.069-1.647,4.47-1.387,6.797c0.185,2.334,0.919,4.595,1.895,6.717
						c1.987,4.242,5.126,7.877,7.547,12.029c1.19,2.086,2.191,4.33,2.705,6.717c0.508,2.386,0.575,4.793,0.675,7.153
						c0.108,2.358,0.33,4.713,1.203,6.891c0.797,2.179,2.276,4.199,4.448,5.225c-2.274-0.814-3.933-2.851-4.901-5.036
						c-0.999-2.217-1.317-4.662-1.518-7.028c-0.221-2.373-0.266-4.745-0.796-7.007c-0.517-2.261-1.5-4.395-2.682-6.416
						c-1.158-2.041-2.507-3.987-3.823-5.972c-1.308-1.98-2.633-4.009-3.559-6.245c-0.919-2.223-1.593-4.579-1.682-6.999
						C85.472,140.605,86.077,138.135,87.451,136.186z"/>
				</g>
				<g>
					<path style="fill:#392561;" d="M97.056,132.256c-0.303,2.407-0.187,4.842,0.381,7.177c0.504,2.348,1.392,4.596,2.419,6.763
						c2.074,4.341,4.843,8.313,7.335,12.501c2.409,4.198,4.602,8.76,5.046,13.708c0.232,2.437,0.208,4.861,0.733,7.194
						c0.497,2.306,1.622,4.616,3.691,5.945c-1.083-0.556-1.987-1.443-2.662-2.468c-0.681-1.025-1.171-2.172-1.504-3.358
						c-0.64-2.389-0.701-4.854-1.021-7.225c-0.584-4.761-2.689-9.164-5.144-13.292c-2.387-4.18-5.203-8.191-7.168-12.685
						c-0.961-2.246-1.787-4.57-2.201-6.987C96.542,137.118,96.529,134.627,97.056,132.256z"/>
				</g>
				<g>
					<path style="fill:#392561;" d="M109.75,126.826c0.673,5.017,2.338,9.865,4.94,14.148c2.572,4.305,5.827,8.256,8.017,12.937
						c1.094,2.335,1.728,4.889,2.074,7.411c0.357,2.53,0.551,5.052,0.885,7.538c0.333,2.481,0.959,4.924,2.099,7.15
						c1.105,2.225,2.824,4.206,5.12,5.313c-2.396-0.898-4.275-2.872-5.551-5.08c-1.263-2.241-1.997-4.751-2.428-7.263
						c-0.46-2.514-0.627-5.047-1.025-7.523c-0.372-2.482-1.005-4.887-2.083-7.133c-2.035-4.558-5.293-8.507-7.772-12.968
						c-1.25-2.227-2.257-4.595-2.991-7.034C110.338,131.873,109.874,129.357,109.75,126.826z"/>
				</g>
				<g>
					<path style="fill:#392561;" d="M123.656,121.713c0.961,4.94,3.165,9.469,5.601,13.817c2.451,4.345,5.021,8.692,7.057,13.308
						c2.009,4.62,3.661,9.38,5.068,14.199c1.397,4.824,2.589,9.695,3.672,14.591l-2.186-7.194c-0.714-2.4-1.439-4.796-2.221-7.171
						c-1.553-4.752-3.186-9.479-5.246-14.021c-0.995-2.286-2.077-4.528-3.257-6.729c-1.166-2.208-2.426-4.376-3.561-6.62
						c-1.143-2.237-2.248-4.506-3.129-6.868C124.604,126.655,123.925,124.21,123.656,121.713z"/>
				</g>
				<g>
					<path style="fill:#392561;" d="M136.244,117.169c2.607,4.286,5.118,8.631,7.447,13.083c2.333,4.449,4.415,9.04,6.169,13.765
						c1.705,4.748,2.962,9.634,4.044,14.531c1.069,4.902,2.106,9.805,3.044,14.735c-0.679-2.415-1.296-4.846-1.946-7.268
						l-1.847-7.289c-1.235-4.853-2.475-9.701-4.234-14.368c-1.658-4.706-3.738-9.258-5.914-13.762
						C140.83,126.09,138.491,121.655,136.244,117.169z"/>
				</g>
				<g>
					<path style="fill:#392561;" d="M149.652,110.488c3.255,4.154,6.18,8.568,8.828,13.144c2.651,4.576,4.96,9.346,7.034,14.212
						c2,4.897,3.761,9.896,5.15,14.998l0.977,3.842l0.863,3.867l0.709,3.897l0.575,3.916l-0.835-3.865l-0.927-3.839l-0.997-3.818
						l-1.104-3.787c-1.533-5.028-3.274-9.993-5.332-14.827c-1.984-4.865-4.289-9.594-6.781-14.223
						C155.318,119.376,152.571,114.881,149.652,110.488z"/>
				</g>
				<g>
					<path style="fill:#392561;" d="M164.045,103.676c1.875,1.987,3.52,4.188,5.018,6.481c1.473,2.311,2.766,4.736,3.927,7.219
						c2.317,4.977,3.989,10.215,5.507,15.463c1.432,5.276,2.768,10.571,3.916,15.912c0.566,2.672,1.106,5.349,1.61,8.032
						c0.471,2.69,0.947,5.377,1.33,8.081l-1.81-7.981c-0.601-2.659-1.224-5.313-1.879-7.958c-1.3-5.292-2.627-10.58-4.128-15.814
						c-1.432-5.25-3.103-10.433-5.245-15.422C170.153,112.704,167.471,107.932,164.045,103.676z"/>
				</g>
				<g>
					<path style="fill:#392561;" d="M175.671,99.606c3.099,4.354,5.919,8.907,8.522,13.58c2.607,4.674,4.932,9.501,7.091,14.399
						c2.085,4.93,3.999,9.935,5.614,15.036l1.161,3.841l1.076,3.864l0.951,3.895l0.846,3.917l-1.103-3.85l-1.166-3.828l-1.208-3.812
						l-1.287-3.784c-1.759-5.029-3.656-10.01-5.801-14.884c-2.072-4.906-4.398-9.701-6.849-14.432
						C181.067,108.818,178.424,104.184,175.671,99.606z"/>
				</g>
				<g>
					<path style="fill:#392561;" d="M182.975,94.153c2.055,1.844,3.921,3.896,5.669,6.042c1.724,2.167,3.297,4.453,4.748,6.813
						c2.893,4.732,5.197,9.796,7.215,14.947c1.943,5.183,3.607,10.456,5.121,15.761l4.445,15.937
						c-0.96-2.587-1.813-5.212-2.685-7.829l-2.497-7.886c-1.664-5.253-3.315-10.507-5.317-15.626
						c-1.926-5.144-4.219-10.149-6.941-14.914C190.011,102.636,186.783,98.148,182.975,94.153z"/>
				</g>
				<g>
					<path style="fill:#392561;" d="M195.242,86.226l2.768,3.126l2.591,3.281l2.397,3.428l2.241,3.535
						c2.881,4.784,5.283,9.839,7.45,14.975c2.093,5.17,3.95,10.428,5.584,15.75c0.804,2.665,1.586,5.335,2.34,8.012
						c0.715,2.689,1.454,5.369,2.121,8.07l-2.59-7.929c-0.848-2.646-1.712-5.287-2.602-7.917
						c-1.781-5.259-3.623-10.496-5.775-15.604c-2.078-5.138-4.473-10.143-7.189-14.971C201.86,95.154,198.752,90.542,195.242,86.226
						z"/>
				</g>
				<g>
					<path style="fill:#392561;" d="M208.845,78.697c2.789,4.82,5.32,9.79,7.665,14.846c2.348,5.056,4.444,10.227,6.409,15.444
						c1.89,5.245,3.645,10.541,5.139,15.911l1.078,4.039l1.007,4.055c0.606,2.72,1.208,5.439,1.707,8.178l-1.067-4.036l-1.115-4.02
						l-1.142-4.01l-1.207-3.99c-1.642-5.308-3.382-10.585-5.338-15.783c-1.88-5.227-3.981-10.37-6.171-15.477
						C213.618,88.749,211.269,83.709,208.845,78.697z"/>
				</g>
				<g>
					<path style="fill:#392561;" d="M222.586,73.575c1.525,4.884,3.149,9.727,4.961,14.498c1.82,4.767,3.758,9.487,5.938,14.098
						c1.067,2.316,2.172,4.614,3.327,6.887c1.152,2.274,2.394,4.503,3.57,6.778c1.183,2.27,2.344,4.56,3.365,6.916
						c0.986,2.369,1.854,4.797,2.391,7.302c-0.756-2.445-1.708-4.814-2.838-7.099c-1.103-2.297-2.332-4.531-3.594-6.751
						c-2.551-4.426-4.943-8.977-7.128-13.613c-2.116-4.67-4.078-9.412-5.752-14.257c-0.825-2.426-1.605-4.867-2.331-7.322
						C223.812,78.544,223.144,76.072,222.586,73.575z"/>
				</g>
				<g>
					<path style="fill:#392561;" d="M233.325,73.675c1.087,4.392,2.34,8.73,3.888,12.961c1.532,4.235,3.292,8.386,5.348,12.388
						c1.005,2.012,2.073,3.993,3.204,5.939c1.128,1.951,2.346,3.863,3.397,5.882c1.065,2.007,2.045,4.08,2.71,6.269
						c0.661,2.183,0.962,4.493,0.738,6.747c-0.004-2.263-0.4-4.5-1.203-6.593c-0.745-2.112-1.783-4.109-2.917-6.048l-3.507-5.792
						c-1.166-1.948-2.275-3.932-3.313-5.953c-2.001-4.077-3.792-8.266-5.18-12.589c-0.69-2.162-1.328-4.34-1.859-6.544
						C234.124,78.131,233.657,75.914,233.325,73.675z"/>
				</g>
			</g>
			<path style="fill:#FFBA00;" d="M98.313,302.947c10.93-23.945,30.035-44.41,54.006-55.282
				c23.971-10.873,52.728-11.599,76.497-0.29c16.727,7.959,30.417,21.343,41.194,36.409c10.777,15.067,18.861,31.861,26.678,48.655
				L98.313,302.947z"/>
			<g style="opacity:0.29;">
				<g>
					<path style="fill:#392561;" d="M132.439,259.824c-1.124,2.162-2.264,4.301-3.343,6.468c-1.069,2.172-2.131,4.344-3.119,6.55
						c-1.009,2.197-1.944,4.426-2.874,6.661c-0.463,1.118-0.907,2.246-1.342,3.378l-1.326,3.397c0.239-1.196,0.558-2.37,0.861-3.552
						c0.342-1.169,0.707-2.332,1.086-3.491c0.767-2.316,1.687-4.579,2.685-6.805c1.02-2.216,2.117-4.399,3.355-6.501
						C129.65,263.822,130.965,261.767,132.439,259.824z"/>
				</g>
				<g>
					<path style="fill:#392561;" d="M149.298,249.792c-1.217,3.135-2.398,6.271-3.462,9.446c-1.052,3.178-2.045,6.372-2.903,9.604
						c-0.881,3.226-1.628,6.486-2.314,9.762c-0.339,1.639-0.646,3.286-0.93,4.938l-0.43,2.48c-0.121,0.83-0.254,1.659-0.397,2.489
						c0.052-1.682,0.199-3.357,0.341-5.035c0.187-1.672,0.409-3.341,0.658-5.008c0.512-3.331,1.24-6.627,2.107-9.885
						c0.889-3.251,1.916-6.467,3.148-9.604C146.337,255.838,147.705,252.756,149.298,249.792z"/>
				</g>
				<g>
					<path style="fill:#392561;" d="M165.79,243.095c-0.883,3.491-1.743,6.978-2.493,10.487c-0.738,3.511-1.425,7.03-1.986,10.57
						c-0.584,3.537-1.042,7.093-1.449,10.657c-0.199,1.783-0.368,3.57-0.517,5.36l-0.229,2.686
						c-0.055,0.897-0.123,1.794-0.199,2.692c-0.08-1.8-0.067-3.601-0.062-5.404c0.05-1.801,0.133-3.602,0.24-5.402
						c0.228-3.6,0.663-7.186,1.228-10.749c0.589-3.56,1.307-7.099,2.227-10.587C163.461,249.916,164.512,246.464,165.79,243.095z"/>
				</g>
				<g>
					<path style="fill:#392561;" d="M180.319,238.957l-2.441,42.494c-0.096-1.775-0.118-3.551-0.166-5.327l0.004-5.328
						c0.027-3.553,0.174-7.103,0.367-10.65c0.216-3.546,0.476-7.089,0.857-10.622C179.309,245.991,179.738,242.464,180.319,238.957z
						"/>
				</g>
				<g>
					<path style="fill:#392561;" d="M195.373,238.924c0.437,4.025,0.73,8.06,0.969,12.099c0.242,4.039,0.358,8.083,0.488,12.127
						c0.049,4.045,0.105,8.091,0.041,12.136l-0.143,6.067c-0.094,2.022-0.162,4.043-0.302,6.063
						c-0.087-2.023-0.116-4.044-0.188-6.065l-0.137-6.061l-0.27-12.118l-0.255-12.118
						C195.497,247.013,195.398,242.972,195.373,238.924z"/>
				</g>
				<g>
					<path style="fill:#392561;" d="M211.818,242.996c0.754,3.783,1.369,7.588,1.936,11.4c0.569,3.812,1.019,7.64,1.485,11.466
						c0.386,3.835,0.784,7.668,1.067,11.512l0.381,5.769c0.082,1.927,0.191,3.85,0.229,5.779c-0.264-1.911-0.47-3.826-0.717-5.737
						l-0.658-5.738l-1.294-11.475l-1.252-11.48C212.587,250.664,212.164,246.837,211.818,242.996z"/>
				</g>
				<g>
					<path style="fill:#392561;" d="M231.415,250.08c1.319,3.683,2.482,7.418,3.577,11.172c1.097,3.754,2.056,7.546,3.009,11.339
						c0.875,3.812,1.739,7.627,2.468,11.469l1.034,5.774c0.293,1.934,0.609,3.863,0.849,5.805l-2.635-11.42
						c-0.883-3.802-1.738-7.609-2.686-11.395c-0.87-3.804-1.841-7.583-2.777-11.373L231.415,250.08z"/>
				</g>
				<g>
					<path style="fill:#392561;" d="M250.397,262.744c1.885,3.316,3.548,6.757,5.063,10.262c1.518,3.505,2.82,7.1,4.033,10.723
						c1.135,3.648,2.176,7.327,2.994,11.058c0.397,1.868,0.767,3.74,1.102,5.619c0.29,1.887,0.584,3.771,0.784,5.668
						c-0.215-0.93-0.422-1.86-0.616-2.791l-0.648-2.78c-0.431-1.853-0.884-3.698-1.369-5.535c-0.969-3.673-1.994-7.331-3.197-10.932
						c-1.126-3.626-2.433-7.192-3.791-10.74C253.391,269.747,251.913,266.243,250.397,262.744z"/>
				</g>
			</g>
			<g>
				<path style="fill:#6963D0;" d="M20.267,500c0,0,21.33-129.652,51.191-175.359c29.862-45.707,84.71-52.41,116.399-51.191
					c31.69,1.219,70.083,13.407,91.413,30.471c21.33,17.064,46.316,54.239,46.316,54.239l11.579-57.895l65.817-6.094
					c0,0,1.219,88.975-16.454,132.854c-17.673,43.878-53.629,45.097-53.629,45.097L337.776,500H20.267z"/>
			</g>
			<path style="fill:#BF6A48;" d="M393.198,250.702c0,0-8.235-55.501-12.549-65.477c-4.314-9.976-40.566,19.102-40.566,19.102
				l14.02,15.638l-3.775,32.894c0,0,7.28,4.584,22.918,4.044C388.884,256.364,393.198,250.702,393.198,250.702z"/>
			<g>
				<path style="fill:#2D2537;" d="M301.553,206.712V93.285c0-2.317,1.879-4.196,4.196-4.196h55.043
					c2.317,0,4.196,1.879,4.196,4.196v113.428c0,2.317-1.879,4.196-4.196,4.196H305.75
					C303.432,210.908,301.553,209.03,301.553,206.712z"/>
				<path style="fill:#6963D0;" d="M297.733,206.712V93.285c0-2.317,1.879-4.196,4.196-4.196h55.043
					c2.318,0,4.196,1.879,4.196,4.196v113.428c0,2.317-1.879,4.196-4.196,4.196h-55.043
					C299.612,210.908,297.733,209.03,297.733,206.712z"/>
				<g>
					<defs>
						<path id="SVGID_00000142891140266313595370000006013883169466190523_" d="M302.673,202.955V97.042
							c0-1.275,1.034-2.309,2.309-2.309h48.939c1.275,0,2.309,1.034,2.309,2.309v105.914c0,1.275-1.034,2.309-2.309,2.309h-48.939
							C303.707,205.264,302.673,204.231,302.673,202.955z"/>
					</defs>
					<clipPath id="SVGID_00000150801224224346029140000010395272592111679123_">
						<use xlink:href="#SVGID_00000142891140266313595370000006013883169466190523_"  style="overflow:visible;"/>
					</clipPath>
					
						<rect x="253.26" y="113.053" transform="matrix(-1.836970e-16 1 -1 -1.836970e-16 478.0728 -171.4857)" style="clip-path:url(#SVGID_00000150801224224346029140000010395272592111679123_);fill:#FFFFFF;" width="143.039" height="80.481"/>
				</g>
				<path style="fill:#E1DCA5;" d="M329.451,93.181c-0.695,0-1.259-0.563-1.259-1.258s0.563-1.258,1.259-1.258
					c0.695,0,1.258,0.563,1.258,1.258S330.146,93.181,329.451,93.181z"/>
				<path style="fill:none;stroke:#E1DCA5;stroke-width:0.1811;stroke-miterlimit:10;" d="M329.451,93.702
					c-0.983,0-1.78-0.797-1.78-1.78s0.797-1.78,1.78-1.78s1.78,0.797,1.78,1.78S330.434,93.702,329.451,93.702z"/>
				<g>
					<defs>
						<path id="SVGID_00000000934238931848712450000001104840554069048503_" d="M302.673,202.955V97.042
							c0-1.275,1.034-2.309,2.309-2.309h48.939c1.275,0,2.309,1.034,2.309,2.309v105.914c0,1.275-1.034,2.309-2.309,2.309h-48.939
							C303.707,205.264,302.673,204.231,302.673,202.955z"/>
					</defs>
					<clipPath id="SVGID_00000092420433493107203230000007123549902603556264_">
						<use xlink:href="#SVGID_00000000934238931848712450000001104840554069048503_"  style="overflow:visible;"/>
					</clipPath>
					
						<rect x="253.26" y="113.053" transform="matrix(-1.836970e-16 1 -1 -1.836970e-16 478.0728 -171.4857)" style="clip-path:url(#SVGID_00000092420433493107203230000007123549902603556264_);fill:#FFFFFF;" width="143.039" height="80.481"/>
				</g>
				<g>
					<defs>
						<path id="SVGID_00000034068807910643088390000005921495620245947009_" d="M302.673,202.955V97.042
							c0-1.275,1.034-2.309,2.309-2.309h48.939c1.275,0,2.309,1.034,2.309,2.309v105.914c0,1.275-1.034,2.309-2.309,2.309h-48.939
							C303.707,205.264,302.673,204.231,302.673,202.955z"/>
					</defs>
					<clipPath id="SVGID_00000148646372833291704520000007969159836251994795_">
						<use xlink:href="#SVGID_00000034068807910643088390000005921495620245947009_"  style="overflow:visible;"/>
					</clipPath>
					<g style="clip-path:url(#SVGID_00000148646372833291704520000007969159836251994795_);">
						<rect x="240.837" y="93.683" style="fill:#99DFED;" width="130.098" height="130.098"/>
						<g>
							<g style="opacity:0.4;">
								<path style="fill:#FFFFFF;" d="M286.736,126.948c1.559-5.541,8.26-10.669,13.681-8.732
									c1.798-4.888,4.185-9.807,8.324-12.967c4.433-3.385,10.542-4.285,15.897-2.728c5.356,1.557,9.914,5.426,12.713,10.251
									c2.62-1.916,6.162-2.505,9.261-1.542c3.1,0.963,5.683,3.456,6.756,6.52c3.32-1.841,7.533-1.966,10.956-0.326
									c3.423,1.64,5.966,5.785,6.611,9.525H286.736z"/>
								<path style="fill:#FFFFFF;" d="M241.456,126.948c1.558-5.541,8.26-10.669,13.68-8.732c1.798-4.888,4.185-9.807,8.324-12.967
									c4.433-3.385,10.542-4.285,15.897-2.728c5.356,1.557,9.914,5.426,12.713,10.251c2.62-1.916,6.162-2.505,9.261-1.542
									c3.1,0.963,5.683,3.456,6.756,6.52c3.32-1.841,7.533-1.966,10.956-0.326c3.423,1.64,5.966,5.785,6.611,9.525H241.456z"/>
								<rect x="240.837" y="126.948" style="fill:#FFFFFF;" width="130.098" height="96.833"/>
							</g>
							<g style="opacity:0.6;">
								<path style="fill:#FFFFFF;" d="M286.736,159.35c1.559-5.541,8.26-10.669,13.681-8.732c1.798-4.888,4.185-9.807,8.324-12.967
									c4.433-3.385,10.542-4.285,15.897-2.728c5.356,1.557,9.914,5.426,12.713,10.251c2.62-1.916,6.162-2.505,9.261-1.542
									c3.1,0.963,5.683,3.456,6.756,6.52c3.32-1.841,7.533-1.966,10.956-0.326c3.423,1.64,5.966,5.785,6.611,9.525H286.736z"/>
								<path style="fill:#FFFFFF;" d="M240.837,159.35c1.558-5.541,8.26-10.669,13.681-8.732c1.798-4.888,4.185-9.807,8.324-12.967
									c4.433-3.385,10.542-4.285,15.897-2.728c5.356,1.557,9.914,5.426,12.713,10.251c2.62-1.916,6.162-2.505,9.261-1.542
									c3.1,0.963,5.683,3.456,6.756,6.52c3.32-1.841,7.533-1.966,10.957-0.326c3.423,1.64,5.966,5.785,6.611,9.525H240.837z"/>
								<rect x="240.837" y="159.35" style="fill:#FFFFFF;" width="130.098" height="64.432"/>
							</g>
						</g>
						<g>
							<defs>
								
									<rect id="SVGID_00000136393842469637275780000007782460356334761889_" x="240.837" y="93.683" width="130.098" height="130.098"/>
							</defs>
							<clipPath id="SVGID_00000135668805097791197200000012327604692483699605_">
								<use xlink:href="#SVGID_00000136393842469637275780000007782460356334761889_"  style="overflow:visible;"/>
							</clipPath>
						</g>
						<g>
							<circle style="fill:#FFFFFF;" cx="243.465" cy="184.827" r="0.772"/>
							<g>
								<circle style="fill:#FFFFFF;" cx="308.552" cy="117.683" r="0.969"/>
								<path style="fill:#FFFFFF;" d="M288.681,105.304c0,0.378,0.307,0.685,0.685,0.685c0.378,0,0.685-0.307,0.685-0.685
									c0-0.378-0.307-0.685-0.685-0.685C288.988,104.619,288.681,104.926,288.681,105.304z"/>
								<path style="fill:#FFFFFF;" d="M292.533,126.884c0,0.269,0.218,0.488,0.488,0.488c0.269,0,0.488-0.218,0.488-0.488
									c0-0.269-0.218-0.488-0.488-0.488C292.752,126.396,292.533,126.614,292.533,126.884z"/>
							</g>
							<g>
								<circle style="fill:#FFFFFF;" cx="304.757" cy="132.472" r="0.969"/>
								<circle style="fill:#FFFFFF;" cx="285.57" cy="120.093" r="0.685"/>
								<path style="fill:#FFFFFF;" d="M288.738,141.673c0,0.269,0.218,0.488,0.488,0.488c0.269,0,0.488-0.218,0.488-0.488
									c0-0.269-0.218-0.488-0.488-0.488C288.956,141.185,288.738,141.404,288.738,141.673z"/>
							</g>
							<g>
								<circle style="fill:#FFFFFF;" cx="282.645" cy="110.404" r="0.969"/>
								<circle style="fill:#FFFFFF;" cx="263.458" cy="98.026" r="0.685"/>
								<path style="fill:#FFFFFF;" d="M266.626,119.605c0,0.269,0.218,0.488,0.488,0.488c0.269,0,0.488-0.218,0.488-0.488
									c0-0.269-0.218-0.488-0.488-0.488C266.844,119.118,266.626,119.336,266.626,119.605z"/>
							</g>
							<g>
								<circle style="fill:#FFFFFF;" cx="315.436" cy="132.049" r="0.969"/>
								<circle style="fill:#FFFFFF;" cx="334.623" cy="119.671" r="0.685"/>
								<circle style="fill:#FFFFFF;" cx="330.968" cy="141.251" r="0.488"/>
							</g>
							<g>
								<circle style="fill:#FFFFFF;" cx="319.215" cy="143.426" r="0.969"/>
								<path style="fill:#FFFFFF;" d="M339.086,131.047c0,0.378-0.307,0.685-0.685,0.685c-0.378,0-0.685-0.307-0.685-0.685
									c0-0.378,0.307-0.685,0.685-0.685C338.78,130.362,339.086,130.669,339.086,131.047z"/>
								<circle style="fill:#FFFFFF;" cx="334.746" cy="152.627" r="0.488"/>
							</g>
							<g>
								<path style="fill:#FFFFFF;" d="M362.748,118.128c0,0.535,0.434,0.969,0.969,0.969c0.535,0,0.968-0.434,0.968-0.969
									c0-0.535-0.434-0.969-0.968-0.969C363.182,117.159,362.748,117.593,362.748,118.128z"/>
								<circle style="fill:#FFFFFF;" cx="344.53" cy="105.749" r="0.685"/>
								<path style="fill:#FFFFFF;" d="M347.698,127.329c0,0.269,0.218,0.488,0.488,0.488c0.269,0,0.488-0.218,0.488-0.488
									c0-0.269-0.218-0.488-0.488-0.488C347.916,126.841,347.698,127.06,347.698,127.329z"/>
							</g>
							<g>
								<path style="fill:#FFFFFF;" d="M358.97,129.504c0,0.535,0.434,0.969,0.968,0.969c0.535,0,0.969-0.434,0.969-0.969
									c0-0.535-0.434-0.969-0.969-0.969C359.404,128.536,358.97,128.969,358.97,129.504z"/>
								<circle style="fill:#FFFFFF;" cx="340.752" cy="117.126" r="0.685"/>
								<path style="fill:#FFFFFF;" d="M343.919,138.705c0,0.269,0.218,0.488,0.488,0.488c0.269,0,0.488-0.218,0.488-0.488
									c0-0.269-0.218-0.488-0.488-0.488C344.138,138.218,343.919,138.436,343.919,138.705z"/>
							</g>
							<g>
								<path style="fill:#FFFFFF;" d="M314.655,96.249c0,0.535,0.434,0.969,0.969,0.969c0.535,0,0.969-0.434,0.969-0.969
									c0-0.535-0.434-0.968-0.969-0.968C315.089,95.28,314.655,95.714,314.655,96.249z"/>
								<circle style="fill:#FFFFFF;" cx="300.092" cy="105.45" r="0.488"/>
							</g>
							<g>
								<circle style="fill:#FFFFFF;" cx="304.73" cy="99.476" r="0.969"/>
								<circle style="fill:#FFFFFF;" cx="292.659" cy="95.247" r="0.685"/>
								<path style="fill:#FFFFFF;" d="M295.826,116.826c0,0.269,0.218,0.488,0.488,0.488c0.269,0,0.488-0.218,0.488-0.488
									c0-0.269-0.218-0.488-0.488-0.488C296.044,116.339,295.826,116.557,295.826,116.826z"/>
							</g>
							<g>
								<circle style="fill:#FFFFFF;" cx="327.265" cy="101.74" r="0.488"/>
							</g>
							<g>
								<path style="fill:#FFFFFF;" d="M338.049,103.915c0,0.535,0.434,0.969,0.969,0.969c0.535,0,0.969-0.434,0.969-0.969
									c0-0.535-0.434-0.969-0.969-0.969C338.483,102.946,338.049,103.38,338.049,103.915z"/>
								<path style="fill:#FFFFFF;" d="M322.999,113.116c0,0.269,0.218,0.488,0.488,0.488c0.269,0,0.488-0.218,0.488-0.488
									c0-0.269-0.218-0.488-0.488-0.488C323.217,112.628,322.999,112.847,322.999,113.116z"/>
							</g>
							<g>
								<circle style="fill:#FFFFFF;" cx="331.461" cy="119.611" r="0.969"/>
								<circle style="fill:#FFFFFF;" cx="350.647" cy="107.232" r="0.685"/>
								<path style="fill:#FFFFFF;" d="M347.48,128.812c0,0.269-0.218,0.488-0.488,0.488c-0.269,0-0.488-0.218-0.488-0.488
									c0-0.269,0.218-0.488,0.488-0.488C347.262,128.324,347.48,128.543,347.48,128.812z"/>
							</g>
							<g>
								<circle style="fill:#FFFFFF;" cx="335.239" cy="130.987" r="0.969"/>
								<path style="fill:#FFFFFF;" d="M355.111,118.609c0,0.378-0.307,0.685-0.685,0.685c-0.378,0-0.685-0.307-0.685-0.685
									c0-0.378,0.307-0.685,0.685-0.685C354.804,117.924,355.111,118.23,355.111,118.609z"/>
								<path style="fill:#FFFFFF;" d="M351.258,140.188c0,0.269-0.218,0.488-0.488,0.488c-0.269,0-0.488-0.218-0.488-0.488
									c0-0.269,0.218-0.488,0.488-0.488C351.04,139.701,351.258,139.919,351.258,140.188z"/>
							</g>
							<g>
								<path style="fill:#FFFFFF;" d="M363.88,108.301c0,0.535,0.434,0.969,0.968,0.969c0.535,0,0.969-0.434,0.969-0.969
									c0-0.535-0.434-0.969-0.969-0.969C364.314,107.332,363.88,107.766,363.88,108.301z"/>
								<path style="fill:#FFFFFF;" d="M363.291,100.016c0,0.378,0.307,0.685,0.685,0.685c0.378,0,0.685-0.307,0.685-0.685
									c0-0.378-0.307-0.685-0.685-0.685C363.598,99.331,363.291,99.637,363.291,100.016z"/>
								<path style="fill:#FFFFFF;" d="M363.722,114.891c0,0.269,0.218,0.488,0.488,0.488c0.269,0,0.488-0.218,0.488-0.488
									c0-0.269-0.218-0.488-0.488-0.488C363.941,114.403,363.722,114.621,363.722,114.891z"/>
							</g>
							<g>
								<path style="fill:#FFFFFF;" d="M368.347,100.52c0,0.535,0.434,0.969,0.969,0.969c0.535,0,0.969-0.434,0.969-0.969
									c0-0.535-0.434-0.969-0.969-0.969C368.781,99.551,368.347,99.985,368.347,100.52z"/>
								<circle style="fill:#FFFFFF;" cx="356.776" cy="104.687" r="0.685"/>
								<path style="fill:#FFFFFF;" d="M359.944,126.267c0,0.269,0.218,0.488,0.488,0.488c0.269,0,0.488-0.218,0.488-0.488
									c0-0.269-0.218-0.488-0.488-0.488C360.162,125.779,359.944,125.997,359.944,126.267z"/>
							</g>
							<g>
								<circle style="fill:#FFFFFF;" cx="355.042" cy="96.636" r="0.969"/>
								<circle style="fill:#FFFFFF;" cx="339.511" cy="100.677" r="0.488"/>
							</g>
							<g>
								<circle style="fill:#FFFFFF;" cx="255.733" cy="106.406" r="0.969"/>
								<circle style="fill:#FFFFFF;" cx="246.541" cy="101.767" r="0.685"/>
								<path style="fill:#FFFFFF;" d="M243.373,123.346c0,0.269-0.218,0.488-0.488,0.488c-0.269,0-0.488-0.218-0.488-0.488
									c0-0.269,0.218-0.488,0.488-0.488C243.155,122.859,243.373,123.077,243.373,123.346z"/>
							</g>
							<g>
								<circle style="fill:#FFFFFF;" cx="259.511" cy="117.782" r="0.969"/>
								<circle style="fill:#FFFFFF;" cx="250.319" cy="113.143" r="0.685"/>
								<path style="fill:#FFFFFF;" d="M247.152,134.723c0,0.269-0.218,0.488-0.488,0.488c-0.269,0-0.488-0.218-0.488-0.488
									c0-0.269,0.218-0.488,0.488-0.488C246.933,134.235,247.152,134.453,247.152,134.723z"/>
							</g>
							<g>
								<circle style="fill:#FFFFFF;" cx="275.635" cy="100.224" r="0.969"/>
								<circle style="fill:#FFFFFF;" cx="259.028" cy="98.165" r="0.685"/>
								<path style="fill:#FFFFFF;" d="M259.616,109.425c0,0.269,0.218,0.488,0.488,0.488c0.269,0,0.488-0.218,0.488-0.488
									c0-0.269-0.218-0.488-0.488-0.488C259.834,108.937,259.616,109.156,259.616,109.425z"/>
							</g>
							<g>
								<circle style="fill:#FFFFFF;" cx="271.856" cy="111.6" r="0.969"/>
								<circle style="fill:#FFFFFF;" cx="252.669" cy="99.221" r="0.685"/>
								<path style="fill:#FFFFFF;" d="M255.837,120.801c0,0.269,0.218,0.488,0.488,0.488c0.269,0,0.488-0.218,0.488-0.488
									c0-0.269-0.218-0.488-0.488-0.488C256.055,120.313,255.837,120.532,255.837,120.801z"/>
							</g>
							<g>
								<circle style="fill:#FFFFFF;" cx="262.803" cy="100.181" r="0.969"/>
								<path style="fill:#FFFFFF;" d="M246.783,109.383c0,0.269,0.218,0.488,0.488,0.488c0.269,0,0.488-0.218,0.488-0.488
									c0-0.269-0.218-0.488-0.488-0.488C247.002,108.895,246.783,109.113,246.783,109.383z"/>
							</g>
							<g>
								<circle style="fill:#FFFFFF;" cx="282.421" cy="139.425" r="0.969"/>
								<path style="fill:#FFFFFF;" d="M262.549,127.046c0,0.378,0.307,0.685,0.685,0.685c0.378,0,0.685-0.307,0.685-0.685
									c0-0.378-0.307-0.685-0.685-0.685C262.856,126.362,262.549,126.668,262.549,127.046z"/>
								<path style="fill:#FFFFFF;" d="M266.402,148.626c0,0.269,0.218,0.488,0.488,0.488c0.269,0,0.488-0.218,0.488-0.488
									c0-0.269-0.218-0.488-0.488-0.488C266.62,148.138,266.402,148.357,266.402,148.626z"/>
							</g>
							<g>
								<circle style="fill:#FFFFFF;" cx="275.208" cy="164.37" r="0.969"/>
								<circle style="fill:#FFFFFF;" cx="256.022" cy="151.991" r="0.685"/>
								<path style="fill:#FFFFFF;" d="M259.189,173.571c0,0.269,0.218,0.488,0.488,0.488c0.269,0,0.488-0.218,0.488-0.488
									c0-0.269-0.218-0.488-0.488-0.488C259.407,173.083,259.189,173.302,259.189,173.571z"/>
							</g>
							<g>
								<circle style="fill:#FFFFFF;" cx="278.642" cy="150.801" r="0.969"/>
								<circle style="fill:#FFFFFF;" cx="259.456" cy="138.423" r="0.685"/>
								<path style="fill:#FFFFFF;" d="M262.623,160.002c0,0.269,0.218,0.488,0.488,0.488c0.269,0,0.488-0.218,0.488-0.488
									c0-0.269-0.218-0.488-0.488-0.488C262.841,159.514,262.623,159.733,262.623,160.002z"/>
							</g>
							<g>
								<path style="fill:#FFFFFF;" d="M285.942,156.843c0,0.535-0.434,0.969-0.968,0.969c-0.535,0-0.969-0.434-0.969-0.969
									c0-0.535,0.434-0.969,0.969-0.969C285.508,155.875,285.942,156.309,285.942,156.843z"/>
								<path style="fill:#FFFFFF;" d="M304.845,144.465c0,0.378-0.307,0.685-0.685,0.685c-0.378,0-0.685-0.307-0.685-0.685
									c0-0.378,0.307-0.685,0.685-0.685C304.538,143.78,304.845,144.087,304.845,144.465z"/>
								<circle style="fill:#FFFFFF;" cx="300.504" cy="166.045" r="0.488"/>
							</g>
							<g>
								<path style="fill:#FFFFFF;" d="M289.72,168.22c0,0.535-0.434,0.968-0.969,0.968c-0.535,0-0.969-0.434-0.969-0.968
									c0-0.535,0.434-0.969,0.969-0.969C289.286,167.251,289.72,167.685,289.72,168.22z"/>
								<path style="fill:#FFFFFF;" d="M308.623,155.841c0,0.378-0.307,0.685-0.685,0.685c-0.378,0-0.685-0.307-0.685-0.685
									c0-0.378,0.307-0.685,0.685-0.685C308.316,155.156,308.623,155.463,308.623,155.841z"/>
								<circle style="fill:#FFFFFF;" cx="304.283" cy="177.421" r="0.488"/>
							</g>
							<g>
								<circle style="fill:#FFFFFF;" cx="359.766" cy="149.832" r="0.969"/>
								<path style="fill:#FFFFFF;" d="M351.408,140.464c0,0.378,0.307,0.685,0.685,0.685c0.378,0,0.685-0.307,0.685-0.685
									c0-0.378-0.307-0.685-0.685-0.685C351.714,139.779,351.408,140.086,351.408,140.464z"/>
								<circle style="fill:#FFFFFF;" cx="355.748" cy="162.044" r="0.488"/>
							</g>
							<g>
								<circle style="fill:#FFFFFF;" cx="367.501" cy="164.219" r="0.969"/>
								<circle style="fill:#FFFFFF;" cx="348.314" cy="151.84" r="0.685"/>
								<circle style="fill:#FFFFFF;" cx="351.969" cy="173.42" r="0.488"/>
							</g>
						</g>
						<g>
							<polygon style="fill:#392561;" points="240.837,183.897 244.17,166.357 247.503,183.897 							"/>
							<polygon style="fill:#392561;" points="247.503,183.897 249.638,172.658 251.774,183.897 							"/>
							<polygon style="fill:#392561;" points="251.774,183.897 256.256,160.307 260.739,183.897 							"/>
						</g>
						<g>
							<polygon style="fill:#392561;" points="345.541,173.602 349.794,151.221 354.047,173.602 							"/>
							<polygon style="fill:#392561;" points="354.047,173.602 356.771,159.261 359.496,173.602 							"/>
							<polygon style="fill:#392561;" points="359.496,173.602 365.216,143.501 370.935,173.602 							"/>
						</g>
						<g>
							<polygon style="fill:#392561;" points="312.528,183.702 315.503,168.045 318.478,183.702 							"/>
							<polygon style="fill:#392561;" points="318.478,183.702 320.384,173.67 322.29,183.702 							"/>
							<polygon style="fill:#392561;" points="322.29,183.702 326.291,162.645 330.293,183.702 							"/>
						</g>
						<g>
							<circle style="fill:#FFFFFF;" cx="368.159" cy="182.997" r="0.779"/>
							<g>
								<path style="fill:#FFFFFF;" d="M303.492,115.278c0,0.54-0.437,0.977-0.977,0.977c-0.539,0-0.977-0.437-0.977-0.977
									c0-0.539,0.437-0.977,0.977-0.977C303.055,114.301,303.492,114.739,303.492,115.278z"/>
								<path style="fill:#FFFFFF;" d="M322.556,102.794c0,0.382-0.309,0.691-0.691,0.691s-0.691-0.309-0.691-0.691
									s0.309-0.691,0.691-0.691S322.556,102.412,322.556,102.794z"/>
								<path style="fill:#FFFFFF;" d="M318.671,124.558c0,0.272-0.22,0.492-0.492,0.492c-0.272,0-0.492-0.22-0.492-0.492
									c0-0.272,0.22-0.492,0.492-0.492C318.451,124.066,318.671,124.287,318.671,124.558z"/>
							</g>
							<g>
								<path style="fill:#FFFFFF;" d="M307.32,130.194c0,0.54-0.437,0.977-0.977,0.977c-0.54,0-0.977-0.437-0.977-0.977
									s0.437-0.977,0.977-0.977C306.883,129.217,307.32,129.654,307.32,130.194z"/>
								<path style="fill:#FFFFFF;" d="M326.385,117.71c0,0.382-0.309,0.691-0.691,0.691s-0.691-0.309-0.691-0.691
									s0.309-0.691,0.691-0.691S326.385,117.328,326.385,117.71z"/>
								<path style="fill:#FFFFFF;" d="M322.499,139.474c0,0.272-0.22,0.492-0.492,0.492c-0.272,0-0.492-0.22-0.492-0.492
									c0-0.272,0.22-0.492,0.492-0.492C322.279,138.982,322.499,139.202,322.499,139.474z"/>
							</g>
							<g>
								<path style="fill:#FFFFFF;" d="M329.621,107.938c0,0.54-0.437,0.977-0.977,0.977s-0.977-0.437-0.977-0.977
									c0-0.539,0.437-0.977,0.977-0.977S329.621,107.398,329.621,107.938z"/>
								<path style="fill:#FFFFFF;" d="M348.686,95.453c0,0.382-0.309,0.691-0.691,0.691s-0.691-0.309-0.691-0.691
									s0.309-0.691,0.691-0.691S348.686,95.072,348.686,95.453z"/>
								<path style="fill:#FFFFFF;" d="M344.8,117.218c0,0.272-0.22,0.492-0.492,0.492c-0.272,0-0.492-0.22-0.492-0.492
									c0-0.272,0.22-0.492,0.492-0.492C344.58,116.726,344.8,116.946,344.8,117.218z"/>
							</g>
							<g>
								<path style="fill:#FFFFFF;" d="M294.595,129.768c0,0.54,0.437,0.977,0.977,0.977c0.54,0,0.977-0.437,0.977-0.977
									c0-0.539-0.437-0.977-0.977-0.977C295.033,128.791,294.595,129.229,294.595,129.768z"/>
								<path style="fill:#FFFFFF;" d="M275.531,117.284c0,0.382,0.309,0.691,0.691,0.691s0.691-0.309,0.691-0.691
									s-0.309-0.691-0.691-0.691S275.531,116.902,275.531,117.284z"/>
								<path style="fill:#FFFFFF;" d="M279.416,139.048c0,0.272,0.22,0.492,0.492,0.492c0.272,0,0.492-0.22,0.492-0.492
									c0-0.272-0.22-0.492-0.492-0.492C279.636,138.556,279.416,138.777,279.416,139.048z"/>
							</g>
							<g>
								<circle style="fill:#FFFFFF;" cx="291.761" cy="141.242" r="0.977"/>
								<path style="fill:#FFFFFF;" d="M271.72,128.757c0,0.382,0.309,0.691,0.691,0.691s0.691-0.309,0.691-0.691
									s-0.309-0.691-0.691-0.691S271.72,128.376,271.72,128.757z"/>
								<path style="fill:#FFFFFF;" d="M275.605,150.522c0,0.272,0.22,0.492,0.492,0.492c0.272,0,0.492-0.22,0.492-0.492
									c0-0.272-0.22-0.492-0.492-0.492C275.825,150.03,275.605,150.25,275.605,150.522z"/>
							</g>
							<g>
								<circle style="fill:#FFFFFF;" cx="246.879" cy="115.728" r="0.977"/>
								<path style="fill:#FFFFFF;" d="M266.92,103.243c0,0.382-0.309,0.691-0.691,0.691s-0.691-0.309-0.691-0.691
									s0.309-0.691,0.691-0.691S266.92,102.862,266.92,103.243z"/>
								<path style="fill:#FFFFFF;" d="M263.035,125.007c0,0.272-0.22,0.492-0.492,0.492c-0.272,0-0.492-0.22-0.492-0.492
									c0-0.272,0.22-0.492,0.492-0.492C262.815,124.516,263.035,124.736,263.035,125.007z"/>
							</g>
							<g>
								<circle style="fill:#FFFFFF;" cx="250.689" cy="127.201" r="0.977"/>
								<path style="fill:#FFFFFF;" d="M270.731,114.717c0,0.382-0.309,0.691-0.691,0.691s-0.691-0.309-0.691-0.691
									s0.309-0.691,0.691-0.691S270.731,114.335,270.731,114.717z"/>
								<path style="fill:#FFFFFF;" d="M266.846,136.481c0,0.272-0.22,0.492-0.492,0.492c-0.272,0-0.492-0.22-0.492-0.492
									c0-0.272,0.22-0.492,0.492-0.492C266.625,135.989,266.846,136.209,266.846,136.481z"/>
							</g>
							<g>
								<path style="fill:#FFFFFF;" d="M296.36,98.345c0,0.54-0.437,0.977-0.977,0.977s-0.977-0.437-0.977-0.977
									c0-0.539,0.437-0.977,0.977-0.977S296.36,97.805,296.36,98.345z"/>
								<path style="fill:#FFFFFF;" d="M311.539,102.941c0,0.272-0.22,0.492-0.492,0.492s-0.492-0.22-0.492-0.492
									c0-0.272,0.22-0.492,0.492-0.492S311.539,102.67,311.539,102.941z"/>
							</g>
							<g>
								<circle style="fill:#FFFFFF;" cx="306.371" cy="101.599" r="0.977"/>
								<path style="fill:#FFFFFF;" d="M319.236,97.334c0,0.382-0.309,0.691-0.691,0.691s-0.691-0.309-0.691-0.691
									s0.309-0.691,0.691-0.691S319.236,96.952,319.236,97.334z"/>
								<path style="fill:#FFFFFF;" d="M315.35,114.415c0,0.272-0.22,0.492-0.492,0.492c-0.272,0-0.492-0.22-0.492-0.492
									c0-0.272,0.22-0.492,0.492-0.492C315.13,113.923,315.35,114.143,315.35,114.415z"/>
							</g>
							<g>
								<path style="fill:#FFFFFF;" d="M284.134,99.199c0,0.272-0.22,0.492-0.492,0.492c-0.272,0-0.492-0.22-0.492-0.492
									c0-0.272,0.22-0.492,0.492-0.492C283.914,98.707,284.134,98.928,284.134,99.199z"/>
							</g>
							<g>
								<path style="fill:#FFFFFF;" d="M272.766,101.393c0,0.539-0.437,0.977-0.977,0.977c-0.539,0-0.977-0.437-0.977-0.977
									s0.437-0.977,0.977-0.977C272.329,100.416,272.766,100.853,272.766,101.393z"/>
								<path style="fill:#FFFFFF;" d="M287.945,110.673c0,0.272-0.22,0.492-0.492,0.492c-0.272,0-0.492-0.22-0.492-0.492
									c0-0.272,0.22-0.492,0.492-0.492C287.725,110.181,287.945,110.401,287.945,110.673z"/>
							</g>
							<g>
								<circle style="fill:#FFFFFF;" cx="328.87" cy="137.207" r="0.977"/>
								<path style="fill:#FFFFFF;" d="M348.912,124.722c0,0.382-0.309,0.691-0.691,0.691s-0.691-0.309-0.691-0.691
									s0.309-0.691,0.691-0.691S348.912,124.341,348.912,124.722z"/>
								<path style="fill:#FFFFFF;" d="M345.026,146.487c0,0.272-0.22,0.492-0.492,0.492c-0.272,0-0.492-0.22-0.492-0.492
									c0-0.272,0.22-0.492,0.492-0.492C344.806,145.995,345.026,146.215,345.026,146.487z"/>
							</g>
							<g>
								<path style="fill:#FFFFFF;" d="M351.731,128.903c0,0.54-0.437,0.977-0.977,0.977c-0.539,0-0.977-0.437-0.977-0.977
									s0.437-0.977,0.977-0.977C351.294,127.926,351.731,128.363,351.731,128.903z"/>
								<path style="fill:#FFFFFF;" d="M370.796,116.418c0,0.381-0.309,0.691-0.691,0.691c-0.381,0-0.691-0.309-0.691-0.691
									c0-0.382,0.309-0.691,0.691-0.691C370.486,115.728,370.796,116.037,370.796,116.418z"/>
								<path style="fill:#FFFFFF;" d="M366.91,138.183c0,0.272-0.22,0.492-0.492,0.492c-0.272,0-0.492-0.22-0.492-0.492
									c0-0.272,0.22-0.492,0.492-0.492C366.69,137.691,366.91,137.911,366.91,138.183z"/>
							</g>
							<g>
								<path style="fill:#FFFFFF;" d="M337.121,162.365c0,0.54-0.437,0.977-0.977,0.977c-0.539,0-0.977-0.437-0.977-0.977
									c0-0.539,0.437-0.977,0.977-0.977C336.684,161.388,337.121,161.826,337.121,162.365z"/>
								<path style="fill:#FFFFFF;" d="M356.186,149.881c0,0.382-0.309,0.691-0.691,0.691s-0.691-0.309-0.691-0.691
									s0.309-0.691,0.691-0.691S356.186,149.499,356.186,149.881z"/>
								<path style="fill:#FFFFFF;" d="M352.301,171.645c0,0.272-0.22,0.492-0.492,0.492c-0.272,0-0.492-0.22-0.492-0.492
									c0-0.272,0.22-0.492,0.492-0.492C352.081,171.153,352.301,171.373,352.301,171.645z"/>
							</g>
							<g>
								<path style="fill:#FFFFFF;" d="M333.658,148.68c0,0.54-0.437,0.977-0.977,0.977c-0.539,0-0.977-0.437-0.977-0.977
									s0.437-0.977,0.977-0.977C333.221,147.703,333.658,148.141,333.658,148.68z"/>
								<path style="fill:#FFFFFF;" d="M352.723,136.196c0,0.382-0.309,0.691-0.691,0.691c-0.382,0-0.691-0.309-0.691-0.691
									s0.309-0.691,0.691-0.691C352.413,135.505,352.723,135.814,352.723,136.196z"/>
								<path style="fill:#FFFFFF;" d="M348.837,157.96c0,0.272-0.22,0.492-0.492,0.492c-0.272,0-0.492-0.22-0.492-0.492
									c0-0.272,0.22-0.492,0.492-0.492C348.617,157.468,348.837,157.688,348.837,157.96z"/>
							</g>
							<g>
								<path style="fill:#FFFFFF;" d="M325.319,154.774c0,0.539,0.437,0.977,0.977,0.977c0.539,0,0.977-0.437,0.977-0.977
									c0-0.54-0.437-0.977-0.977-0.977C325.757,153.797,325.319,154.235,325.319,154.774z"/>
								<path style="fill:#FFFFFF;" d="M306.255,142.29c0,0.382,0.309,0.691,0.691,0.691s0.691-0.309,0.691-0.691
									s-0.309-0.691-0.691-0.691S306.255,141.908,306.255,142.29z"/>
								<path style="fill:#FFFFFF;" d="M310.14,164.054c0,0.272,0.22,0.492,0.492,0.492c0.272,0,0.492-0.22,0.492-0.492
									c0-0.272-0.22-0.492-0.492-0.492C310.36,163.562,310.14,163.783,310.14,164.054z"/>
							</g>
							<g>
								<circle style="fill:#FFFFFF;" cx="322.485" cy="166.248" r="0.977"/>
								<path style="fill:#FFFFFF;" d="M302.444,153.763c0,0.382,0.309,0.691,0.691,0.691s0.691-0.309,0.691-0.691
									s-0.309-0.691-0.691-0.691S302.444,153.382,302.444,153.763z"/>
								<circle style="fill:#FFFFFF;" cx="306.821" cy="175.528" r="0.492"/>
							</g>
							<g>
								<path style="fill:#FFFFFF;" d="M251.84,147.703c0,0.54-0.437,0.977-0.977,0.977c-0.54,0-0.977-0.437-0.977-0.977
									c0-0.54,0.437-0.977,0.977-0.977C251.403,146.726,251.84,147.164,251.84,147.703z"/>
								<path style="fill:#FFFFFF;" d="M259.293,138.255c0,0.382-0.309,0.691-0.691,0.691s-0.691-0.309-0.691-0.691
									s0.309-0.691,0.691-0.691S259.293,137.873,259.293,138.255z"/>
								<path style="fill:#FFFFFF;" d="M255.408,160.019c0,0.272-0.22,0.492-0.492,0.492c-0.272,0-0.492-0.22-0.492-0.492
									c0-0.272,0.22-0.492,0.492-0.492C255.188,159.527,255.408,159.747,255.408,160.019z"/>
							</g>
							<g>
								<circle style="fill:#FFFFFF;" cx="243.063" cy="162.213" r="0.977"/>
								<path style="fill:#FFFFFF;" d="M263.104,149.728c0,0.382-0.309,0.691-0.691,0.691s-0.691-0.309-0.691-0.691
									s0.309-0.691,0.691-0.691S263.104,149.347,263.104,149.728z"/>
								<path style="fill:#FFFFFF;" d="M259.219,171.493c0,0.272-0.22,0.492-0.492,0.492c-0.272,0-0.492-0.22-0.492-0.492
									s0.22-0.492,0.492-0.492C258.999,171.001,259.219,171.221,259.219,171.493z"/>
							</g>
						</g>
						<g>
							<path style="fill:#CCEFF6;" d="M254.204,183.218l-13.367-1.479v42.042h130.098h0
								C336.353,201.805,296.248,187.869,254.204,183.218z"/>
						</g>
						<g>
							<path style="fill:#FFFFFF;" d="M357.568,172.039l13.367-1.886v53.629H240.837h0
								C275.42,195.749,315.525,177.972,357.568,172.039z"/>
						</g>
					</g>
				</g>
			</g>
			<path style="fill:#BF6A48;" d="M380.649,185.225c0,0-9.972-20.469-16.445-27.291c-6.473-6.823-8.922-7.523-15.22-9.622
				c-6.298-2.099-17.145-6.998-18.894-5.423c-1.749,1.575,1.225,11.896,8.747,16.97c7.523,5.073,13.121,7.173,13.821,8.047
				c0.7,0.875-1.05,7.698,2.099,16.62c3.149,8.922,11.022,15.045,11.022,15.045L380.649,185.225z"/>
			<path style="fill:#BF6A48;" d="M296.421,149.159c0.217,0.355,0.483,0.722,0.882,0.842c0.328,0.099,0.682,0.009,1.006-0.1
				c3.823-1.291,6.269-5.393,6.332-9.428c0.057-3.678-7.006-10.94-8.885-6.537C293.877,138.34,294.8,146.506,296.421,149.159z"/>
			<path style="fill:#BF6A48;" d="M295.896,167.878c0.217,0.355,0.483,0.722,0.882,0.842c0.328,0.099,0.681,0.009,1.006-0.1
				c3.824-1.291,6.27-5.393,6.332-9.428c0.057-3.677-7.006-10.94-8.885-6.537C293.352,157.059,294.275,165.225,295.896,167.878z"/>
			<path style="fill:#BF6A48;" d="M295.371,186.597c0.217,0.355,0.483,0.722,0.882,0.842c0.328,0.099,0.682,0.01,1.006-0.1
				c3.824-1.291,6.27-5.393,6.332-9.428c0.057-3.678-7.006-10.94-8.885-6.537C292.827,175.778,293.75,183.944,295.371,186.597z"/>
			<path style="fill:#BF6A48;" d="M294.846,205.316c0.217,0.355,0.483,0.722,0.882,0.842c0.328,0.099,0.682,0.009,1.006-0.1
				c3.823-1.291,6.269-5.393,6.332-9.428c0.057-3.678-7.006-10.94-8.885-6.537C292.302,194.497,293.225,202.663,294.846,205.316z"/>
			<g>
				<defs>
					<path id="SVGID_00000121989101580087538420000008808765853617926566_" d="M20.267,500c0,0,21.33-129.652,51.191-175.359
						c29.862-45.707,84.71-52.41,116.399-51.191c31.69,1.219,70.083,13.407,91.413,30.471c21.33,17.064,46.316,54.239,46.316,54.239
						l11.579-57.895l65.817-6.094c0,0,1.219,88.975-16.454,132.854c-17.673,43.878-53.629,45.097-53.629,45.097L337.776,500H20.267z
						"/>
				</defs>
				<clipPath id="SVGID_00000102522513923611718370000010384340588201326210_">
					<use xlink:href="#SVGID_00000121989101580087538420000008808765853617926566_"  style="overflow:visible;"/>
				</clipPath>
				<g style="clip-path:url(#SVGID_00000102522513923611718370000010384340588201326210_);">
					<g>
						
							<line style="fill:none;stroke:#8A83DD;stroke-width:3;stroke-miterlimit:10;" x1="56.484" y1="231.07" x2="56.484" y2="546.004"/>
						
							<line style="fill:none;stroke:#8A83DD;stroke-width:3;stroke-miterlimit:10;" x1="112.967" y1="231.07" x2="112.967" y2="546.004"/>
						
							<line style="fill:none;stroke:#8A83DD;stroke-width:3;stroke-miterlimit:10;" x1="169.45" y1="231.07" x2="169.45" y2="546.004"/>
						
							<line style="fill:none;stroke:#8A83DD;stroke-width:3;stroke-miterlimit:10;" x1="225.932" y1="231.07" x2="225.932" y2="546.004"/>
						
							<line style="fill:none;stroke:#8A83DD;stroke-width:3;stroke-miterlimit:10;" x1="282.415" y1="231.07" x2="282.415" y2="546.004"/>
						
							<line style="fill:none;stroke:#8A83DD;stroke-width:3;stroke-miterlimit:10;" x1="338.898" y1="231.07" x2="338.898" y2="546.004"/>
						
							<line style="fill:none;stroke:#8A83DD;stroke-width:3;stroke-miterlimit:10;" x1="395.38" y1="231.07" x2="395.38" y2="546.004"/>
					</g>
					<g>
						
							<line style="fill:none;stroke:#8A83DD;stroke-width:3;stroke-miterlimit:10;" x1="17.973" y1="480.107" x2="425.333" y2="480.107"/>
						
							<line style="fill:none;stroke:#8A83DD;stroke-width:3;stroke-miterlimit:10;" x1="17.973" y1="443.45" x2="425.333" y2="443.45"/>
						
							<line style="fill:none;stroke:#8A83DD;stroke-width:3;stroke-miterlimit:10;" x1="17.973" y1="406.794" x2="425.333" y2="406.794"/>
						
							<line style="fill:none;stroke:#8A83DD;stroke-width:3;stroke-miterlimit:10;" x1="17.973" y1="370.137" x2="425.333" y2="370.137"/>
						
							<line style="fill:none;stroke:#8A83DD;stroke-width:3;stroke-miterlimit:10;" x1="17.973" y1="333.48" x2="425.333" y2="333.48"/>
						
							<line style="fill:none;stroke:#8A83DD;stroke-width:3;stroke-miterlimit:10;" x1="17.973" y1="296.824" x2="425.333" y2="296.824"/>
						
							<line style="fill:none;stroke:#8A83DD;stroke-width:3;stroke-miterlimit:10;" x1="17.973" y1="260.167" x2="425.333" y2="260.167"/>
					</g>
				</g>
			</g>
			<g>
				<path style="fill:#FFBA00;" d="M371.495,251.39c-11.084-0.99-25.844-4.979-35.633,0.313c-4.455,2.408-8.456,6.422-9.107,11.444
					c-0.522,4.026,1.154,7.964,2.031,11.928c0.965,4.365,0.96,8.942-0.016,13.304c-0.892,3.988-2.585,8.107-1.391,12.016
					c0.82,2.685,2.918,4.813,5.261,6.361c4.283,2.83,9.468,4.019,14.59,4.364c5.122,0.345,10.259-0.099,15.39-0.262
					c8.304-0.263,16.625,0.212,24.869,1.243c4.542,0.568,9.125,1.306,13.674,0.797c4.549-0.51,9.167-2.466,11.761-6.238
					c2.384-3.467,2.742-7.952,2.329-12.139c-0.412-4.187-1.511-8.294-1.741-12.495c-0.296-5.4,0.851-10.792,0.68-16.198
					c-0.122-3.865-1.058-7.987-3.453-11.107c-2.778-3.618-6.022-3.244-10.263-3.623C389.837,250.148,382.134,252.34,371.495,251.39z
					"/>
				<g style="opacity:0.26;">
					<g>
						<path style="fill:#392561;" d="M342.794,253.832c-2.551,0.526-4.602,2.38-5.791,4.583c-1.255,2.201-1.604,4.793-1.423,7.301
							c0.333,5.081,2.59,9.798,3.732,14.897c0.549,2.561,0.697,5.221,0.423,7.828c-0.25,2.611-1.006,5.171-1.965,7.554
							c-0.902,2.39-1.83,4.826-1.743,7.351c0.036,1.254,0.305,2.518,0.872,3.65c0.556,1.133,1.467,2.107,2.632,2.67
							c-1.208-0.461-2.229-1.397-2.865-2.544c-0.657-1.139-1.014-2.435-1.129-3.747c-0.191-2.668,0.696-5.215,1.509-7.639
							c0.41-1.221,0.823-2.428,1.14-3.651c0.313-1.225,0.528-2.474,0.644-3.733c0.234-2.519,0.061-5.061-0.494-7.53
							c-1.012-4.954-3.33-9.763-3.52-15.067c-0.097-2.607,0.363-5.335,1.767-7.586C337.954,255.958,340.191,254.132,342.794,253.832
							z"/>
					</g>
					<g>
						<path style="fill:#392561;" d="M352.913,254.898c-1.459,1.97-2.933,3.936-4.108,6.07c-1.21,2.101-2.135,4.388-2.38,6.758
							c-0.108,1.184-0.013,2.367,0.212,3.521c0.26,1.151,0.71,2.27,1.178,3.399c0.965,2.264,1.761,4.647,2.258,7.079
							c0.998,4.868,0.861,9.962-0.095,14.775c-0.415,2.414-0.854,4.821-0.897,7.247c-0.111,2.42,0.348,4.88,1.565,7.023
							c-1.416-2.023-2.007-4.554-2.055-7.021c-0.056-2.484,0.306-4.939,0.628-7.366c0.16-1.215,0.322-2.424,0.456-3.63
							c0.121-1.205,0.179-2.415,0.177-3.625c0-2.42-0.261-4.838-0.757-7.203c-0.458-2.38-1.193-4.68-2.121-6.936
							c-0.455-1.139-0.913-2.31-1.18-3.557c-0.243-1.251-0.297-2.537-0.129-3.793c0.358-2.512,1.407-4.835,2.722-6.92
							C349.723,258.636,351.279,256.727,352.913,254.898z"/>
					</g>
					<g>
						<path style="fill:#392561;" d="M362.34,256.833c-0.994,2.03-1.707,4.178-2.066,6.389c-0.409,2.201-0.523,4.446-0.468,6.68
							c0.122,4.475,0.923,8.911,1.704,13.359c0.731,4.455,1.311,9,1.22,13.545c-0.032,2.271-0.186,4.537-0.448,6.789
							c-0.296,2.247-0.681,4.481-1.225,6.676c0.669-4.469,1.009-8.97,0.905-13.461c-0.068-2.244-0.177-4.486-0.437-6.714
							c-0.245-2.229-0.618-4.447-0.999-6.669c-0.697-4.45-1.525-8.944-1.485-13.516c0.037-2.278,0.24-4.563,0.756-6.785
							C360.323,260.909,361.146,258.756,362.34,256.833z"/>
					</g>
					<g>
						<path style="fill:#392561;" d="M371.633,258.518c0.616,4.14,1.019,8.309,1.301,12.487c0.285,4.178,0.374,8.367,0.409,12.555
							c-0.047,4.188-0.155,8.377-0.451,12.554c-0.159,2.088-0.337,4.173-0.543,6.256c-0.248,2.079-0.483,4.158-0.805,6.226
							l0.316-6.264c0.107-2.086,0.198-4.172,0.263-6.258c0.137-4.172,0.252-8.343,0.221-12.516
							c0.049-4.172-0.055-8.344-0.174-12.517C372.047,266.869,371.838,262.698,371.633,258.518z"/>
					</g>
					<g>
						<path style="fill:#392561;" d="M379.864,258.122c1.436,1.766,2.534,3.802,3.376,5.93c0.815,2.143,1.344,4.389,1.669,6.658
							c0.635,4.552,0.38,9.166-0.17,13.69c-0.635,4.517-1.504,8.972-2.183,13.444c-0.346,2.235-0.621,4.48-0.761,6.736
							c-0.173,2.255-0.169,4.522-0.014,6.788c-0.38-2.242-0.484-4.528-0.476-6.808c0.041-2.281,0.233-4.556,0.488-6.819
							c0.526-4.526,1.404-8.987,1.955-13.473c0.626-4.466,0.86-8.994,0.4-13.467C383.69,266.347,382.397,261.912,379.864,258.122z"
							/>
					</g>
					<g>
						<path style="fill:#392561;" d="M390.426,254.57c1.671,1.888,3.066,4.029,4.179,6.311c1.069,2.301,1.888,4.735,2.339,7.247
							c0.477,2.507,0.587,5.087,0.348,7.635c-0.216,2.556-0.825,5.042-1.466,7.482c-0.672,2.434-1.401,4.836-1.893,7.278
							c-0.484,2.441-0.725,4.929-0.766,7.422c-0.041,2.494,0.163,4.995,0.604,7.459c0.391,2.476,1.094,4.895,1.931,7.271
							c-2.098-4.586-3.221-9.642-3.304-14.728c-0.081-2.545,0.193-5.092,0.642-7.598c0.475-2.504,1.179-4.939,1.822-7.365
							c0.666-2.417,1.288-4.842,1.525-7.309c0.276-2.465,0.148-4.961-0.198-7.42C395.447,263.337,393.448,258.602,390.426,254.57z"
							/>
					</g>
					<g>
						<path style="fill:#392561;" d="M400.565,255.764c2.002,1.386,3.546,3.384,4.638,5.577c1.07,2.215,1.655,4.65,1.864,7.098
							c0.447,4.935-0.77,9.791-1.742,14.486c-0.495,2.354-0.909,4.722-0.903,7.095c-0.017,2.377,0.557,4.682,1.36,6.949
							c0.778,2.272,1.779,4.498,2.442,6.856c0.662,2.337,0.914,4.904,0.119,7.221c0.276-1.184,0.339-2.395,0.226-3.586
							c-0.106-1.195-0.439-2.356-0.814-3.492c-0.743-2.283-1.814-4.455-2.695-6.733c-0.93-2.249-1.522-4.726-1.548-7.206
							c-0.035-2.48,0.36-4.92,0.835-7.305c0.507-2.382,1.098-4.724,1.488-7.089c0.395-2.366,0.567-4.76,0.469-7.143
							c-0.112-2.382-0.593-4.75-1.543-6.947C403.84,259.338,402.424,257.326,400.565,255.764z"/>
					</g>
				</g>
			</g>
			<g>
				<path style="fill:#392561;" d="M320.441,351.509c2.739,2.649,5.24,5.475,7.657,8.362c1.231,1.427,2.376,2.918,3.561,4.379
					l3.427,4.479c2.248,3.014,4.391,6.104,6.457,9.253c2.064,3.15,4.042,6.363,5.781,9.754c-2.742-2.647-5.244-5.471-7.661-8.359
					c-2.415-2.889-4.752-5.837-6.985-8.861l-3.294-4.578c-1.055-1.558-2.15-3.086-3.16-4.677
					C324.162,358.111,322.182,354.898,320.441,351.509z"/>
			</g>
			<g>
				<path style="fill:#392561;" d="M243.06,412.29c7.812,7.552,14.961,15.752,22.404,23.575
					c7.445,7.811,15.204,15.318,23.967,21.449c2.185,1.533,4.418,2.992,6.712,4.346c2.304,1.337,4.67,2.555,7.076,3.684
					c2.417,1.104,4.889,2.09,7.405,2.927c2.532,0.791,5.101,1.467,7.708,1.99c10.412,1.983,21.543,1.309,31.44-3.263
					c-2.331,1.391-4.802,2.569-7.375,3.512c-2.585,0.906-5.258,1.561-7.969,2.04c-2.72,0.42-5.473,0.616-8.233,0.646
					c-2.76-0.007-5.516-0.25-8.254-0.627c-2.733-0.415-5.438-1.013-8.096-1.787c-2.651-0.805-5.244-1.763-7.788-2.845
					c-2.529-1.114-4.982-2.384-7.383-3.74c-2.386-1.382-4.708-2.864-6.97-4.432c-4.477-3.198-8.7-6.717-12.678-10.475
					c-3.949-3.79-7.716-7.743-11.284-11.853C256.564,429.249,249.952,420.675,243.06,412.29z"/>
			</g>
			<g>
				<path style="fill:#392561;" d="M63.279,499.492c3.655-23.185,5.431-46.695,5.464-70.22c0.02-23.525-1.69-47.084-5.348-70.374
					c4.27,23.186,6.61,46.741,7.211,70.352c0.589,23.612-0.569,47.297-3.639,70.776L63.279,499.492z"/>
			</g>
		</g>
		<g>
			<g>
				<g>
					<path style="fill:#3F3251;" d="M377.138,117.43c6.392,4.349,12.898,8.523,19.508,12.518l9.988,5.868
						c3.303,2.002,6.643,3.939,9.924,5.997l-0.043,0.079c-3.526-1.606-6.938-3.435-10.33-5.3c-3.381-1.885-6.652-3.958-9.917-6.034
						c-6.539-4.138-12.938-8.493-19.182-13.054L377.138,117.43z"/>
				</g>
				<g>
					<path style="fill:#3F3251;" d="M385.366,109.678l25.838,1.349c4.307,0.229,8.618,0.406,12.918,0.742
						c4.298,0.359,8.597,0.7,12.88,1.233l-0.007,0.089c-4.323-0.021-8.629-0.234-12.937-0.429c-4.306-0.218-8.601-0.595-12.899-0.92
						l-25.796-1.975L385.366,109.678z"/>
				</g>
				<g>
					<path style="fill:#3F3251;" d="M384.024,98.024c7.925-2.113,15.83-4.29,23.717-6.531c3.941-1.129,7.861-2.329,11.818-3.398
						c3.964-1.048,7.917-2.133,11.919-3.058l0.026,0.086c-3.857,1.417-7.777,2.628-11.699,3.833
						c-3.928,1.183-7.906,2.192-11.875,3.228c-7.934,2.089-15.896,4.065-23.884,5.927L384.024,98.024z"/>
				</g>
			</g>
			<g>
				<g>
					<path style="fill:#3F3251;" d="M371.894,83.923c6.807-3.664,13.512-7.51,20.106-11.532l9.814-6.154
						c3.3-2.006,6.56-4.076,9.899-6.038l0.05,0.074c-3.052,2.387-6.249,4.571-9.468,6.719c-3.232,2.13-6.58,4.076-9.928,6.014
						c-6.688,3.892-13.504,7.56-20.432,10.996L371.894,83.923z"/>
				</g>
				<g>
					<path style="fill:#3F3251;" d="M368.812,73.046l13.118-22.301c2.19-3.715,4.336-7.458,6.618-11.118
						c2.301-3.648,4.588-7.304,7.037-10.858l0.076,0.047c-2.013,3.825-4.189,7.548-6.349,11.28c-2.18,3.719-4.496,7.356-6.768,11.02
						L368.89,73.091L368.812,73.046z"/>
				</g>
				<g>
					<path style="fill:#3F3251;" d="M357.853,68.86c1.781-8.006,3.497-16.024,5.148-24.055c0.817-4.017,1.561-8.049,2.437-12.053
						c0.899-4,1.76-8.008,2.786-11.985l0.088,0.017c-0.523,4.075-1.257,8.112-1.996,12.148c-0.763,4.031-1.703,8.026-2.615,12.025
						c-1.807,8.002-3.728,15.978-5.761,23.925L357.853,68.86z"/>
				</g>
			</g>
			<g>
				<path style="fill:#3F3251;" d="M308.22,56.102c0.291-0.846,0.783-1.544,1.475-2.092c0.692-0.548,1.551-0.898,2.576-1.05
					c0.882-0.131,1.695-0.082,2.439,0.145c0.744,0.227,1.378,0.611,1.904,1.15c0.525,0.539,0.919,1.201,1.182,1.984l-3.363,0.499
					c-0.203-0.312-0.461-0.541-0.77-0.687c-0.311-0.145-0.647-0.19-1.013-0.136c-0.537,0.079-0.931,0.344-1.182,0.792
					c-0.253,0.449-0.328,1.013-0.227,1.694c0.101,0.68,0.337,1.198,0.709,1.555c0.371,0.356,0.824,0.495,1.361,0.415
					c0.365-0.054,0.674-0.195,0.929-0.424c0.254-0.229,0.434-0.522,0.538-0.881l3.363-0.499c-0.025,0.826-0.21,1.574-0.556,2.242
					c-0.347,0.668-0.843,1.22-1.489,1.653c-0.646,0.434-1.41,0.716-2.292,0.847c-1.025,0.152-1.949,0.066-2.77-0.257
					c-0.822-0.324-1.495-0.848-2.018-1.574c-0.524-0.725-0.86-1.591-1.009-2.597C307.858,57.874,307.929,56.948,308.22,56.102z"/>
				<path style="fill:#3F3251;" d="M321.437,66.863l3.084,0.404l-0.317,2.421l-6.283-0.824l1.338-10.202l3.199,0.419L321.437,66.863
					z"/>
				<path style="fill:#3F3251;" d="M330.24,55.116l-2.829,9.892l-3.102-0.887l2.829-9.892L330.24,55.116z"/>
				<path style="fill:#3F3251;" d="M329.882,62.257c0.511-0.734,1.176-1.27,1.992-1.608c0.816-0.337,1.738-0.439,2.765-0.304
					c0.884,0.116,1.653,0.385,2.306,0.808c0.653,0.423,1.158,0.965,1.516,1.628c0.357,0.662,0.555,1.407,0.593,2.233l-3.371-0.442
					c-0.109-0.356-0.294-0.647-0.552-0.872c-0.259-0.224-0.571-0.36-0.936-0.409c-0.538-0.07-0.989,0.076-1.354,0.438
					c-0.366,0.363-0.593,0.885-0.683,1.567c-0.089,0.682-0.005,1.245,0.256,1.69c0.259,0.444,0.657,0.702,1.195,0.772
					c0.366,0.048,0.702-0.004,1.01-0.153c0.307-0.15,0.561-0.383,0.759-0.7l3.371,0.442c-0.25,0.788-0.633,1.456-1.149,2.004
					c-0.517,0.548-1.144,0.942-1.884,1.182c-0.74,0.24-1.552,0.302-2.436,0.186c-1.027-0.135-1.892-0.471-2.593-1.007
					c-0.701-0.537-1.205-1.226-1.51-2.067c-0.305-0.841-0.391-1.766-0.259-2.774C329.048,63.862,329.37,62.991,329.882,62.257z"/>
				<path style="fill:#3F3251;" d="M347.244,66.852l-3.98-3.61l1.073,4.33l-3.131,0.776l-2.475-9.987l3.132-0.776l1.042,4.203
					l1.822-4.913l3.54-0.877l-2.256,5.635l4.958,4.296L347.244,66.852z"/>
			</g>
			<g>
				<path style="fill:#3F3251;" d="M421.039,129.051c-0.007-0.894,0.225-1.716,0.695-2.463c0.471-0.747,1.164-1.363,2.08-1.847
					c0.788-0.417,1.571-0.641,2.348-0.674c0.777-0.033,1.503,0.118,2.178,0.451c0.674,0.334,1.266,0.827,1.775,1.478l-3.006,1.589
					c-0.295-0.227-0.614-0.357-0.955-0.392c-0.341-0.033-0.674,0.036-1,0.208c-0.48,0.253-0.763,0.633-0.852,1.14
					c-0.089,0.508,0.028,1.065,0.349,1.673c0.321,0.608,0.716,1.018,1.185,1.231c0.468,0.213,0.942,0.193,1.422-0.061
					c0.326-0.172,0.571-0.408,0.736-0.709c0.164-0.3,0.236-0.637,0.214-1.009l3.006-1.589c0.251,0.787,0.325,1.554,0.221,2.299
					c-0.105,0.746-0.389,1.43-0.854,2.054c-0.465,0.624-1.091,1.144-1.88,1.561c-0.916,0.484-1.816,0.71-2.698,0.678
					c-0.883-0.033-1.692-0.303-2.427-0.814c-0.735-0.51-1.34-1.215-1.815-2.114C421.287,130.843,421.046,129.946,421.039,129.051z"
					/>
				<path style="fill:#3F3251;" d="M437.082,134.805l3.043-0.644l0.506,2.389l-6.199,1.312l-2.131-10.066l3.156-0.668
					L437.082,134.805z"/>
				<path style="fill:#3F3251;" d="M441.478,120.799l0.621,10.27l-3.22,0.195l-0.621-10.27L441.478,120.799z"/>
				<path style="fill:#3F3251;" d="M443.514,127.653c0.238-0.862,0.686-1.589,1.344-2.179c0.657-0.59,1.493-0.992,2.507-1.206
					c0.872-0.185,1.687-0.186,2.443-0.005c0.756,0.181,1.413,0.525,1.971,1.031c0.557,0.506,0.991,1.142,1.302,1.908l-3.326,0.704
					c-0.222-0.299-0.493-0.512-0.811-0.638c-0.319-0.125-0.658-0.15-1.019-0.074c-0.531,0.113-0.908,0.4-1.131,0.863
					c-0.225,0.464-0.265,1.032-0.123,1.705c0.143,0.673,0.41,1.175,0.803,1.508c0.392,0.333,0.853,0.443,1.384,0.331
					c0.361-0.076,0.661-0.237,0.902-0.48c0.24-0.244,0.401-0.548,0.483-0.912l3.326-0.704c0.026,0.826-0.113,1.584-0.417,2.272
					c-0.305,0.688-0.766,1.269-1.384,1.741c-0.618,0.472-1.363,0.801-2.236,0.986c-1.014,0.215-1.941,0.185-2.781-0.087
					c-0.84-0.273-1.544-0.755-2.111-1.447c-0.567-0.692-0.956-1.535-1.167-2.53C443.263,129.444,443.276,128.515,443.514,127.653z"
					/>
				<path style="fill:#3F3251;" d="M461.417,126.213l-4.954-2.081l2.452,3.727l-2.695,1.773l-5.655-8.596l2.695-1.773l2.38,3.618
					l0.085-5.24l3.047-2.005l-0.254,6.064l6.104,2.403L461.417,126.213z"/>
			</g>
			<g>
				<path style="fill:#3F3251;" d="M425.044,48.028c0.735-0.51,1.545-0.781,2.427-0.813c0.882-0.032,1.782,0.194,2.698,0.679
					c0.788,0.417,1.415,0.937,1.879,1.561c0.465,0.624,0.749,1.308,0.854,2.054c0.104,0.745,0.03,1.512-0.222,2.299l-3.006-1.589
					c0.021-0.372-0.051-0.709-0.214-1.01c-0.165-0.3-0.409-0.537-0.735-0.709c-0.48-0.254-0.953-0.274-1.422-0.062
					c-0.47,0.213-0.864,0.623-1.186,1.231c-0.321,0.608-0.438,1.165-0.35,1.673c0.088,0.507,0.371,0.887,0.851,1.14
					c0.326,0.173,0.659,0.242,1,0.208c0.34-0.034,0.659-0.164,0.955-0.391l3.006,1.589c-0.509,0.651-1.101,1.144-1.776,1.478
					c-0.675,0.333-1.401,0.484-2.178,0.451c-0.777-0.033-1.56-0.258-2.348-0.675c-0.916-0.484-1.609-1.101-2.08-1.848
					c-0.47-0.748-0.702-1.569-0.694-2.464c0.007-0.894,0.249-1.791,0.724-2.691C423.704,49.243,424.309,48.538,425.044,48.028z"/>
				<path style="fill:#3F3251;" d="M429.324,64.526l2.246,2.152l-1.689,1.763l-4.575-4.384l7.118-7.429l2.329,2.232L429.324,64.526z
					"/>
				<path style="fill:#3F3251;" d="M443.374,60.271l-8.137,6.297l-1.975-2.551l8.137-6.297L443.374,60.271z"/>
				<path style="fill:#3F3251;" d="M438.857,65.814c0.846-0.289,1.699-0.328,2.557-0.117c0.857,0.211,1.661,0.675,2.409,1.392
					c0.644,0.617,1.104,1.289,1.38,2.016c0.276,0.727,0.362,1.464,0.258,2.209c-0.105,0.745-0.386,1.462-0.844,2.151l-2.455-2.352
					c0.122-0.352,0.146-0.696,0.071-1.029c-0.076-0.334-0.246-0.628-0.513-0.884c-0.392-0.376-0.842-0.525-1.35-0.449
					c-0.51,0.076-1.002,0.362-1.478,0.859c-0.476,0.497-0.741,1-0.794,1.513c-0.054,0.511,0.114,0.954,0.506,1.33
					c0.266,0.255,0.568,0.413,0.905,0.475c0.337,0.06,0.679,0.023,1.026-0.115l2.455,2.352c-0.668,0.487-1.373,0.799-2.112,0.935
					c-0.741,0.135-1.48,0.082-2.218-0.163c-0.738-0.245-1.43-0.675-2.074-1.292c-0.748-0.717-1.246-1.5-1.494-2.347
					c-0.247-0.848-0.246-1.701,0.007-2.56c0.252-0.858,0.73-1.655,1.434-2.389C437.235,66.614,438.011,66.102,438.857,65.814z"/>
				<path style="fill:#3F3251;" d="M450.129,79.796l-1.07-5.266l-1.699,4.125l-2.983-1.228l3.918-9.514l2.983,1.229l-1.649,4.004
					l4.378-2.881l3.372,1.389l-5.154,3.205l1.452,6.397L450.129,79.796z"/>
			</g>
		</g>
	</g>
</g>
</svg>
